<svg width="209" height="216" viewBox="0 0 209 216" fill="none" xmlns="http://www.w3.org/2000/svg">
<path d="M59.1486 56.1307C19 26 -17 93.5 29.7751 111.184C-11.5371 146.366 35 181.882 57.9883 161.443M59.1486 56.1307C36.5536 25.5364 83.1787 -20.1586 111.728 31.1054C123.819 -12.4522 190.658 14.3525 163.452 57.2399L107.026 111.184M59.1486 56.1307L107.026 111.184M159.422 165.129C181 183.5 141.285 240.517 107.026 181.882C90 228 33 197.5 57.9883 161.443M159.422 165.129C182.933 175.516 218.871 134.974 190.658 108.169L156.307 105.049V123.478M159.422 165.129L107.026 111.184M57.9883 161.443L107.026 111.184" stroke="url(#paint0_linear_63_6)" stroke-width="15" stroke-linecap="round" stroke-linejoin="round"/>
<defs>
<linearGradient id="paint0_linear_63_6" x1="120.36" y1="243.359" x2="105.992" y2="79.8239" gradientUnits="userSpaceOnUse">
<stop offset="0.069732" stop-color="#01A662"/>
<stop offset="1" stop-color="#08D136"/>
</linearGradient>
</defs>
</svg>
