<svg width="166" height="130" viewBox="0 0 166 130" fill="none" xmlns="http://www.w3.org/2000/svg">
<path d="M35.072 21.552C40.1067 21.552 44.5013 22.576 48.256 24.624C52.096 26.672 55.04 29.36 57.088 32.688V22.576H78.976V93.872C78.976 100.443 77.6533 106.373 75.008 111.664C72.448 117.04 68.48 121.307 63.104 124.464C57.8133 127.621 51.2 129.2 43.264 129.2C32.6827 129.2 24.1067 126.683 17.536 121.648C10.9653 116.699 7.21067 109.957 6.272 101.424H27.904C28.5867 104.155 30.208 106.288 32.768 107.824C35.328 109.445 38.4853 110.256 42.24 110.256C46.7627 110.256 50.3467 108.933 52.992 106.288C55.7227 103.728 57.088 99.5893 57.088 93.872V83.76C54.9547 87.088 52.0107 89.8187 48.256 91.952C44.5013 94 40.1067 95.024 35.072 95.024C29.184 95.024 23.8507 93.5307 19.072 90.544C14.2933 87.472 10.496 83.1627 7.68 77.616C4.94933 71.984 3.584 65.4987 3.584 58.16C3.584 50.8213 4.94933 44.3787 7.68 38.832C10.496 33.2853 14.2933 29.0187 19.072 26.032C23.8507 23.0453 29.184 21.552 35.072 21.552ZM57.088 58.288C57.088 52.8267 55.552 48.5173 52.48 45.36C49.4933 42.2027 45.824 40.624 41.472 40.624C37.12 40.624 33.408 42.2027 30.336 45.36C27.3493 48.432 25.856 52.6987 25.856 58.16C25.856 63.6213 27.3493 67.9733 30.336 71.216C33.408 74.3733 37.12 75.952 41.472 75.952C45.824 75.952 49.4933 74.3733 52.48 71.216C55.552 68.0587 57.088 63.7493 57.088 58.288ZM77.659 58.288C77.659 50.864 79.1523 44.3787 82.139 38.832C85.211 33.2853 89.435 29.0187 94.811 26.032C100.272 23.0453 106.502 21.552 113.499 21.552C122.459 21.552 129.926 23.8987 135.899 28.592C141.958 33.2853 145.926 39.8987 147.803 48.432H124.507C122.544 42.9707 118.747 40.24 113.115 40.24C109.104 40.24 105.904 41.8187 103.515 44.976C101.126 48.048 99.931 52.4853 99.931 58.288C99.931 64.0907 101.126 68.5707 103.515 71.728C105.904 74.8 109.104 76.336 113.115 76.336C118.747 76.336 122.544 73.6053 124.507 68.144H147.803C145.926 76.5067 141.958 83.0773 135.899 87.856C129.84 92.6347 122.374 95.024 113.499 95.024C106.502 95.024 100.272 93.5307 94.811 90.544C89.435 87.5573 85.211 83.2907 82.139 77.744C79.1523 72.1973 77.659 65.712 77.659 58.288Z" fill="#DBDFE1"/>
<rect x="10" y="4" width="28" height="12" rx="6" stroke="#00C030" stroke-width="2"/>
<rect x="43.5" y="4.5" width="103" height="11" rx="5.5" fill="#00C030" stroke="#00C030"/>
</svg>
