<svg width="860" height="232" viewBox="0 0 860 232" fill="none" xmlns="http://www.w3.org/2000/svg">
<path d="M277.84 64.44C284.133 64.44 289.627 65.72 294.32 68.28C299.12 70.84 302.8 74.2 305.36 78.36V65.72H332.72V154.84C332.72 163.053 331.067 170.467 327.76 177.08C324.56 183.8 319.6 189.133 312.88 193.08C306.267 197.027 298 199 288.08 199C274.853 199 264.133 195.853 255.92 189.56C247.707 183.373 243.013 174.947 241.84 164.28H268.88C269.733 167.693 271.76 170.36 274.96 172.28C278.16 174.307 282.107 175.32 286.8 175.32C292.453 175.32 296.933 173.667 300.24 170.36C303.653 167.16 305.36 161.987 305.36 154.84V142.2C302.693 146.36 299.013 149.773 294.32 152.44C289.627 155 284.133 156.28 277.84 156.28C270.48 156.28 263.813 154.413 257.84 150.68C251.867 146.84 247.12 141.453 243.6 134.52C240.187 127.48 238.48 119.373 238.48 110.2C238.48 101.027 240.187 92.9733 243.6 86.04C247.12 79.1067 251.867 73.7733 257.84 70.04C263.813 66.3067 270.48 64.44 277.84 64.44ZM305.36 110.36C305.36 103.533 303.44 98.1467 299.6 94.2C295.867 90.2533 291.28 88.28 285.84 88.28C280.4 88.28 275.76 90.2533 271.92 94.2C268.187 98.04 266.32 103.373 266.32 110.2C266.32 117.027 268.187 122.467 271.92 126.52C275.76 130.467 280.4 132.44 285.84 132.44C291.28 132.44 295.867 130.467 299.6 126.52C303.44 122.573 305.36 117.187 305.36 110.36ZM347.074 110.36C347.074 101.08 348.94 92.9733 352.674 86.04C356.514 79.1067 361.794 73.7733 368.514 70.04C375.34 66.3067 383.127 64.44 391.874 64.44C403.074 64.44 412.407 67.3733 419.874 73.24C427.447 79.1067 432.407 87.3733 434.754 98.04H405.634C403.18 91.2133 398.434 87.8 391.394 87.8C386.38 87.8 382.38 89.7733 379.394 93.72C376.407 97.56 374.914 103.107 374.914 110.36C374.914 117.613 376.407 123.213 379.394 127.16C382.38 131 386.38 132.92 391.394 132.92C398.434 132.92 403.18 129.507 405.634 122.68H434.754C432.407 133.133 427.447 141.347 419.874 147.32C412.3 153.293 402.967 156.28 391.874 156.28C383.127 156.28 375.34 154.413 368.514 150.68C361.794 146.947 356.514 141.613 352.674 134.68C348.94 127.747 347.074 119.64 347.074 110.36ZM443.949 110.2C443.949 101.027 445.655 92.9733 449.069 86.04C452.589 79.1067 457.335 73.7733 463.309 70.04C469.282 66.3067 475.949 64.44 483.309 64.44C489.602 64.44 495.095 65.72 499.789 68.28C504.589 70.84 508.269 74.2 510.829 78.36V65.72H538.189V155H510.829V142.36C508.162 146.52 504.429 149.88 499.629 152.44C494.935 155 489.442 156.28 483.149 156.28C475.895 156.28 469.282 154.413 463.309 150.68C457.335 146.84 452.589 141.453 449.069 134.52C445.655 127.48 443.949 119.373 443.949 110.2ZM510.829 110.36C510.829 103.533 508.909 98.1467 505.069 94.2C501.335 90.2533 496.749 88.28 491.309 88.28C485.869 88.28 481.229 90.2533 477.389 94.2C473.655 98.04 471.789 103.373 471.789 110.2C471.789 117.027 473.655 122.467 477.389 126.52C481.229 130.467 485.869 132.44 491.309 132.44C496.749 132.44 501.335 130.467 505.069 126.52C508.909 122.573 510.829 117.187 510.829 110.36ZM594.303 156.28C586.516 156.28 579.583 154.947 573.503 152.28C567.423 149.613 562.623 145.987 559.103 141.4C555.583 136.707 553.609 131.48 553.183 125.72H580.223C580.543 128.813 581.983 131.32 584.543 133.24C587.103 135.16 590.249 136.12 593.983 136.12C597.396 136.12 600.009 135.48 601.823 134.2C603.743 132.813 604.703 131.053 604.703 128.92C604.703 126.36 603.369 124.493 600.703 123.32C598.036 122.04 593.716 120.653 587.743 119.16C581.343 117.667 576.009 116.12 571.743 114.52C567.476 112.813 563.796 110.2 560.703 106.68C557.609 103.053 556.063 98.2 556.063 92.12C556.063 87 557.449 82.36 560.223 78.2C563.103 73.9333 567.263 70.5733 572.703 68.12C578.249 65.6667 584.809 64.44 592.383 64.44C603.583 64.44 612.383 67.2133 618.783 72.76C625.289 78.3067 629.023 85.6667 629.983 94.84H604.703C604.276 91.7467 602.889 89.2933 600.543 87.48C598.303 85.6667 595.316 84.76 591.583 84.76C588.383 84.76 585.929 85.4 584.223 86.68C582.516 87.8533 581.663 89.5067 581.663 91.64C581.663 94.2 582.996 96.12 585.663 97.4C588.436 98.68 592.703 99.96 598.463 101.24C605.076 102.947 610.463 104.653 614.623 106.36C618.783 107.96 622.409 110.627 625.503 114.36C628.703 117.987 630.356 122.893 630.463 129.08C630.463 134.307 628.969 139 625.983 143.16C623.103 147.213 618.889 150.413 613.343 152.76C607.903 155.107 601.556 156.28 594.303 156.28ZM702.081 64.76C712.321 64.76 720.535 68.1733 726.721 75C732.908 81.72 736.001 91 736.001 102.84V155H708.801V106.52C708.801 100.547 707.255 95.9067 704.161 92.6C701.068 89.2933 696.908 87.64 691.681 87.64C686.455 87.64 682.295 89.2933 679.201 92.6C676.108 95.9067 674.561 100.547 674.561 106.52V155H647.201V36.6H674.561V77.72C677.335 73.7733 681.121 70.6267 685.921 68.28C690.721 65.9333 696.108 64.76 702.081 64.76ZM767.814 156.28C763.014 156.28 759.067 154.893 755.974 152.12C752.987 149.24 751.494 145.72 751.494 141.56C751.494 137.293 752.987 133.72 755.974 130.84C759.067 127.96 763.014 126.52 767.814 126.52C772.507 126.52 776.347 127.96 779.334 130.84C782.427 133.72 783.974 137.293 783.974 141.56C783.974 145.72 782.427 149.24 779.334 152.12C776.347 154.893 772.507 156.28 767.814 156.28Z" fill="white"/>
<path d="M71.1486 65.1307C31 35 -5.00002 102.5 41.7751 120.184C0.462921 155.366 47 190.882 69.9883 170.443M71.1486 65.1307C48.5536 34.5364 95.1787 -11.1586 123.728 40.1054C135.819 -3.45221 202.658 23.3525 175.452 66.2399L119.026 120.184M71.1486 65.1307L119.026 120.184M171.422 174.129C193 192.5 153.285 249.517 119.026 190.882C102 237 45 206.5 69.9883 170.443M171.422 174.129C194.933 184.516 230.871 143.974 202.658 117.169L168.307 114.049V132.478M171.422 174.129L119.026 120.184M69.9883 170.443L119.026 120.184" stroke="url(#paint0_linear_46_5)" stroke-width="15" stroke-linecap="round" stroke-linejoin="round"/>
<defs>
<linearGradient id="paint0_linear_46_5" x1="132.36" y1="252.359" x2="117.992" y2="88.8239" gradientUnits="userSpaceOnUse">
<stop offset="0.069732" stop-color="#01A662"/>
<stop offset="1" stop-color="#08D136"/>
</linearGradient>
</defs>
</svg>
