<svg width="351" height="191" viewBox="0 0 351 191" fill="none" xmlns="http://www.w3.org/2000/svg">
<rect x="93" y="151" width="36" height="15" rx="7.5" stroke="#00C030" stroke-width="2"/>
<rect x="133.5" y="151.5" width="217" height="14" rx="7" fill="#00C030" stroke="#00C030"/>
<path d="M35.072 68.552C40.1067 68.552 44.5013 69.576 48.256 71.624C52.096 73.672 55.04 76.36 57.088 79.688V69.576H78.976V140.872C78.976 147.443 77.6533 153.373 75.008 158.664C72.448 164.04 68.48 168.307 63.104 171.464C57.8133 174.621 51.2 176.2 43.264 176.2C32.6827 176.2 24.1067 173.683 17.536 168.648C10.9653 163.699 7.21067 156.957 6.272 148.424H27.904C28.5867 151.155 30.208 153.288 32.768 154.824C35.328 156.445 38.4853 157.256 42.24 157.256C46.7627 157.256 50.3467 155.933 52.992 153.288C55.7227 150.728 57.088 146.589 57.088 140.872V130.76C54.9547 134.088 52.0107 136.819 48.256 138.952C44.5013 141 40.1067 142.024 35.072 142.024C29.184 142.024 23.8507 140.531 19.072 137.544C14.2933 134.472 10.496 130.163 7.68 124.616C4.94933 118.984 3.584 112.499 3.584 105.16C3.584 97.8213 4.94933 91.3787 7.68 85.832C10.496 80.2853 14.2933 76.0187 19.072 73.032C23.8507 70.0453 29.184 68.552 35.072 68.552ZM57.088 105.288C57.088 99.8267 55.552 95.5173 52.48 92.36C49.4933 89.2027 45.824 87.624 41.472 87.624C37.12 87.624 33.408 89.2027 30.336 92.36C27.3493 95.432 25.856 99.6987 25.856 105.16C25.856 110.621 27.3493 114.973 30.336 118.216C33.408 121.373 37.12 122.952 41.472 122.952C45.824 122.952 49.4933 121.373 52.48 118.216C55.552 115.059 57.088 110.749 57.088 105.288ZM77.659 105.288C77.659 97.864 79.1523 91.3787 82.139 85.832C85.211 80.2853 89.435 76.0187 94.811 73.032C100.272 70.0453 106.502 68.552 113.499 68.552C122.459 68.552 129.926 70.8987 135.899 75.592C141.958 80.2853 145.926 86.8987 147.803 95.432H124.507C122.544 89.9707 118.747 87.24 113.115 87.24C109.104 87.24 105.904 88.8187 103.515 91.976C101.126 95.048 99.931 99.4853 99.931 105.288C99.931 111.091 101.126 115.571 103.515 118.728C105.904 121.8 109.104 123.336 113.115 123.336C118.747 123.336 122.544 120.605 124.507 115.144H147.803C145.926 123.507 141.958 130.077 135.899 134.856C129.84 139.635 122.374 142.024 113.499 142.024C106.502 142.024 100.272 140.531 94.811 137.544C89.435 134.557 85.211 130.291 82.139 124.744C79.1523 119.197 77.659 112.712 77.659 105.288ZM142.359 105.16C142.359 97.8213 143.724 91.3787 146.455 85.832C149.271 80.2853 153.068 76.0187 157.847 73.032C162.626 70.0453 167.959 68.552 173.847 68.552C178.882 68.552 183.276 69.576 187.031 71.624C190.871 73.672 193.815 76.36 195.863 79.688V69.576H217.751V141H195.863V130.888C193.73 134.216 190.743 136.904 186.903 138.952C183.148 141 178.754 142.024 173.719 142.024C167.916 142.024 162.626 140.531 157.847 137.544C153.068 134.472 149.271 130.163 146.455 124.616C143.724 118.984 142.359 112.499 142.359 105.16ZM195.863 105.288C195.863 99.8267 194.327 95.5173 191.255 92.36C188.268 89.2027 184.599 87.624 180.247 87.624C175.895 87.624 172.183 89.2027 169.111 92.36C166.124 95.432 164.631 99.6987 164.631 105.16C164.631 110.621 166.124 114.973 169.111 118.216C172.183 121.373 175.895 122.952 180.247 122.952C184.599 122.952 188.268 121.373 191.255 118.216C194.327 115.059 195.863 110.749 195.863 105.288ZM249.842 142.024C243.613 142.024 238.066 140.957 233.202 138.824C228.338 136.691 224.498 133.789 221.682 130.12C218.866 126.365 217.287 122.184 216.946 117.576H238.578C238.834 120.051 239.986 122.056 242.034 123.592C244.082 125.128 246.599 125.896 249.586 125.896C252.317 125.896 254.407 125.384 255.858 124.36C257.394 123.251 258.162 121.843 258.162 120.136C258.162 118.088 257.095 116.595 254.962 115.656C252.829 114.632 249.373 113.523 244.594 112.328C239.474 111.133 235.207 109.896 231.794 108.616C228.381 107.251 225.437 105.16 222.962 102.344C220.487 99.4427 219.25 95.56 219.25 90.696C219.25 86.6 220.359 82.888 222.578 79.56C224.882 76.1467 228.21 73.4587 232.562 71.496C236.999 69.5333 242.247 68.552 248.306 68.552C257.266 68.552 264.306 70.7707 269.426 75.208C274.631 79.6453 277.618 85.5333 278.386 92.872H258.162C257.821 90.3973 256.711 88.4347 254.834 86.984C253.042 85.5333 250.653 84.808 247.666 84.808C245.106 84.808 243.143 85.32 241.778 86.344C240.413 87.2827 239.73 88.6053 239.73 90.312C239.73 92.36 240.797 93.896 242.93 94.92C245.149 95.944 248.562 96.968 253.17 97.992C258.461 99.3573 262.77 100.723 266.098 102.088C269.426 103.368 272.327 105.501 274.802 108.488C277.362 111.389 278.685 115.315 278.77 120.264C278.77 124.445 277.575 128.2 275.186 131.528C272.882 134.771 269.511 137.331 265.074 139.208C260.722 141.085 255.645 142.024 249.842 142.024ZM323.265 68.808C331.457 68.808 338.028 71.5387 342.977 77C347.926 82.376 350.401 89.8 350.401 99.272V141H328.641V102.216C328.641 97.4373 327.404 93.7253 324.929 91.08C322.454 88.4347 319.126 87.112 314.945 87.112C310.764 87.112 307.436 88.4347 304.961 91.08C302.486 93.7253 301.249 97.4373 301.249 102.216V141H279.361V46.28H301.249V79.176C303.468 76.0187 306.497 73.5013 310.337 71.624C314.177 69.7467 318.486 68.808 323.265 68.808Z" fill="#DBDFE1"/>
</svg>
