<svg width="500" height="500" viewBox="0 0 500 500" fill="none" xmlns="http://www.w3.org/2000/svg">
<path d="M417.319 456.396C438.455 426.056 441.009 383.794 423.681 351.129C406.273 318.315 371.915 296.849 355.348 263.601C332.98 218.711 348.029 163.699 333.349 115.741C321.085 75.6751 285.792 42.5791 244.315 36.6311C243.715 36.5461 243.115 36.4661 242.514 36.3921C212.533 32.7211 180.987 44.3631 160.285 66.2941C137.76 90.1561 133.211 129.59 145.67 159.603C153.307 177.999 167.227 194.258 169.419 214.056C171.978 237.174 157.721 258.887 141.182 275.241C124.643 291.596 105.025 305.19 91.8299 324.344C78.6819 343.429 72.8669 367.083 73.7029 390.243C74.5389 413.403 81.7799 436.07 92.7869 456.464" fill="#263940"/>
<mask id="path-2-inside-1_485_525" fill="white">
<path d="M149.24 462.283C150.124 433.688 151.008 409.962 151.892 381.367C220.206 376.519 289.502 374.11 357.971 375.624C362.769 406.068 365.948 432.035 367.578 462.811"/>
</mask>
<path d="M149.24 462.283C150.124 433.688 151.008 409.962 151.892 381.367C220.206 376.519 289.502 374.11 357.971 375.624C362.769 406.068 365.948 432.035 367.578 462.811" fill="#6B749B"/>
<path d="M151.892 381.367L151.821 380.37L150.92 380.434L150.892 381.336L151.892 381.367ZM357.971 375.624L358.959 375.468L358.829 374.643L357.993 374.624L357.971 375.624ZM149.24 462.283L150.24 462.314C150.681 448.018 151.123 434.939 151.565 421.859C152.007 408.779 152.449 395.697 152.892 381.398L151.892 381.367L150.892 381.336C150.451 395.632 150.009 408.711 149.567 421.791C149.125 434.871 148.683 447.953 148.24 462.252L149.24 462.283ZM151.892 381.367L151.963 382.365C220.253 377.518 289.517 375.111 357.949 376.624L357.971 375.624L357.993 374.624C289.487 373.109 220.159 375.52 151.821 380.37L151.892 381.367ZM357.971 375.624L356.983 375.78C361.778 406.201 364.952 432.132 366.579 462.864L367.578 462.811L368.577 462.758C366.944 431.938 363.76 405.935 358.959 375.468L357.971 375.624Z" fill="#517282" fill-opacity="0.1" mask="url(#path-2-inside-1_485_525)"/>
<path d="M254.757 456.617C255.105 448.113 255.453 444.477 255.801 435.973C263.714 433.866 271.627 431.759 279.539 429.652" stroke="#517282" stroke-opacity="0.1" stroke-miterlimit="10" stroke-linecap="round" stroke-linejoin="round"/>
<path d="M152.205 423.834C159.508 422.556 166.347 418.771 171.308 413.262" stroke="#517282" stroke-opacity="0.1" stroke-miterlimit="10" stroke-linecap="round" stroke-linejoin="round"/>
<path d="M362.813 424.32C353.441 421.242 345.105 415.094 339.395 407.05" stroke="#517282" stroke-opacity="0.1" stroke-miterlimit="10" stroke-linecap="round" stroke-linejoin="round"/>
<path d="M228.628 158.567C233.493 156.231 238.937 155.298 244.337 154.881C250.903 154.374 257.526 154.59 264.043 155.525C268.606 156.18 273.224 157.229 277.098 159.683C280.921 162.105 285.464 167.686 284.222 172.65C283.635 174.993 280.557 177.343 278.73 178.726C276.544 180.382 274.104 181.697 271.547 182.681C266.27 184.71 260.56 185.378 254.908 185.478C248.963 185.584 243.007 185.081 237.163 183.98C233.64 183.316 230.107 182.415 226.993 180.636C223.879 178.857 221.197 176.104 220.137 172.679C218.088 166.057 223.156 161.195 228.628 158.567Z" fill="#3A9399"/>
<path d="M278.661 181.651C279.842 179.744 283.563 170.049 278.038 171.344C276.856 171.621 275.886 172.429 274.856 173.071C270.786 175.607 265.683 175.585 260.888 175.483C249.561 175.242 238.005 174.96 227.333 171.158C226.622 170.905 225.714 170.68 225.209 171.24C224.895 171.589 224.884 172.108 224.905 172.577C225.123 177.448 226.648 180.269 229.583 183.838C231.99 186.765 233.889 189.868 234.902 193.555C236.833 200.58 235.478 207.311 235.192 214.404C232.593 278.935 229.995 343.466 227.396 407.997C244.681 408.776 262.676 408.774 280.238 407.962C277.78 344.226 273.446 280.516 272.667 216.748C273.657 204.908 271.775 191.972 278.661 181.651Z" fill="white"/>
<path d="M301.804 386.059C302.613 386.274 303.421 386.488 304.23 386.703C265.256 404.088 220.247 400.227 180.39 388.462C210.096 391.249 240.165 390.14 269.585 385.174" stroke="#2C2B29" stroke-miterlimit="10" stroke-linecap="round" stroke-linejoin="round"/>
<path d="M216.522 271.999C239.515 254.714 269.605 247.185 298.029 251.606C291.171 274.153 273.639 293.197 251.735 301.892" stroke="#2C2B29" stroke-miterlimit="10" stroke-linecap="round" stroke-linejoin="round"/>
<path d="M225.551 171.924C226.179 171.264 226.837 170.651 227.518 170.076C219.415 165.659 210.106 159.537 198.1 151.936C173.315 142.979 165.242 172.494 164.771 191.388C153.542 259.071 147.594 327.399 146.691 395.979C166.509 402.523 199.684 413.929 231.32 415.355C233.919 350.824 232.594 278.938 235.193 214.407C240.054 180.508 222.87 186.388 225.551 171.924Z" fill="#77C1C5"/>
<path d="M225.918 207.043C225.57 208.726 226.285 210.581 227.673 211.595C228.479 212.184 229.582 212.487 230.487 212.067C231.126 211.771 231.568 211.165 231.883 210.536C232.508 209.287 232.729 207.794 232.264 206.477C231.844 205.29 230.318 203.71 228.948 203.748C227.456 203.789 226.183 205.759 225.918 207.043Z" fill="white"/>
<path d="M224.986 245.208C224.638 246.891 225.353 248.746 226.741 249.76C227.547 250.349 228.65 250.652 229.555 250.232C230.194 249.936 230.636 249.33 230.951 248.701C231.576 247.452 231.797 245.959 231.332 244.642C230.912 243.455 229.386 241.874 228.016 241.913C226.524 241.954 225.251 243.925 224.986 245.208Z" fill="white"/>
<path d="M223.876 280.729C223.528 282.412 224.243 284.267 225.631 285.281C226.437 285.87 227.54 286.173 228.445 285.753C229.084 285.457 229.526 284.852 229.841 284.222C230.465 282.973 230.687 281.48 230.222 280.163C229.802 278.976 228.276 277.396 226.906 277.434C225.414 277.475 224.142 279.446 223.876 280.729Z" fill="white"/>
<path d="M222.411 317.077C222.063 318.76 222.778 320.615 224.166 321.629C224.972 322.218 226.075 322.521 226.98 322.101C227.619 321.805 228.061 321.199 228.376 320.57C229.001 319.321 229.222 317.828 228.757 316.511C228.337 315.324 226.811 313.743 225.441 313.782C223.948 313.823 222.676 315.793 222.411 317.077Z" fill="white"/>
<path d="M221.645 351.552C221.297 353.235 222.012 355.09 223.4 356.104C224.206 356.693 225.309 356.996 226.214 356.576C226.853 356.28 227.295 355.675 227.61 355.045C228.235 353.796 228.456 352.303 227.991 350.986C227.571 349.799 226.045 348.219 224.675 348.257C223.183 348.298 221.91 350.268 221.645 351.552Z" fill="white"/>
<path d="M220.263 386.632C219.915 388.315 220.63 390.17 222.018 391.184C222.824 391.773 223.927 392.076 224.832 391.656C225.471 391.36 225.913 390.755 226.228 390.125C226.853 388.876 227.074 387.383 226.609 386.066C226.189 384.879 224.663 383.299 223.293 383.337C221.801 383.378 220.528 385.348 220.263 386.632Z" fill="white"/>
<path d="M154.584 396.973C157.685 366.964 160.786 336.954 163.887 306.945" stroke="#2C2B29" stroke-miterlimit="10" stroke-linecap="round" stroke-linejoin="round"/>
<path d="M223.516 195.479C219.517 263.754 215.538 339.391 214.618 413.762" stroke="#2C2B29" stroke-miterlimit="10" stroke-linecap="round" stroke-linejoin="round"/>
<path d="M278.661 181.651C271.775 191.972 273.658 204.908 272.668 216.75C273.447 280.518 276.79 351.618 279.249 415.354C313.082 413.791 346.288 401.846 368.668 394.139C361.834 331.892 353.216 270.486 343.151 207.56C341.13 186.379 333.068 142.619 302.809 160.198C294.155 164.932 286.777 168.672 280.267 171.493C281.425 174.25 281.107 177.7 278.661 181.651Z" fill="#77C1C5"/>
<path d="M277.938 213.38C278.004 213.923 278.205 214.582 278.744 214.675C279.263 214.765 279.676 214.247 279.895 213.768C280.832 211.719 280.604 209.352 280.358 207.113C280.275 206.355 280.108 205.472 279.424 205.136C277.699 204.287 277.844 206.635 277.877 207.551C277.947 209.504 277.699 211.421 277.938 213.38Z" fill="#3A9399"/>
<path d="M277.938 250.059C278.004 250.602 278.205 251.261 278.744 251.354C279.263 251.444 279.676 250.926 279.895 250.447C280.832 248.398 280.604 246.031 280.358 243.792C280.275 243.034 280.108 242.151 279.424 241.815C277.699 240.966 277.844 243.314 277.877 244.23C277.947 246.183 277.699 248.1 277.938 250.059Z" fill="#3A9399"/>
<path d="M279.374 279.825C279.511 280.355 279.797 280.981 280.343 281.003C280.87 281.024 281.21 280.457 281.365 279.953C282.025 277.799 281.488 275.482 280.95 273.295C280.768 272.555 280.487 271.701 279.764 271.458C277.943 270.843 278.395 273.151 278.548 274.055C278.874 275.982 278.88 277.915 279.374 279.825Z" fill="#3A9399"/>
<path d="M280.16 317.404C280.272 317.939 280.529 318.579 281.074 318.626C281.599 318.671 281.966 318.12 282.143 317.624C282.902 315.503 282.473 313.164 282.036 310.954C281.888 310.206 281.647 309.341 280.937 309.064C279.146 308.366 279.491 310.692 279.602 311.602C279.839 313.542 279.755 315.473 280.16 317.404Z" fill="#3A9399"/>
<path d="M283.181 346.771C283.04 346.242 282.75 345.617 282.204 345.599C281.677 345.581 281.34 346.151 281.19 346.656C280.545 348.814 281.097 351.128 281.651 353.311C281.838 354.05 282.125 354.901 282.849 355.14C284.675 355.742 284.207 353.437 284.047 352.534C283.707 350.611 283.688 348.678 283.181 346.771Z" fill="#3A9399"/>
<path d="M286.053 382.388C285.912 381.859 285.622 381.235 285.076 381.216C284.549 381.198 284.212 381.768 284.062 382.273C283.417 384.431 283.969 386.745 284.523 388.928C284.71 389.667 284.997 390.518 285.721 390.757C287.547 391.359 287.079 389.054 286.919 388.152C286.58 386.228 286.561 384.295 286.053 382.388Z" fill="#3A9399"/>
<path d="M360.175 396.155C355.274 370.302 352.81 343.987 352.829 317.673" stroke="#2C2B29" stroke-miterlimit="10" stroke-linecap="round" stroke-linejoin="round"/>
<path d="M286.002 193.911C283.096 266.673 286.745 338.737 293.894 414.061" stroke="#2C2B29" stroke-miterlimit="10" stroke-linecap="round" stroke-linejoin="round"/>
<path d="M228.644 176.016C230.635 182.809 235.479 188.915 235.674 196.123C229.386 189.615 222.496 198.084 217.793 201.901C214.176 196.138 214.8 187.442 214.826 180.608C214.792 172.335 219.991 163.31 227.481 159.716C228.605 159.494 228.446 159.624 228.265 160.814C227.347 165.769 227.513 171.098 228.644 176.016Z" fill="#3A9399"/>
<path d="M273.616 194.052C273.435 196.234 273.356 198.424 273.379 200.613C275.99 198.61 279.409 197.692 282.672 198.118C285.935 198.544 289.004 200.31 291.012 202.917C291.209 203.172 291.456 203.465 291.777 203.435C292.057 203.409 292.247 203.147 292.391 202.906C297.93 193.674 297.259 182.606 292.199 173.219C288.955 167.202 283.815 161.915 277.26 159.627C277.854 159.835 276.962 166.162 276.947 167.017C276.924 168.326 277.373 169.665 277.412 170.991C277.455 172.488 277.326 173.988 277.098 175.466C276.638 178.438 275.785 181.333 275.121 184.267C274.392 187.488 273.889 190.76 273.616 194.052Z" fill="#3A9399"/>
<path d="M243.448 160.546C243.195 163.654 242.357 166.798 240.466 169.277C239.631 170.372 238.581 171.306 237.379 171.982C235.957 172.782 234.553 172.929 232.956 173.156C234.015 176.997 235.594 180.738 238.004 183.912C240.414 187.085 243.699 189.671 247.509 190.838C252.858 192.477 258.863 191.146 263.484 187.993C265.905 186.341 267.981 184.218 269.688 181.842C270.559 180.63 271.337 179.351 272.026 178.026C272.661 176.805 273.052 174.718 273.862 173.625C270.68 173.984 267.363 173.487 265.031 171.292C262.7 169.097 261.398 165.852 261.565 162.654L243.448 160.546Z" fill="#F5B19A"/>
<path d="M247.285 176.596C250.494 177.915 254.269 177.669 257.366 176.104C260.463 174.539 262.866 171.719 264.095 168.475C264.28 167.986 264.443 167.472 264.403 166.951C264.33 165.993 263.599 165.217 262.826 164.647C260.247 162.745 256.859 162.237 253.667 162.519C250.113 162.834 246.652 164.079 243.693 166.067C242.65 166.768 240.847 167.748 240.909 169.202C240.971 170.654 242.07 172.29 242.956 173.373C244.106 174.779 245.604 175.905 247.285 176.596Z" fill="#D48164"/>
<path d="M224.102 121.996C206.621 170.848 272.308 194.315 283.757 143.441C294.494 99.3371 239.176 79.8721 224.102 121.996Z" fill="#F5B19A"/>
<path d="M228.922 123.529C227.958 126.807 226.682 129.992 225.11 133.026C224.943 133.348 224.739 133.697 224.391 133.799C223.952 133.928 223.519 133.605 223.182 133.296C220.416 130.763 217.998 127.484 217.074 123.785C216.235 120.429 216.705 116.879 218.108 113.742C218.673 112.478 218.944 111.054 219.797 109.925C220.594 108.869 221.727 108.059 222.984 107.648C225.246 106.907 227.788 107.354 229.876 108.498C230.255 108.706 230.637 108.951 230.85 109.327C231.084 109.74 231.076 110.242 231.056 110.716C230.87 115.053 230.147 119.365 228.922 123.529Z" fill="#393939"/>
<path d="M274.112 118.092C275.552 121.534 277.905 124.666 281.32 126.041C282.098 126.354 283.012 126.656 283.327 127.433C283.568 128.027 283.364 128.698 283.168 129.309C281.536 134.386 280.495 139.654 280.073 144.971C282.136 143.557 284.073 142.371 285.76 140.484C287.31 138.75 288.606 136.804 289.734 134.774C290.887 132.699 291.863 130.531 292.761 128.336C293.197 127.27 293.613 126.197 294.021 125.121C294.347 124.261 295.206 122.865 295.206 121.955C296.827 117.615 297.163 111.958 295.409 107.615C293.941 103.982 290.951 101.362 287.473 99.6952C284.05 98.0542 280.638 97.4692 276.896 97.0722C276.317 97.0102 275.717 96.9512 275.166 97.1372C273.999 97.5292 273.451 98.8432 273.121 100.029C271.653 105.315 271.764 111.028 273.437 116.253C273.633 116.87 273.859 117.486 274.112 118.092Z" fill="#393939"/>
<path d="M285.85 100.214C283.934 104.302 283.612 109.113 284.966 113.42C286.32 117.727 289.336 121.489 293.246 123.746" stroke="#2C2B29" stroke-miterlimit="10" stroke-linecap="round" stroke-linejoin="round"/>
<path d="M221.702 116.584C235.048 125.44 246.66 106.865 260.864 111.11C264.052 111.682 267.087 112.932 270.275 113.503C287.14 116.636 284.836 95.2632 273.339 89.8632C266.575 86.2162 258.668 87.5482 251.26 86.5342C245.873 85.3642 241.473 81.6372 237.09 78.2952C206.755 54.5892 197.47 101.142 221.702 116.584Z" fill="#393939"/>
<path d="M218.948 114.462C221.666 117.478 224.946 118.783 228.993 118.459" stroke="#2C2B29" stroke-miterlimit="10" stroke-linecap="round" stroke-linejoin="round"/>
<path d="M280.621 97.8381C279.684 104.056 277.328 108.458 273.324 113.307" stroke="#2C2B29" stroke-miterlimit="10" stroke-linecap="round" stroke-linejoin="round"/>
<path d="M276.111 108.726C273.311 104.894 268.374 103.089 263.629 102.975C258.884 102.86 254.238 104.209 249.701 105.602C245.164 106.995 240.571 108.459 235.827 108.585C227.805 108.798 219.682 104.791 215.366 98.0261C211.049 91.2611 210.928 81.9221 215.455 75.2961" stroke="#2C2B29" stroke-miterlimit="10" stroke-linecap="round" stroke-linejoin="round"/>
<path d="M225.048 72.9702C224.555 78.4142 227.09 83.8972 231.137 87.5712C235.185 91.2452 240.595 93.2092 246.039 93.6982C250.101 94.0632 254.187 93.6552 258.263 93.5252C262.339 93.3952 266.513 93.5612 270.326 95.0102C274.139 96.4592 277.574 99.3782 278.764 103.279" stroke="#2C2B29" stroke-miterlimit="10" stroke-linecap="round" stroke-linejoin="round"/>
<path d="M245.629 128.448C245.149 130.528 244.403 133.229 241.662 132.915C238.701 132.576 239.374 129.293 239.631 127.305C241.551 127.277 243.471 127.25 245.391 127.222C245.491 127.221 245.598 127.221 245.681 127.277C245.843 127.387 245.817 127.63 245.773 127.821C245.726 128.021 245.679 128.231 245.629 128.448Z" fill="#2C2B29"/>
<path d="M265.029 133.052C264.402 134.929 263.685 137.426 266.005 138.504C268.51 139.668 269.567 136.747 270.325 135.05C268.82 134.099 267.315 133.148 265.811 132.198C265.733 132.149 265.648 132.097 265.555 132.102C265.373 132.111 265.276 132.315 265.219 132.488C265.159 132.667 265.094 132.856 265.029 133.052Z" fill="#2C2B29"/>
<path d="M225.485 147.028C225.691 149.027 226.617 150.944 228.055 152.347C228.73 153.006 229.628 153.582 230.558 153.422C231.673 153.23 232.347 152.072 232.638 150.979C233.301 148.49 232.726 145.702 231.132 143.678C230.312 142.637 228.264 141.067 226.841 141.885C225.413 142.706 225.342 145.63 225.485 147.028Z" fill="#D48164"/>
<path d="M268.661 153.388C267.135 154.696 266.088 156.549 265.754 158.53C265.597 159.461 265.635 160.527 266.297 161.2C267.09 162.007 268.426 161.901 269.49 161.518C271.913 160.645 273.877 158.584 274.632 156.121C275.02 154.855 275.144 152.276 273.661 151.573C272.172 150.867 269.728 152.474 268.661 153.388Z" fill="#D48164"/>
<path d="M247.634 140.297C247.57 138.462 248.125 136.586 249.298 135.174C250.471 133.761 252.278 132.856 254.113 132.911C255.948 132.965 257.754 134.035 258.559 135.684C259.45 137.508 259.073 139.667 258.678 141.657" stroke="#2C2B29" stroke-miterlimit="10" stroke-linecap="round" stroke-linejoin="round"/>
<path d="M241.932 149.49C247.992 148.846 254.266 150.454 259.268 153.935" stroke="#2C2B29" stroke-miterlimit="10" stroke-linecap="round" stroke-linejoin="round"/>
<path d="M284.943 154.105C280.625 153.999 277.992 149.649 278.362 145.673C278.588 143.246 279.757 140.967 281.377 139.146C282.669 137.693 284.309 136.475 286.204 136.042C289.669 135.25 292.588 137.589 293.627 140.78C295.005 145.011 293.301 150.052 289.638 152.579C288.261 153.529 286.616 154.146 284.943 154.105Z" fill="#F5B19A"/>
<path d="M290.225 144.66C290.054 146.943 288.473 149.062 286.333 149.875C285.863 150.053 285.355 150.174 284.859 150.092C284.363 150.01 283.883 149.692 283.723 149.216C283.526 148.634 283.851 147.985 284.318 147.586C284.785 147.187 285.375 146.969 285.924 146.694C286.473 146.419 287.02 146.047 287.261 145.482C287.972 143.816 285.543 142.136 286.561 140.641C287.673 139.009 289.127 140.516 289.672 141.698C290.095 142.62 290.301 143.646 290.225 144.66Z" fill="#D48164"/>
<path d="M217.976 141.575C222.089 142.892 226.005 139.648 226.96 135.771C227.543 133.404 227.188 130.868 226.255 128.616C225.512 126.82 224.362 125.131 222.715 124.1C219.702 122.214 216.177 123.465 214.148 126.138C211.457 129.682 211.412 135.003 214.042 138.593C215.031 139.941 216.383 141.065 217.976 141.575Z" fill="#F5B19A"/>
<path d="M216.088 130.92C215.5 133.133 216.298 135.653 218.053 137.124C218.438 137.447 218.879 137.728 219.374 137.813C219.869 137.899 220.427 137.755 220.735 137.358C221.112 136.873 221.019 136.153 220.709 135.623C220.399 135.093 219.913 134.693 219.485 134.253C219.057 133.813 218.663 133.282 218.62 132.67C218.495 130.863 221.341 130.074 220.87 128.327C220.355 126.42 218.487 127.366 217.584 128.304C216.88 129.035 216.35 129.937 216.088 130.92Z" fill="#D48164"/>
<path d="M135.55 191.737C131.962 211.77 129.934 232.984 134.369 252.917C125.674 245.895 115.018 240.802 104.458 237.889C108.174 244.806 102.465 252.022 100.445 258.581C87.5901 355.707 206.256 370.716 196.766 250.927C194.109 217.391 227.395 168.749 198.1 151.935C159.851 129.983 143.444 153.621 135.55 191.737Z" fill="#77C1C5"/>
<path d="M148.266 159.314C154.536 153.235 164.325 151.951 172.795 154.078C181.266 156.205 188.682 161.253 195.619 166.559C202.556 171.865 206.293 176.004 214.154 179.81" stroke="#2C2B29" stroke-miterlimit="10" stroke-linecap="round" stroke-linejoin="round"/>
<path d="M134.772 252.811C151.592 259.631 166.139 271.93 175.662 287.381" stroke="#2C2B29" stroke-miterlimit="10" stroke-linecap="round" stroke-linejoin="round"/>
<path d="M149.326 335.618C209.14 338.136 197.126 230.708 193.739 189.103" stroke="#2C2B29" stroke-miterlimit="10" stroke-linecap="round" stroke-linejoin="round"/>
<path d="M114.828 271.212C124.729 296.478 145.057 317.472 169.991 328.182" stroke="#2C2B29" stroke-miterlimit="10" stroke-linecap="round" stroke-linejoin="round"/>
<path d="M120.539 241.786C130.421 246.719 132.324 253.421 127.639 263.202C123.055 274.653 111.027 282.679 98.6611 279.236C95.9871 263.619 94.9861 226.651 120.539 241.786Z" fill="#3A9399"/>
<path d="M114.835 262.866C114.093 263.15 113.335 263.371 112.576 263.52C109.236 264.173 105.87 264.456 102.503 264.931C96.754 265.743 91.129 267.433 85.885 269.925C84.66 270.507 83.093 271.098 82.065 270.214C80.967 269.269 81.459 267.5 82.037 266.171C81.169 266.803 80.275 267.448 79.237 267.722C78.199 267.996 76.969 267.817 76.268 267.005C75.537 266.159 75.575 264.851 76.061 263.844C76.547 262.837 77.398 262.062 78.229 261.313C77.658 262.21 76.224 262.267 75.44 261.55C74.655 260.833 74.511 259.588 74.905 258.6C75.299 257.613 76.141 256.862 77.066 256.338C76.269 256.98 74.94 256.471 74.541 255.528C73.977 254.196 74.835 252.769 75.971 252.126C77.394 251.322 78.843 250.565 80.316 249.857C83.262 248.441 86.301 247.219 89.408 246.203C91.303 245.583 93.223 245.039 95.162 244.574C95.066 244.597 94.598 244.28 94.476 244.235C94.183 244.127 93.875 244.058 93.565 244.026C92.933 243.961 92.318 244.061 91.727 244.285C90.537 244.736 89.117 244.925 87.841 244.977C86.39 245.036 84.9 244.801 83.634 244.09C83.117 243.799 82.597 243.348 82.583 242.755C82.57 242.209 83.008 241.742 83.503 241.509C83.997 241.276 84.552 241.216 85.081 241.08C87.836 240.372 89.624 237.736 92.102 236.339C94.447 235.017 97.266 234.882 99.956 234.983C104.741 235.162 109.802 235.78 114.187 237.771C115.501 238.368 116.761 239.171 117.736 240.247C118.709 241.32 119.007 242.464 119.435 243.789C119.884 245.182 120.059 246.663 120.634 248.01C121.202 249.341 122.144 250.503 122.575 251.885C123.369 254.432 122.23 257.265 120.383 259.191C118.864 260.779 116.911 262.07 114.835 262.866Z" fill="#F5B19A"/>
<path d="M82.0129 266.175C87.6529 262.457 94.2199 260.166 100.663 258.377" stroke="#2C2B29" stroke-miterlimit="10" stroke-linecap="round" stroke-linejoin="round"/>
<path d="M77.4541 262.015C84.5081 257.727 89.8561 254.982 98.0001 253.632" stroke="#2C2B29" stroke-miterlimit="10" stroke-linecap="round" stroke-linejoin="round"/>
<path d="M76.4619 256.367C83.3489 252.463 88.7439 250.609 96.5759 249.455" stroke="#2C2B29" stroke-miterlimit="10" stroke-linecap="round" stroke-linejoin="round"/>
<path d="M93.467 243.747C96.477 244.089 99.429 244.874 102.248 245.982C104.119 246.718 105.941 247.598 107.88 248.13C109.819 248.663 111.928 248.828 113.813 248.129" stroke="#2C2B29" stroke-miterlimit="10" stroke-linecap="round" stroke-linejoin="round"/>
<path d="M96.2761 248.118C97.1431 252.539 99.1501 256.732 102.05 260.18" stroke="#2C2B29" stroke-miterlimit="10" stroke-linecap="round" stroke-linejoin="round"/>
<path d="M361.724 167.491C376.035 195.239 377.037 228.644 376.49 259.021C387.205 253.347 392.534 249.774 401.951 247.956C407.106 248.404 410.378 257.478 414.244 260.856C413.629 268.018 409.51 278.477 407.534 285.733C398.872 312.416 379.038 355.672 344.215 341.458C335.667 336.983 325.287 332.034 321.553 322.6C306.642 290.829 313.539 254.865 313.882 221.062C314.194 199.446 289.391 168.581 308.053 157.668C329.766 144.971 348.814 140.212 361.724 167.491Z" fill="#77C1C5"/>
<path d="M381.417 256.134C377.496 260.706 375.67 266.956 376.293 272.946C376.916 278.936 379.929 284.607 384.398 288.644C388.867 292.682 394.731 295.091 400.733 295.587C402.302 295.717 403.976 295.697 405.325 294.884C406.383 294.246 407.116 293.194 407.766 292.144C413.53 282.843 415.239 271.122 412.371 260.562C411.714 258.143 410.778 255.69 409.129 253.763C407.207 251.517 404.706 250.851 401.99 250.024C400.12 249.455 398.348 248.694 396.358 248.748C393.722 248.82 390.993 249.625 388.613 250.726C385.871 251.996 383.386 253.837 381.417 256.134Z" fill="#3A9399"/>
<path d="M376.49 259.021C357.908 267.39 344.605 278.866 333.683 295.845" stroke="#2C2B29" stroke-miterlimit="10" stroke-linecap="round" stroke-linejoin="round"/>
<path d="M314.407 201.714C315.553 245.26 293.024 349.157 362.462 343.844" stroke="#2C2B29" stroke-miterlimit="10" stroke-linecap="round" stroke-linejoin="round"/>
<path d="M295.271 177.638C306.954 172.095 311.5 169.938 323.183 164.395C328.558 161.845 334.006 159.271 339.849 158.155C345.693 157.04 352.073 157.528 357.066 160.762" stroke="#2C2B29" stroke-miterlimit="10" stroke-linecap="round" stroke-linejoin="round"/>
<path d="M388.049 291.866C376.691 310.4 361.87 326.804 344.58 339.977" stroke="#2C2B29" stroke-miterlimit="10" stroke-linecap="round" stroke-linejoin="round"/>
<path d="M390.534 272.965C391.214 273.376 391.921 273.727 392.643 274.007C395.816 275.239 399.079 276.112 402.309 277.174C407.825 278.987 413.063 281.644 417.785 285.022C418.888 285.811 420.326 286.67 421.494 285.98C422.742 285.244 422.57 283.415 422.235 282.005C422.977 282.78 423.744 283.573 424.717 284.026C425.69 284.478 426.932 284.52 427.766 283.844C428.635 283.14 428.829 281.846 428.528 280.769C428.227 279.692 427.526 278.779 426.841 277.895C427.244 278.879 428.646 279.188 429.545 278.62C430.444 278.052 430.806 276.852 430.592 275.811C430.378 274.77 429.682 273.882 428.864 273.203C429.536 273.976 430.933 273.709 431.492 272.852C432.051 271.995 431.892 270.819 431.361 269.943C430.831 269.067 429.994 268.428 429.166 267.825C426.71 266.034 424.164 264.367 421.542 262.831C419.324 261.532 417.152 260.102 414.758 259.14C417.819 258.586 420.45 260.092 423.454 260.563C424.17 260.675 425 260.725 425.517 260.218C425.92 259.822 425.999 259.18 425.84 258.638C425.681 258.096 425.322 257.637 424.94 257.221C423.392 255.532 421.39 254.339 419.413 253.181C416.119 251.251 412.757 249.325 409.057 248.387C406.583 247.759 404.019 247.59 401.472 247.423C399.131 247.27 396.724 247.124 394.49 247.842C391.539 248.791 390.692 250.896 389.372 253.376C388.684 254.668 388.25 256.095 387.448 257.319C386.654 258.529 385.521 259.507 384.854 260.791C383.623 263.158 384.245 266.148 385.722 268.369C386.937 270.2 388.631 271.816 390.534 272.965Z" fill="#F5B19A"/>
<path d="M414.721 258.89C412.065 259.285 409.609 256.819 406.95 257.194C405.82 257.353 404.833 258.009 403.835 258.564C401.294 259.976 398.331 260.813 395.464 260.335C394.6 260.191 393.687 259.88 393.205 259.15" stroke="#2C2B29" stroke-miterlimit="10" stroke-linecap="round" stroke-linejoin="round"/>
<path d="M407.001 273.117C409.41 269.028 412.707 265.465 416.597 262.747" stroke="#2C2B29" stroke-miterlimit="10" stroke-linecap="round" stroke-linejoin="round"/>
<path d="M415.572 264.035C420.646 266.594 425.335 269.914 429.433 273.851" stroke="#2C2B29" stroke-miterlimit="10" stroke-linecap="round" stroke-linejoin="round"/>
<path d="M412.162 266.815C413.733 267.901 415.305 268.987 416.876 270.073C420.733 272.738 424.659 275.469 427.491 279.206" stroke="#2C2B29" stroke-miterlimit="10" stroke-linecap="round" stroke-linejoin="round"/>
<path d="M422.091 282.148C421.098 280.944 420.004 279.824 418.823 278.803C415.649 276.06 411.904 274.075 408.185 272.133" stroke="#2C2B29" stroke-miterlimit="10" stroke-linecap="round" stroke-linejoin="round"/>
<path d="M462.574 455.152H33.6379V464.276H462.574V455.152Z" fill="#AC4F91"/>
<path d="M104.05 150.096C103.063 155.398 102.077 160.7 101.09 166.002C91.5718 161.266 79.1698 165.046 72.5138 173.335C66.9488 180.265 65.0658 190.193 68.4088 198.428C71.7528 206.663 80.5058 212.592 89.3688 211.937C98.2328 211.281 106.247 203.598 106.614 194.717" stroke="#AC4F91" stroke-width="7" stroke-miterlimit="10" stroke-linecap="round" stroke-linejoin="round"/>
<path d="M105.516 137.507C105.528 137.423 105.541 137.339 105.553 137.254" stroke="#AC4F91" stroke-width="7" stroke-miterlimit="10" stroke-linecap="round" stroke-linejoin="round"/>
<path d="M414.738 207.657C413.795 202.347 412.852 197.037 411.91 191.727C422.486 192.81 432.764 184.906 436.076 174.804C438.845 166.359 437.114 156.403 431.085 149.872C425.057 143.341 414.777 140.872 406.711 144.606C398.645 148.339 393.848 158.353 396.631 166.794" stroke="#AC4F91" stroke-width="7" stroke-miterlimit="10" stroke-linecap="round" stroke-linejoin="round"/>
<path d="M417.796 219.956C417.814 220.039 417.832 220.122 417.85 220.205" stroke="#AC4F91" stroke-width="7" stroke-miterlimit="10" stroke-linecap="round" stroke-linejoin="round"/>
</svg>
