<?xml version="1.0" encoding="utf-8"?>
<!-- Generator: Adobe Illustrator 27.5.0, SVG Export Plug-In . SVG Version: 6.00 Build 0)  -->
<svg version="1.1" xmlns="http://www.w3.org/2000/svg" xmlns:xlink="http://www.w3.org/1999/xlink" x="0px" y="0px"
	 viewBox="0 0 500 500" style="enable-background:new 0 0 500 500;" xml:space="preserve">
<g id="BACKGROUND">
	<rect style="fill:#FFFFFF;" width="500" height="500"/>
</g>
<g id="OBJECTS">
	<path style="fill:#F5EEEE;" d="M417.319,456.396c21.136-30.34,23.69-72.602,6.362-105.267
		c-17.408-32.814-51.766-54.28-68.333-87.528c-22.368-44.89-7.319-99.902-21.999-147.86c-12.264-40.066-47.557-73.162-89.034-79.11
		c-0.6-0.085-1.2-0.165-1.801-0.239c-29.981-3.671-61.527,7.971-82.229,29.902c-22.525,23.862-27.074,63.296-14.615,93.309
		c7.637,18.396,21.557,34.655,23.749,54.453c2.559,23.118-11.698,44.831-28.237,61.185c-16.539,16.355-36.157,29.949-49.352,49.103
		c-13.148,19.085-18.963,42.739-18.127,65.899c0.836,23.16,8.077,45.827,19.084,66.221"/>
	<g>
		<g>
			<path style="fill:#393939;" d="M149.24,462.283c0.884-28.595,1.768-52.321,2.652-80.916c68.314-4.848,137.61-7.257,206.079-5.743
				c4.798,30.444,7.977,56.411,9.607,87.187"/>
			<path style="fill:none;stroke:#2C2B29;stroke-linecap:round;stroke-linejoin:round;stroke-miterlimit:10;" d="M254.757,456.617
				c0.348-8.504,0.696-12.14,1.044-20.644c7.913-2.107,15.826-4.214,23.738-6.321"/>
			<path style="fill:none;stroke:#2C2B29;stroke-linecap:round;stroke-linejoin:round;stroke-miterlimit:10;" d="M152.205,423.834
				c7.303-1.278,14.142-5.063,19.103-10.572"/>
			<path style="fill:none;stroke:#2C2B29;stroke-linecap:round;stroke-linejoin:round;stroke-miterlimit:10;" d="M362.813,424.32
				c-9.372-3.078-17.708-9.226-23.418-17.27"/>
		</g>
		<g>
			<path style="fill:#3A9399;" d="M228.628,158.567c4.865-2.336,10.309-3.269,15.709-3.686c6.566-0.507,13.189-0.291,19.706,0.644
				c4.563,0.655,9.181,1.704,13.055,4.158c3.823,2.422,8.366,8.003,7.124,12.967c-0.587,2.343-3.665,4.693-5.492,6.076
				c-2.186,1.656-4.626,2.971-7.183,3.955c-5.277,2.029-10.987,2.697-16.639,2.797c-5.945,0.106-11.901-0.397-17.745-1.498
				c-3.523-0.664-7.056-1.565-10.17-3.344s-5.796-4.532-6.856-7.957C218.088,166.057,223.156,161.195,228.628,158.567z"/>
			<g>
				<g>
					<path style="fill:#FFFFFF;" d="M278.661,181.651c1.181-1.907,4.902-11.602-0.623-10.307c-1.182,0.277-2.152,1.085-3.182,1.727
						c-4.07,2.536-9.173,2.514-13.968,2.412c-11.327-0.241-22.883-0.523-33.555-4.325c-0.711-0.253-1.619-0.478-2.124,0.082
						c-0.314,0.349-0.325,0.868-0.304,1.337c0.218,4.871,1.743,7.692,4.678,11.261c2.407,2.927,4.306,6.03,5.319,9.717
						c1.931,7.025,0.576,13.756,0.29,20.849c-2.599,64.531-5.197,129.062-7.796,193.593c17.285,0.779,35.28,0.777,52.842-0.035
						c-2.458-63.736-6.792-127.446-7.571-191.214C273.657,204.908,271.775,191.972,278.661,181.651z"/>
					<path style="fill:none;stroke:#2C2B29;stroke-linecap:round;stroke-linejoin:round;stroke-miterlimit:10;" d="M301.804,386.059
						c0.809,0.215,1.617,0.429,2.426,0.644c-38.974,17.385-83.983,13.524-123.84,1.759c29.706,2.787,59.775,1.678,89.195-3.288"/>
					<path style="fill:none;stroke:#2C2B29;stroke-linecap:round;stroke-linejoin:round;stroke-miterlimit:10;" d="M216.522,271.999
						c22.993-17.285,53.083-24.814,81.507-20.393c-6.858,22.547-24.39,41.591-46.294,50.286"/>
				</g>
				<g>
					<path style="fill:#77C1C5;" d="M225.551,171.924c0.628-0.66,1.286-1.273,1.967-1.848c-8.103-4.417-17.412-10.539-29.418-18.14
						c-24.785-8.957-32.858,20.558-33.329,39.452c-11.229,67.683-17.177,136.011-18.08,204.591
						c19.818,6.544,52.993,17.95,84.629,19.376c2.599-64.531,1.274-136.417,3.873-200.948
						C240.054,180.508,222.87,186.388,225.551,171.924z"/>
					<g>
						<path style="fill:#FFFFFF;" d="M225.918,207.043c-0.348,1.683,0.367,3.538,1.755,4.552c0.806,0.589,1.909,0.892,2.814,0.472
							c0.639-0.296,1.081-0.902,1.396-1.531c0.625-1.249,0.846-2.742,0.381-4.059c-0.42-1.187-1.946-2.767-3.316-2.729
							C227.456,203.789,226.183,205.759,225.918,207.043z"/>
						<path style="fill:#FFFFFF;" d="M224.986,245.208c-0.348,1.683,0.367,3.538,1.755,4.552c0.806,0.589,1.909,0.892,2.814,0.472
							c0.639-0.296,1.081-0.902,1.396-1.531c0.625-1.249,0.846-2.742,0.381-4.059c-0.42-1.187-1.946-2.768-3.316-2.729
							C226.524,241.954,225.251,243.925,224.986,245.208z"/>
						<path style="fill:#FFFFFF;" d="M223.876,280.729c-0.348,1.683,0.367,3.538,1.755,4.552c0.806,0.589,1.909,0.892,2.814,0.472
							c0.639-0.296,1.081-0.901,1.396-1.531c0.624-1.249,0.846-2.742,0.381-4.059c-0.42-1.187-1.946-2.767-3.316-2.729
							C225.414,277.475,224.142,279.446,223.876,280.729z"/>
						<path style="fill:#FFFFFF;" d="M222.411,317.077c-0.348,1.683,0.367,3.538,1.755,4.552c0.806,0.589,1.909,0.892,2.814,0.472
							c0.639-0.296,1.081-0.902,1.396-1.531c0.625-1.249,0.846-2.742,0.381-4.059c-0.42-1.187-1.946-2.768-3.316-2.729
							C223.948,313.823,222.676,315.793,222.411,317.077z"/>
						<path style="fill:#FFFFFF;" d="M221.645,351.552c-0.348,1.683,0.367,3.538,1.755,4.552c0.806,0.589,1.909,0.892,2.814,0.472
							c0.639-0.296,1.081-0.901,1.396-1.531c0.625-1.249,0.846-2.742,0.381-4.059c-0.42-1.187-1.946-2.767-3.316-2.729
							C223.183,348.298,221.91,350.268,221.645,351.552z"/>
						<path style="fill:#FFFFFF;" d="M220.263,386.632c-0.348,1.683,0.367,3.538,1.755,4.552c0.806,0.589,1.909,0.892,2.814,0.472
							c0.639-0.296,1.081-0.901,1.396-1.531c0.625-1.249,0.846-2.742,0.381-4.059c-0.42-1.187-1.946-2.767-3.316-2.729
							C221.801,383.378,220.528,385.348,220.263,386.632z"/>
					</g>
					<path style="fill:none;stroke:#2C2B29;stroke-linecap:round;stroke-linejoin:round;stroke-miterlimit:10;" d="M154.584,396.973
						c3.101-30.009,6.202-60.019,9.303-90.028"/>
					<path style="fill:none;stroke:#2C2B29;stroke-linecap:round;stroke-linejoin:round;stroke-miterlimit:10;" d="M223.516,195.479
						c-3.999,68.275-7.978,143.912-8.898,218.283"/>
				</g>
				<g>
					<path style="fill:#77C1C5;" d="M278.661,181.651c-6.886,10.321-5.003,23.257-5.993,35.099
						c0.779,63.768,4.122,134.868,6.581,198.604c33.833-1.563,67.039-13.508,89.419-21.215
						c-6.834-62.247-15.452-123.653-25.517-186.579c-2.021-21.181-10.083-64.941-40.342-47.362
						c-8.654,4.734-16.032,8.474-22.542,11.295C281.425,174.25,281.107,177.7,278.661,181.651z"/>
					<g>
						<path style="fill:#3A9399;" d="M277.938,213.38c0.066,0.543,0.267,1.202,0.806,1.295c0.519,0.09,0.932-0.428,1.151-0.907
							c0.937-2.049,0.709-4.416,0.463-6.655c-0.083-0.758-0.25-1.641-0.934-1.977c-1.725-0.849-1.58,1.499-1.547,2.415
							C277.947,209.504,277.699,211.421,277.938,213.38z"/>
						<path style="fill:#3A9399;" d="M277.938,250.059c0.066,0.543,0.267,1.202,0.806,1.295c0.519,0.09,0.932-0.428,1.151-0.907
							c0.937-2.049,0.709-4.416,0.463-6.655c-0.083-0.758-0.25-1.641-0.934-1.977c-1.725-0.849-1.58,1.499-1.547,2.415
							C277.947,246.183,277.699,248.1,277.938,250.059z"/>
						<path style="fill:#3A9399;" d="M279.374,279.824c0.137,0.53,0.423,1.156,0.969,1.178c0.527,0.021,0.867-0.546,1.022-1.05
							c0.66-2.154,0.123-4.471-0.415-6.658c-0.182-0.74-0.463-1.594-1.186-1.837c-1.821-0.615-1.369,1.693-1.216,2.597
							C278.874,275.981,278.88,277.914,279.374,279.824z"/>
						<path style="fill:#3A9399;" d="M280.16,317.403c0.112,0.535,0.369,1.175,0.914,1.222c0.525,0.045,0.892-0.506,1.069-1.002
							c0.759-2.121,0.33-4.46-0.107-6.67c-0.148-0.748-0.389-1.613-1.099-1.89c-1.791-0.698-1.446,1.628-1.335,2.538
							C279.839,313.541,279.755,315.472,280.16,317.403z"/>
						<path style="fill:#3A9399;" d="M283.181,346.77c-0.141-0.529-0.431-1.154-0.977-1.172c-0.527-0.018-0.864,0.552-1.014,1.057
							c-0.645,2.158-0.093,4.472,0.461,6.655c0.187,0.739,0.474,1.59,1.198,1.829c1.826,0.602,1.358-1.703,1.198-2.606
							C283.707,350.61,283.688,348.677,283.181,346.77z"/>
						<path style="fill:#3A9399;" d="M286.053,382.387c-0.141-0.529-0.431-1.153-0.977-1.172c-0.527-0.018-0.864,0.552-1.014,1.057
							c-0.645,2.158-0.093,4.472,0.461,6.655c0.187,0.739,0.474,1.59,1.198,1.829c1.826,0.602,1.358-1.703,1.198-2.605
							C286.58,386.227,286.561,384.294,286.053,382.387z"/>
					</g>
					<path style="fill:none;stroke:#2C2B29;stroke-linecap:round;stroke-linejoin:round;stroke-miterlimit:10;" d="M360.175,396.155
						c-4.901-25.853-7.365-52.168-7.346-78.482"/>
					<path style="fill:none;stroke:#2C2B29;stroke-linecap:round;stroke-linejoin:round;stroke-miterlimit:10;" d="M286.002,193.911
						c-2.906,72.762,0.743,144.826,7.892,220.15"/>
				</g>
			</g>
			<g>
				<path style="fill:#3A9399;" d="M228.644,176.016c1.991,6.793,6.835,12.899,7.03,20.107c-6.288-6.508-13.178,1.961-17.881,5.778
					c-3.617-5.763-2.993-14.459-2.967-21.293c-0.034-8.273,5.165-17.298,12.655-20.892c1.124-0.222,0.965-0.092,0.784,1.098
					C227.347,165.769,227.513,171.098,228.644,176.016z"/>
				<path style="fill:#3A9399;" d="M273.616,194.052c-0.181,2.182-0.26,4.372-0.237,6.561c2.611-2.003,6.03-2.921,9.293-2.495
					c3.263,0.426,6.332,2.192,8.34,4.799c0.197,0.255,0.444,0.548,0.765,0.518c0.28-0.026,0.47-0.288,0.614-0.529
					c5.539-9.232,4.868-20.3-0.192-29.687c-3.244-6.017-8.384-11.304-14.939-13.592c0.594,0.208-0.298,6.535-0.313,7.39
					c-0.023,1.309,0.426,2.648,0.465,3.974c0.043,1.497-0.086,2.997-0.314,4.475c-0.46,2.972-1.313,5.867-1.977,8.801
					C274.392,187.488,273.889,190.76,273.616,194.052z"/>
			</g>
		</g>
		<g>
			<path style="fill:#F5B19A;" d="M243.448,160.546c-0.253,3.108-1.091,6.252-2.982,8.731c-0.835,1.095-1.885,2.029-3.087,2.705
				c-1.422,0.8-2.826,0.947-4.423,1.174c1.059,3.841,2.638,7.582,5.048,10.756c2.41,3.173,5.695,5.759,9.505,6.926
				c5.349,1.639,11.354,0.308,15.975-2.845c2.421-1.652,4.497-3.775,6.204-6.151c0.871-1.212,1.649-2.491,2.338-3.816
				c0.635-1.221,1.026-3.308,1.836-4.401c-3.182,0.359-6.499-0.138-8.831-2.333c-2.331-2.195-3.633-5.44-3.466-8.638
				L243.448,160.546z"/>
			<path style="fill:#D48164;" d="M247.285,176.596c3.209,1.319,6.984,1.073,10.081-0.492s5.5-4.385,6.729-7.629
				c0.185-0.489,0.348-1.003,0.308-1.524c-0.073-0.958-0.804-1.734-1.577-2.304c-2.579-1.902-5.967-2.41-9.159-2.128
				c-3.554,0.315-7.015,1.56-9.974,3.548c-1.043,0.701-2.846,1.681-2.784,3.135c0.062,1.452,1.161,3.088,2.047,4.171
				C244.106,174.779,245.604,175.905,247.285,176.596z"/>
		</g>
		<g>
			<g>
				<path style="fill:#F5B19A;" d="M224.102,121.996c-17.481,48.852,48.206,72.319,59.655,21.445
					C294.494,99.337,239.176,79.872,224.102,121.996z"/>
			</g>
			<g>
				<path style="fill:#393939;" d="M228.922,123.529c-0.964,3.278-2.24,6.463-3.812,9.497c-0.167,0.322-0.371,0.671-0.719,0.773
					c-0.439,0.129-0.872-0.194-1.209-0.503c-2.766-2.533-5.184-5.812-6.108-9.511c-0.839-3.356-0.369-6.906,1.034-10.043
					c0.565-1.264,0.836-2.688,1.689-3.817c0.797-1.056,1.93-1.866,3.187-2.277c2.262-0.741,4.804-0.294,6.892,0.85
					c0.379,0.208,0.761,0.453,0.974,0.829c0.234,0.413,0.226,0.915,0.206,1.389C230.87,115.053,230.147,119.365,228.922,123.529z"/>
				<g>
					<path style="fill:#393939;" d="M274.112,118.092c1.44,3.442,3.793,6.574,7.208,7.949c0.778,0.313,1.692,0.615,2.007,1.392
						c0.241,0.594,0.037,1.265-0.159,1.876c-1.632,5.077-2.673,10.345-3.095,15.662c2.063-1.414,4-2.6,5.687-4.487
						c1.55-1.734,2.846-3.68,3.974-5.71c1.153-2.075,2.129-4.243,3.027-6.438c0.436-1.066,0.852-2.139,1.26-3.215
						c0.326-0.86,1.185-2.256,1.185-3.166c1.621-4.34,1.957-9.997,0.203-14.34c-1.468-3.633-4.458-6.253-7.936-7.92
						c-3.423-1.641-6.835-2.226-10.577-2.623c-0.579-0.062-1.179-0.121-1.73,0.065c-1.167,0.392-1.715,1.706-2.045,2.892
						c-1.468,5.286-1.357,10.999,0.316,16.224C273.633,116.87,273.859,117.486,274.112,118.092z"/>
					<path style="fill:none;stroke:#2C2B29;stroke-linecap:round;stroke-linejoin:round;stroke-miterlimit:10;" d="M285.85,100.214
						c-1.916,4.088-2.238,8.899-0.884,13.206c1.354,4.307,4.37,8.069,8.28,10.326"/>
				</g>
				<g>
					<path style="fill:#393939;" d="M221.702,116.584c13.346,8.856,24.958-9.719,39.162-5.474c3.188,0.572,6.223,1.822,9.411,2.393
						c16.865,3.133,14.561-18.24,3.064-23.64c-6.764-3.647-14.671-2.315-22.079-3.329c-5.387-1.17-9.787-4.897-14.17-8.239
						C206.755,54.589,197.47,101.142,221.702,116.584z"/>
					<path style="fill:none;stroke:#2C2B29;stroke-linecap:round;stroke-linejoin:round;stroke-miterlimit:10;" d="M218.948,114.462
						c2.718,3.016,5.998,4.321,10.045,3.997"/>
					<path style="fill:none;stroke:#2C2B29;stroke-linecap:round;stroke-linejoin:round;stroke-miterlimit:10;" d="M280.621,97.838
						c-0.937,6.218-3.293,10.62-7.297,15.469"/>
					<path style="fill:none;stroke:#2C2B29;stroke-linecap:round;stroke-linejoin:round;stroke-miterlimit:10;" d="M276.111,108.726
						c-2.8-3.832-7.737-5.637-12.482-5.751c-4.745-0.115-9.391,1.234-13.928,2.627c-4.537,1.393-9.13,2.857-13.874,2.983
						c-8.022,0.213-16.145-3.794-20.461-10.559c-4.317-6.765-4.438-16.104,0.089-22.73"/>
					<path style="fill:none;stroke:#2C2B29;stroke-linecap:round;stroke-linejoin:round;stroke-miterlimit:10;" d="M225.048,72.97
						c-0.493,5.444,2.042,10.927,6.089,14.601c4.048,3.674,9.458,5.638,14.902,6.127c4.062,0.365,8.148-0.043,12.224-0.173
						c4.076-0.13,8.25,0.036,12.063,1.485c3.813,1.449,7.248,4.368,8.438,8.269"/>
				</g>
			</g>
			<g>
				<path style="fill:#2C2B29;" d="M245.629,128.448c-0.48,2.08-1.226,4.781-3.967,4.467c-2.961-0.339-2.288-3.622-2.031-5.61
					c1.92-0.028,3.84-0.055,5.76-0.083c0.1-0.001,0.207-0.001,0.29,0.055c0.162,0.11,0.136,0.353,0.092,0.544
					C245.726,128.021,245.679,128.231,245.629,128.448z"/>
				<path style="fill:#2C2B29;" d="M265.029,133.052c-0.627,1.877-1.344,4.374,0.976,5.452c2.505,1.164,3.562-1.757,4.32-3.454
					c-1.505-0.951-3.01-1.902-4.514-2.852c-0.078-0.049-0.163-0.101-0.256-0.096c-0.182,0.009-0.279,0.213-0.336,0.386
					C265.159,132.667,265.094,132.856,265.029,133.052z"/>
				<g>
					<path style="fill:#D48164;" d="M225.485,147.028c0.206,1.999,1.132,3.916,2.57,5.319c0.675,0.659,1.573,1.235,2.503,1.075
						c1.115-0.192,1.789-1.35,2.08-2.443c0.663-2.489,0.088-5.277-1.506-7.301c-0.82-1.041-2.868-2.611-4.291-1.793
						C225.413,142.706,225.342,145.63,225.485,147.028z"/>
					<path style="fill:#D48164;" d="M268.661,153.388c-1.526,1.308-2.573,3.161-2.907,5.142c-0.157,0.931-0.119,1.997,0.543,2.67
						c0.793,0.807,2.129,0.701,3.193,0.318c2.423-0.873,4.387-2.934,5.142-5.397c0.388-1.266,0.512-3.845-0.971-4.548
						C272.172,150.867,269.728,152.474,268.661,153.388z"/>
				</g>
				<path style="fill:none;stroke:#2C2B29;stroke-linecap:round;stroke-linejoin:round;stroke-miterlimit:10;" d="M247.634,140.297
					c-0.064-1.835,0.491-3.711,1.664-5.123c1.173-1.413,2.98-2.318,4.815-2.263c1.835,0.054,3.641,1.124,4.446,2.773
					c0.891,1.824,0.514,3.983,0.119,5.973"/>
				<path style="fill:none;stroke:#2C2B29;stroke-linecap:round;stroke-linejoin:round;stroke-miterlimit:10;" d="M241.932,149.49
					c6.06-0.644,12.334,0.964,17.336,4.445"/>
			</g>
			<g>
				<path style="fill:#F5B19A;" d="M284.943,154.105c-4.318-0.106-6.951-4.456-6.581-8.432c0.226-2.427,1.395-4.706,3.015-6.527
					c1.292-1.453,2.932-2.671,4.827-3.104c3.465-0.792,6.384,1.547,7.423,4.738c1.378,4.231-0.326,9.272-3.989,11.799
					C288.261,153.529,286.616,154.146,284.943,154.105z"/>
				<path style="fill:#D48164;" d="M290.225,144.66c-0.171,2.283-1.752,4.402-3.892,5.215c-0.47,0.178-0.978,0.299-1.474,0.217
					c-0.496-0.082-0.976-0.4-1.136-0.876c-0.197-0.582,0.128-1.231,0.595-1.63c0.467-0.399,1.057-0.617,1.606-0.892
					c0.549-0.275,1.096-0.647,1.337-1.212c0.711-1.666-1.718-3.346-0.7-4.841c1.112-1.632,2.566-0.125,3.111,1.057
					C290.095,142.62,290.301,143.646,290.225,144.66z"/>
			</g>
			<g>
				<path style="fill:#F5B19A;" d="M217.976,141.575c4.113,1.317,8.029-1.927,8.984-5.804c0.583-2.367,0.228-4.903-0.705-7.155
					c-0.743-1.796-1.893-3.485-3.54-4.516c-3.013-1.886-6.538-0.635-8.567,2.038c-2.691,3.544-2.736,8.865-0.106,12.455
					C215.031,139.941,216.383,141.065,217.976,141.575z"/>
				<path style="fill:#D48164;" d="M216.088,130.92c-0.588,2.213,0.21,4.733,1.965,6.204c0.385,0.323,0.826,0.604,1.321,0.689
					c0.495,0.086,1.053-0.058,1.361-0.455c0.377-0.485,0.284-1.205-0.026-1.735c-0.31-0.53-0.796-0.93-1.224-1.37
					c-0.428-0.44-0.822-0.971-0.865-1.583c-0.125-1.807,2.721-2.596,2.25-4.343c-0.515-1.907-2.383-0.961-3.286-0.023
					C216.88,129.035,216.35,129.937,216.088,130.92z"/>
			</g>
		</g>
		<g>
			<g>
				<path style="fill:#77C1C5;" d="M135.55,191.737c-3.588,20.033-5.616,41.247-1.181,61.18
					c-8.695-7.022-19.351-12.115-29.911-15.028c3.716,6.917-1.993,14.133-4.013,20.692c-12.855,97.126,105.811,112.135,96.321-7.654
					c-2.657-33.536,30.629-82.178,1.334-98.992C159.851,129.983,143.444,153.621,135.55,191.737z"/>
				<path style="fill:none;stroke:#2C2B29;stroke-linecap:round;stroke-linejoin:round;stroke-miterlimit:10;" d="M148.266,159.314
					c6.27-6.079,16.059-7.363,24.529-5.236c8.471,2.127,15.887,7.175,22.824,12.481c6.937,5.306,10.674,9.445,18.535,13.251"/>
				<path style="fill:none;stroke:#2C2B29;stroke-linecap:round;stroke-linejoin:round;stroke-miterlimit:10;" d="M134.772,252.811
					c16.82,6.82,31.367,19.119,40.89,34.57"/>
				<path style="fill:none;stroke:#2C2B29;stroke-linecap:round;stroke-linejoin:round;stroke-miterlimit:10;" d="M149.326,335.618
					c59.814,2.518,47.8-104.91,44.413-146.515"/>
				<path style="fill:none;stroke:#2C2B29;stroke-linecap:round;stroke-linejoin:round;stroke-miterlimit:10;" d="M114.828,271.212
					c9.901,25.266,30.229,46.26,55.163,56.97"/>
				<path style="fill:#3A9399;" d="M120.539,241.786c9.882,4.933,11.785,11.635,7.1,21.416
					c-4.584,11.451-16.612,19.477-28.978,16.034C95.987,263.619,94.986,226.651,120.539,241.786z"/>
			</g>
			<g>
				<path style="fill:#F5B19A;" d="M114.835,262.866c-0.742,0.284-1.5,0.505-2.259,0.654c-3.34,0.653-6.706,0.936-10.073,1.411
					c-5.749,0.812-11.374,2.502-16.618,4.994c-1.225,0.582-2.792,1.173-3.82,0.289c-1.098-0.945-0.606-2.714-0.028-4.043
					c-0.868,0.632-1.762,1.277-2.8,1.551c-1.038,0.274-2.268,0.095-2.969-0.717c-0.731-0.846-0.693-2.154-0.207-3.161
					c0.486-1.007,1.337-1.782,2.168-2.531c-0.571,0.897-2.005,0.954-2.789,0.237c-0.785-0.717-0.929-1.962-0.535-2.95
					c0.394-0.987,1.236-1.738,2.161-2.262c-0.797,0.642-2.126,0.133-2.525-0.81c-0.564-1.332,0.294-2.759,1.43-3.402
					c1.423-0.804,2.872-1.561,4.345-2.269c2.946-1.416,5.985-2.638,9.092-3.654c1.895-0.62,3.815-1.164,5.754-1.629
					c-0.096,0.023-0.564-0.294-0.686-0.339c-0.293-0.108-0.601-0.177-0.911-0.209c-0.632-0.065-1.247,0.035-1.838,0.259
					c-1.19,0.451-2.61,0.64-3.886,0.692c-1.451,0.059-2.941-0.176-4.207-0.887c-0.517-0.291-1.037-0.742-1.051-1.335
					c-0.013-0.546,0.425-1.013,0.92-1.246c0.494-0.233,1.049-0.293,1.578-0.429c2.755-0.708,4.543-3.344,7.021-4.741
					c2.345-1.322,5.164-1.457,7.854-1.356c4.785,0.179,9.846,0.797,14.231,2.788c1.314,0.597,2.574,1.4,3.549,2.476
					c0.973,1.073,1.271,2.217,1.699,3.542c0.449,1.393,0.624,2.874,1.199,4.221c0.568,1.331,1.51,2.493,1.941,3.875
					c0.794,2.547-0.345,5.38-2.192,7.306C118.864,260.779,116.911,262.07,114.835,262.866z"/>
				<path style="fill:none;stroke:#2C2B29;stroke-linecap:round;stroke-linejoin:round;stroke-miterlimit:10;" d="M82.013,266.175
					c5.64-3.718,12.207-6.009,18.65-7.798"/>
				<path style="fill:none;stroke:#2C2B29;stroke-linecap:round;stroke-linejoin:round;stroke-miterlimit:10;" d="M77.454,262.015
					c7.054-4.288,12.402-7.033,20.546-8.383"/>
				<path style="fill:none;stroke:#2C2B29;stroke-linecap:round;stroke-linejoin:round;stroke-miterlimit:10;" d="M76.462,256.367
					c6.887-3.904,12.282-5.758,20.114-6.912"/>
				<path style="fill:none;stroke:#2C2B29;stroke-linecap:round;stroke-linejoin:round;stroke-miterlimit:10;" d="M93.467,243.747
					c3.01,0.342,5.962,1.127,8.781,2.235c1.871,0.736,3.693,1.616,5.632,2.148c1.939,0.533,4.048,0.698,5.933-0.001"/>
				<path style="fill:none;stroke:#2C2B29;stroke-linecap:round;stroke-linejoin:round;stroke-miterlimit:10;" d="M96.276,248.118
					c0.867,4.421,2.874,8.614,5.774,12.062"/>
			</g>
		</g>
		<g>
			<g>
				<path style="fill:#77C1C5;" d="M361.724,167.491c14.311,27.748,15.313,61.153,14.766,91.53
					c10.715-5.674,16.044-9.247,25.461-11.065c5.155,0.448,8.427,9.522,12.293,12.9c-0.615,7.162-4.734,17.621-6.71,24.877
					c-8.662,26.683-28.496,69.939-63.319,55.725c-8.548-4.475-18.928-9.424-22.662-18.858
					c-14.911-31.771-8.014-67.735-7.671-101.538c0.312-21.616-24.491-52.481-5.829-63.394
					C329.766,144.971,348.814,140.212,361.724,167.491z"/>
				<path style="fill:#3A9399;" d="M381.417,256.134c-3.921,4.572-5.747,10.822-5.124,16.812c0.623,5.99,3.636,11.661,8.105,15.698
					c4.469,4.038,10.333,6.447,16.335,6.943c1.569,0.13,3.243,0.11,4.592-0.703c1.058-0.638,1.791-1.69,2.441-2.74
					c5.764-9.301,7.473-21.022,4.605-31.582c-0.657-2.419-1.593-4.872-3.242-6.799c-1.922-2.246-4.423-2.912-7.139-3.739
					c-1.87-0.569-3.642-1.33-5.632-1.276c-2.636,0.072-5.365,0.877-7.745,1.978C385.871,251.996,383.386,253.837,381.417,256.134z"
					/>
				<path style="fill:none;stroke:#2C2B29;stroke-linecap:round;stroke-linejoin:round;stroke-miterlimit:10;" d="M376.49,259.021
					c-18.582,8.369-31.885,19.845-42.807,36.824"/>
				<path style="fill:none;stroke:#2C2B29;stroke-linecap:round;stroke-linejoin:round;stroke-miterlimit:10;" d="M314.407,201.714
					c1.146,43.546-21.383,147.443,48.055,142.13"/>
				<path style="fill:none;stroke:#2C2B29;stroke-linecap:round;stroke-linejoin:round;stroke-miterlimit:10;" d="M295.271,177.638
					c11.683-5.543,16.229-7.7,27.912-13.243c5.375-2.55,10.823-5.124,16.666-6.24c5.844-1.115,12.224-0.627,17.217,2.607"/>
				<path style="fill:none;stroke:#2C2B29;stroke-linecap:round;stroke-linejoin:round;stroke-miterlimit:10;" d="M388.049,291.866
					c-11.358,18.534-26.179,34.938-43.469,48.111"/>
			</g>
			<g>
				<path style="fill:#F5B19A;" d="M390.534,272.965c0.68,0.411,1.387,0.762,2.109,1.042c3.173,1.232,6.436,2.105,9.666,3.167
					c5.516,1.813,10.754,4.47,15.476,7.848c1.103,0.789,2.541,1.648,3.709,0.958c1.248-0.736,1.076-2.565,0.741-3.975
					c0.742,0.775,1.509,1.568,2.482,2.021c0.973,0.452,2.215,0.494,3.049-0.182c0.869-0.704,1.063-1.998,0.762-3.075
					c-0.301-1.077-1.002-1.99-1.687-2.874c0.403,0.984,1.805,1.293,2.704,0.725c0.899-0.568,1.261-1.768,1.047-2.809
					c-0.214-1.041-0.91-1.929-1.728-2.608c0.672,0.773,2.069,0.506,2.628-0.351c0.559-0.857,0.4-2.033-0.131-2.909
					c-0.53-0.876-1.367-1.515-2.195-2.118c-2.456-1.791-5.002-3.458-7.624-4.994c-2.218-1.299-4.39-2.729-6.784-3.691
					c3.061-0.554,5.692,0.952,8.696,1.423c0.716,0.112,1.546,0.162,2.063-0.345c0.403-0.396,0.482-1.038,0.323-1.58
					c-0.159-0.542-0.518-1.001-0.9-1.417c-1.548-1.689-3.55-2.882-5.527-4.04c-3.294-1.93-6.656-3.856-10.356-4.794
					c-2.474-0.628-5.038-0.797-7.585-0.964c-2.341-0.153-4.748-0.299-6.982,0.419c-2.951,0.949-3.798,3.054-5.118,5.534
					c-0.688,1.292-1.122,2.719-1.924,3.943c-0.794,1.21-1.927,2.188-2.594,3.472c-1.231,2.367-0.609,5.357,0.868,7.578
					C386.937,270.2,388.631,271.816,390.534,272.965z"/>
				<path style="fill:none;stroke:#2C2B29;stroke-linecap:round;stroke-linejoin:round;stroke-miterlimit:10;" d="M414.721,258.89
					c-2.656,0.395-5.112-2.071-7.771-1.696c-1.13,0.159-2.117,0.815-3.115,1.37c-2.541,1.412-5.504,2.249-8.371,1.771
					c-0.864-0.144-1.777-0.455-2.259-1.185"/>
				<path style="fill:none;stroke:#2C2B29;stroke-linecap:round;stroke-linejoin:round;stroke-miterlimit:10;" d="M407.001,273.117
					c2.409-4.089,5.706-7.652,9.596-10.37"/>
				<path style="fill:none;stroke:#2C2B29;stroke-linecap:round;stroke-linejoin:round;stroke-miterlimit:10;" d="M415.572,264.035
					c5.074,2.559,9.763,5.879,13.861,9.816"/>
				<path style="fill:none;stroke:#2C2B29;stroke-linecap:round;stroke-linejoin:round;stroke-miterlimit:10;" d="M412.162,266.815
					c1.571,1.086,3.143,2.172,4.714,3.258c3.857,2.665,7.783,5.396,10.615,9.133"/>
				<path style="fill:none;stroke:#2C2B29;stroke-linecap:round;stroke-linejoin:round;stroke-miterlimit:10;" d="M422.091,282.148
					c-0.993-1.204-2.087-2.324-3.268-3.345c-3.174-2.743-6.919-4.728-10.638-6.67"/>
			</g>
		</g>
	</g>
	<rect x="33.638" y="455.152" style="fill:#AC4F91;" width="428.936" height="9.124"/>
	<g>
		<g>
			<path style="fill:none;stroke:#AC4F91;stroke-width:7;stroke-linecap:round;stroke-linejoin:round;stroke-miterlimit:10;" d="
				M104.05,150.096c-0.987,5.302-1.973,10.604-2.96,15.906c-9.518-4.736-21.92-0.956-28.576,7.333
				c-5.565,6.93-7.448,16.858-4.105,25.093c3.344,8.235,12.097,14.164,20.96,13.509c8.864-0.656,16.878-8.339,17.245-17.22"/>
			<path style="fill:none;stroke:#AC4F91;stroke-width:7;stroke-linecap:round;stroke-linejoin:round;stroke-miterlimit:10;" d="
				M105.516,137.507c0.012-0.084,0.025-0.168,0.037-0.253"/>
		</g>
		<g>
			<path style="fill:none;stroke:#AC4F91;stroke-width:7;stroke-linecap:round;stroke-linejoin:round;stroke-miterlimit:10;" d="
				M414.738,207.657c-0.943-5.31-1.886-10.62-2.828-15.93c10.576,1.083,20.854-6.821,24.166-16.923
				c2.769-8.445,1.038-18.401-4.991-24.932c-6.028-6.531-16.308-9-24.374-5.266c-8.066,3.733-12.863,13.747-10.08,22.188"/>
			<path style="fill:none;stroke:#AC4F91;stroke-width:7;stroke-linecap:round;stroke-linejoin:round;stroke-miterlimit:10;" d="
				M417.796,219.956c0.018,0.083,0.036,0.166,0.054,0.249"/>
		</g>
	</g>
</g>
</svg>
