<svg width="500" height="500" viewBox="0 0 500 500" fill="none" xmlns="http://www.w3.org/2000/svg">
<g clip-path="url(#clip0_467_151)">
<path d="M332.193 385.56C349.155 387.741 366.338 382.639 379.025 371.172C389.655 361.564 396.199 348.595 379.856 335.149C340.743 302.969 343.842 276.969 361.884 258.568C379.927 240.167 425.789 202.949 397.557 169.937C369.324 136.925 293.646 172.997 282.243 134.759C270.84 96.521 250.344 64.873 214.114 58.94C184.256 54.051 143.166 66.233 135.019 103.525C126.951 140.457 173.059 138.396 129.392 197.983C103.712 233.026 146.367 308.098 184.948 292.686C223.529 277.275 270.712 300.945 272.367 344.455C273.46 373.148 308.473 382.511 332.193 385.56Z" fill="#C3C3C3" fill-opacity="0.06"/>
<path d="M102.005 140.889C99.681 136.981 99.001 132.273 100.29 127.912C101.597 123.49 104.916 119.031 112.961 118.888C129.051 118.6 127.507 152.329 118.004 153.216C110.2 153.945 105.806 147.28 102.005 140.889Z" fill="#C3C3C3" fill-opacity="0.06"/>
<path d="M336.28 140.885C332.313 138.663 329.37 134.926 328.306 130.505C327.227 126.022 327.871 120.501 334.766 116.354C348.556 108.059 363.366 136.103 358.536 144.335C355.035 150.301 342.767 144.519 336.28 140.885Z" fill="#E5E5E5" fill-opacity="0.06"/>
<path d="M411.95 244.82C411.515 247.619 409.975 250.149 407.626 251.731C405.244 253.336 401.881 254.16 397.961 251.037C390.121 244.792 401.824 230.971 407.679 232C411.923 232.748 412.661 240.244 411.95 244.82Z" fill="#E5E5E5"/>
<path d="M120.686 178.279C121.456 175.553 121.109 172.611 119.632 170.194C118.134 167.743 115.42 165.594 110.556 166.801C100.828 169.215 106.644 188.093 112.396 189.595C116.565 190.684 119.427 182.736 120.686 178.279Z" fill="#C3C3C3" fill-opacity="0.06"/>
<path d="M78.864 338.686C96.2366 338.686 110.32 334.135 110.32 328.52C110.32 322.905 96.2366 318.354 78.864 318.354C61.4913 318.354 47.408 322.905 47.408 328.52C47.408 334.135 61.4913 338.686 78.864 338.686Z" fill="#E5E5E5" fill-opacity="0.06"/>
<path d="M101.499 282.269V322.21C101.499 328.873 91.3588 334.271 78.8638 334.271C66.3688 334.271 56.2378 328.873 56.2378 322.21V282.269H101.499Z" fill="#365460"/>
<path d="M78.8649 294.334C91.3636 294.334 101.496 288.931 101.496 282.265C101.496 275.6 91.3636 270.196 78.8649 270.196C66.3661 270.196 56.2339 275.6 56.2339 282.265C56.2339 288.931 66.3661 294.334 78.8649 294.334Z" fill="#263940"/>
<path d="M98.6619 282.269C98.6619 282.682 98.5199 283.133 98.2269 283.622C96.4769 286.59 89.4299 290.573 78.8649 290.573C68.2999 290.573 61.2529 286.59 59.5029 283.622C59.2099 283.134 59.0679 282.683 59.0679 282.269C59.0679 279.338 66.5879 273.953 78.8649 273.953C91.1419 273.952 98.6619 279.338 98.6619 282.269Z" fill="#2C4751"/>
<path d="M78.427 283.355C78.401 283.355 78.375 283.354 78.348 283.352C77.746 283.309 77.294 282.786 77.336 282.184C77.365 281.784 80.084 241.89 70.182 218.142C69.95 217.585 70.213 216.946 70.77 216.713C71.327 216.481 71.966 216.744 72.199 217.301C82.301 241.53 79.544 281.934 79.515 282.339C79.475 282.915 78.995 283.355 78.427 283.355Z" fill="#365460"/>
<path d="M78.4249 259.857C77.9139 259.857 77.4569 259.496 77.3549 258.976C74.4979 244.529 60.5809 240.391 60.4399 240.351C59.8599 240.185 59.5239 239.58 59.6899 239C59.8559 238.42 60.4609 238.085 61.0409 238.25C61.6659 238.429 76.3839 242.809 79.4979 258.552C79.6149 259.144 79.2299 259.718 78.6379 259.836C78.5669 259.851 78.4949 259.857 78.4249 259.857Z" fill="#365460"/>
<path d="M77.0971 242.58C76.5161 242.58 76.0321 242.122 76.0071 241.536C75.3541 226.759 82.6121 215.838 82.9211 215.38C83.2581 214.88 83.9381 214.749 84.4381 215.087C84.9381 215.425 85.0691 216.104 84.7321 216.604C84.6401 216.741 77.5711 227.431 78.1901 241.441C78.2171 242.044 77.7501 242.554 77.1471 242.58C77.1301 242.579 77.1141 242.58 77.0971 242.58Z" fill="#365460"/>
<path d="M78.033 251.085C77.967 251.085 77.9 251.079 77.832 251.066C77.239 250.956 76.847 250.385 76.958 249.792C77.953 244.438 81.599 240.44 87.501 238.229C91.849 236.601 95.86 236.516 96.028 236.513C96.034 236.513 96.04 236.513 96.046 236.513C96.641 236.513 97.128 236.99 97.138 237.587C97.148 238.19 96.668 238.687 96.065 238.697C95.916 238.7 81.166 239.099 79.105 250.19C79.008 250.718 78.549 251.085 78.033 251.085Z" fill="#365460"/>
<path d="M53.466 257.174C40.376 259.287 37 253.516 37 253.516C37 253.516 43.333 234.375 52.34 232.546C59.44 231.101 60.595 236.129 60.767 238.323C60.811 238.916 60.786 239.3 60.786 239.3C60.786 239.3 61.626 239.156 62.73 239.253C64.3 239.393 66.407 240.024 67.399 242.255C68.99 245.833 66.868 255.015 53.466 257.174Z" fill="#517282"/>
<path d="M62.7289 239.254C55.4349 241.476 46.2619 252.041 46.1629 252.156C46.0069 252.334 45.7879 252.428 45.5699 252.428C45.3889 252.428 45.2079 252.365 45.0609 252.238C44.7359 251.957 44.6989 251.464 44.9799 251.139C45.3759 250.68 53.3819 241.457 60.7659 238.324C60.8099 238.917 60.7849 239.301 60.7849 239.301C60.7849 239.301 61.6249 239.157 62.7289 239.254Z" fill="#30434C"/>
<path d="M71.793 217.793C71.596 217.781 71.393 217.756 71.191 217.721C70.944 218.005 70.685 218.27 70.414 218.517C66.965 221.675 61.628 221.972 57.964 218.913C56.353 217.568 54.434 214.707 53.374 211.997C48.922 200.613 52.752 190.396 60.433 185.193C60.433 185.193 69.715 182.821 76.715 194.787C83.54 206.448 79.393 218.411 71.793 217.793Z" fill="#517282"/>
<path d="M71.7929 217.793C71.5959 217.781 71.3929 217.756 71.1909 217.721C70.9439 218.005 70.6849 218.27 70.4139 218.517C66.5219 211.251 61.9719 190.861 61.7689 189.938C61.6749 189.517 61.9409 189.102 62.3589 189.008C62.7799 188.914 63.1989 189.18 63.2919 189.601C63.3409 189.826 68.0259 210.827 71.7929 217.793Z" fill="#30434C"/>
<path d="M111.271 207.759C111.271 207.759 98.706 227.846 89.586 226.71C81.974 225.761 83.054 218.935 83.619 216.701C83.731 216.255 83.825 215.993 83.825 215.993C83.825 215.993 83.251 215.903 82.477 215.622C81.353 215.21 79.802 214.386 79.003 212.835C78.741 212.332 78.56 211.752 78.497 211.084C78.391 209.939 78.968 208.309 80.173 206.668C83.069 202.72 89.58 198.694 98.859 201.103C106.156 202.996 111.271 207.759 111.271 207.759Z" fill="#517282"/>
<path d="M103.88 207.425C103.917 207.853 103.602 208.233 103.175 208.274C92.95 209.223 86.1 214.479 83.619 216.701C83.731 216.255 83.8251 215.993 83.8251 215.993C83.8251 215.993 83.2511 215.903 82.4771 215.622C85.0331 213.284 92.1491 207.732 103.032 206.721C103.456 206.682 103.84 206.995 103.88 207.425Z" fill="#30434C"/>
<path d="M112.766 260.467C112.766 260.467 89.5241 255.86 87.3451 246.931C85.6851 240.124 91.1871 238.354 93.8991 237.899C94.7451 237.756 95.3191 237.74 95.3191 237.74C95.3191 237.74 95.2471 237.394 95.2101 236.854C95.1041 235.359 95.2751 232.363 98.0161 231.014C101.527 229.288 113.097 233.005 114.579 246.501C115.403 253.994 112.766 260.467 112.766 260.467Z" fill="#517282"/>
<path d="M108.805 253.829C108.708 253.867 108.608 253.885 108.512 253.885C108.203 253.885 107.91 253.701 107.788 253.398C103.921 243.816 95.0012 238.52 93.8992 237.899C94.7452 237.756 95.3192 237.74 95.3192 237.74C95.3192 237.74 95.2472 237.394 95.2102 236.854C97.6012 238.29 105.512 243.589 109.236 252.812C109.395 253.211 109.205 253.666 108.805 253.829Z" fill="#30434C"/>
<path d="M399.049 429.387C423.113 429.387 442.62 425.066 442.62 419.736C442.62 414.406 423.113 410.085 399.049 410.085C374.985 410.085 355.478 414.406 355.478 419.736C355.478 425.066 374.985 429.387 399.049 429.387Z" fill="#C3C3C3" fill-opacity="0.06"/>
<path d="M378.35 151.09C378.35 151.09 373.647 161.338 373.025 166.602C372.404 171.866 365.043 171.786 362.71 177.831C360.2 184.333 366.071 184.867 365.375 190.087C364.679 195.307 353.762 203.929 359.479 208.031C365.196 212.132 373.895 213.828 371.037 223.109C368.179 232.39 396.399 227.893 401.987 215.663C407.575 203.433 413.043 206.322 417.89 204.629C422.737 202.936 423.11 195.687 419.506 190.86C415.902 186.033 409.601 184.144 410.639 177.322C411.676 170.499 412.477 160.281 410.958 154.143C409.439 148.004 378.35 151.09 378.35 151.09Z" fill="black"/>
<path d="M373.747 403.217C372.548 403.612 371.686 404.694 371.498 405.965C371.334 407.077 371.202 408.667 371.267 410.776C371.411 415.481 371.47 417.4 371.47 417.4C371.47 417.4 372.89 419.881 376.971 420.555L378.172 420.723C378.172 420.723 387.41 426.276 391.724 426.703C397.353 427.26 403.106 424.672 398.45 419.196C394.053 414.024 387.587 411.952 385.677 407.809C385.454 407.326 384.012 406.296 383.644 405.916C380.526 402.688 378.126 401.775 373.747 403.217Z" fill="#517282"/>
<path d="M383.179 413.157C383.383 413.157 383.576 413.038 383.661 412.839C383.668 412.824 384.381 411.21 385.707 410.768C386.978 410.344 388.341 411.45 388.355 411.461C388.579 411.645 388.909 411.614 389.093 411.391C389.278 411.168 389.248 410.839 389.025 410.654C388.952 410.593 387.204 409.162 385.374 409.772C383.597 410.364 382.732 412.341 382.696 412.425C382.582 412.692 382.705 413 382.971 413.114C383.04 413.143 383.11 413.157 383.179 413.157Z" fill="white"/>
<path d="M385.016 414.469C385.22 414.469 385.413 414.35 385.498 414.151C385.505 414.136 386.218 412.522 387.543 412.08C388.814 411.656 390.177 412.762 390.191 412.774C390.414 412.958 390.745 412.927 390.929 412.704C391.114 412.481 391.084 412.151 390.861 411.966C390.788 411.905 389.041 410.474 387.21 411.084C385.433 411.676 384.568 413.653 384.532 413.737C384.418 414.003 384.541 414.312 384.807 414.426C384.877 414.455 384.947 414.469 385.016 414.469Z" fill="white"/>
<path d="M387.11 415.643C387.314 415.643 387.507 415.524 387.592 415.325C387.599 415.31 388.312 413.696 389.637 413.254C390.907 412.83 392.271 413.936 392.285 413.947C392.509 414.131 392.839 414.1 393.024 413.877C393.208 413.654 393.178 413.325 392.956 413.14C392.883 413.079 391.136 411.648 389.305 412.258C387.528 412.85 386.663 414.827 386.627 414.911C386.513 415.178 386.636 415.486 386.903 415.6C386.971 415.629 387.041 415.643 387.11 415.643Z" fill="white"/>
<path d="M406.219 403.373C405.02 403.768 404.158 404.85 403.97 406.121C403.806 407.233 403.674 408.823 403.739 410.932C403.883 415.637 403.944 417.618 403.944 417.618C403.944 417.618 405.362 420.037 409.443 420.712L411.007 420.965C411.007 420.965 419.881 426.434 424.195 426.861C429.824 427.418 435.577 424.83 430.921 419.354C426.524 414.182 420.058 412.11 418.148 407.967C417.925 407.484 416.483 406.454 416.115 406.074C412.998 402.844 410.598 401.931 406.219 403.373Z" fill="#517282"/>
<path d="M415.862 413.42C416.066 413.42 416.259 413.301 416.345 413.102C416.352 413.087 417.064 411.473 418.39 411.031C419.661 410.607 421.024 411.713 421.038 411.724C421.262 411.908 421.592 411.877 421.777 411.654C421.962 411.431 421.932 411.102 421.709 410.917C421.636 410.856 419.888 409.425 418.058 410.035C416.281 410.627 415.416 412.604 415.38 412.688C415.266 412.955 415.389 413.263 415.655 413.377C415.723 413.406 415.793 413.42 415.862 413.42Z" fill="white"/>
<path d="M417.699 414.732C417.903 414.732 418.096 414.613 418.182 414.414C418.189 414.399 418.902 412.785 420.228 412.343C421.499 411.919 422.862 413.025 422.876 413.037C423.1 413.221 423.43 413.19 423.614 412.967C423.799 412.744 423.769 412.415 423.546 412.23C423.473 412.169 421.726 410.738 419.895 411.348C418.118 411.94 417.253 413.917 417.217 414.001C417.103 414.268 417.226 414.576 417.492 414.69C417.56 414.718 417.63 414.732 417.699 414.732Z" fill="white"/>
<path d="M419.794 415.906C419.998 415.906 420.191 415.787 420.276 415.588C420.283 415.573 420.996 413.959 422.322 413.517C423.592 413.093 424.956 414.199 424.97 414.21C425.194 414.394 425.524 414.363 425.708 414.14C425.892 413.917 425.863 413.588 425.64 413.403C425.567 413.342 423.819 411.911 421.989 412.521C420.212 413.113 419.347 415.09 419.311 415.174C419.197 415.44 419.32 415.749 419.586 415.863C419.654 415.892 419.725 415.906 419.794 415.906Z" fill="white"/>
<path d="M372.171 268.439L416.256 267.127C419.024 282.663 425.459 317.379 423.341 332.204C419.93 356.083 414.447 406.232 414.447 406.232C410.697 407.052 409.799 407.134 406.03 405.732C406.03 405.732 402.586 351.193 406.522 334.399C408.895 324.276 401.52 305.38 398.562 290.426C398.562 290.426 397.645 287.321 396.08 287.321C395.063 287.321 394.471 288.808 394.18 289.85C393.1 303.602 391.704 320.095 390.468 330.594C388.02 351.367 381.115 407.059 381.115 407.059C377.365 407.879 377.214 408.209 373.445 406.806C373.445 406.806 370.596 343.221 372.911 331.148C376.583 311.993 372.451 282.39 372.171 268.439Z" fill="#A47B57"/>
<path d="M423.734 322.899C419.214 324.369 414.204 324.449 408.884 323.629C408.544 323.579 408.194 323.519 407.854 323.459C406.924 323.299 405.984 323.109 405.044 322.899C404.144 313.209 400.684 301.169 398.564 290.429C398.564 290.429 397.644 287.319 396.084 287.319C395.064 287.319 394.474 288.809 394.184 289.849C393.334 300.589 392.304 312.979 391.304 322.899C385.544 324.239 380.384 324.509 375.814 323.669C375.484 323.609 375.154 323.549 374.834 323.479C374.094 323.309 373.374 323.119 372.664 322.899C374.694 304.359 372.414 280.789 372.174 268.439L416.254 267.129C418.544 279.969 423.334 305.909 423.734 322.899Z" fill="#30434C"/>
<path d="M408.884 323.629C408.544 323.579 408.194 323.519 407.854 323.459C406.204 310.469 401.344 289.479 401.294 289.239C401.224 288.969 401.394 288.699 401.664 288.639C401.924 288.579 402.194 288.739 402.254 289.009C402.494 290.019 407.284 310.719 408.884 323.629Z" fill="#252B3D"/>
<path d="M376.584 319.429C376.424 320.409 376.264 321.489 375.814 323.669C375.484 323.609 375.154 323.549 374.834 323.479C375.274 321.369 375.444 320.259 375.604 319.269C376.454 314.059 375.744 285.119 375.744 284.829C375.734 284.559 375.954 284.329 376.224 284.319C376.504 284.309 376.724 284.529 376.734 284.809C376.764 285.999 377.454 314.129 376.584 319.429Z" fill="#252B3D"/>
<path d="M372.91 319.316C371.531 320.149 371.538 323.32 371.811 324.963C371.811 324.963 383.864 328.066 391.447 325.316C392.232 324.691 392.675 321.933 391.78 319.774C391.78 319.774 380.243 321.244 372.91 319.316Z" fill="#6B749B"/>
<path d="M404.653 319.577C403.92 320.711 404.086 324.149 405.081 325.144C405.081 325.144 416.364 328.066 423.947 325.316C424.732 324.691 425.114 321.474 423.595 319.316C423.595 319.316 411.986 321.506 404.653 319.577Z" fill="#517282"/>
<path d="M409.344 213.513C411.53 224.422 421.068 232.675 421.068 232.675L429.245 225.399C428.734 225.07 428.153 224.411 427.524 223.496C427.316 223.198 427.105 222.872 426.889 222.52C421.176 213.205 412.228 186.227 412.228 186.227C412.228 186.227 407.161 202.603 409.344 213.513Z" fill="#365460"/>
<path d="M420.071 231.022C420.071 231.022 421.916 236.187 428.768 235.38C435.621 234.573 452.432 214.8 452.432 214.8C450.147 214.797 448.235 214.229 445.153 213.133C445.153 213.133 437.465 220.677 429.954 222.516C422.443 224.356 420.071 231.022 420.071 231.022Z" fill="#365460"/>
<path d="M423.093 228.402C423.171 228.437 423.252 228.454 423.333 228.454C423.553 228.454 423.76 228.33 423.859 228.116C424.844 225.973 426.461 224.378 427.524 223.495C427.316 223.197 427.105 222.871 426.889 222.519C425.737 223.458 423.925 225.211 422.811 227.634C422.677 227.926 422.801 228.269 423.093 228.402Z" fill="#517282"/>
<path d="M462.313 194.745L460.995 194.17L461.296 195.029L462.313 194.745Z" fill="#252B3D"/>
<path d="M450.497 195.611L441.566 210.506C440.99 211.461 441.463 212.549 442.414 212.448L445.718 212.091L451.4 211.481C451.83 211.432 452.251 211.139 452.511 210.709L461.348 196.054C461.916 195.111 461.468 194.027 460.533 194.103L451.638 194.834C451.197 194.871 450.765 195.168 450.497 195.611Z" fill="#252B3D"/>
<path d="M441.881 212.365L442.934 213.006L443.406 212.492L442.046 211.719L441.881 212.365Z" fill="#252B3D"/>
<path d="M462.563 196.59L453.665 211.347C453.403 211.782 452.98 212.077 452.551 212.125L443.54 213.127C442.59 213.233 442.119 212.14 442.698 211.175L451.692 196.179C451.96 195.732 452.397 195.432 452.836 195.395L461.751 194.633C462.688 194.551 463.137 195.637 462.563 196.59Z" fill="#51557C"/>
<path d="M452.077 204.052C451.424 205.135 451.323 206.271 451.852 206.589C452.38 206.907 453.338 206.288 453.991 205.205C454.644 204.122 454.745 202.986 454.216 202.668C453.687 202.35 452.73 202.97 452.077 204.052Z" fill="#252B3D"/>
<path d="M460.221 201.689C460.217 201.694 460.22 201.692 460.221 201.689C460.278 201.536 461.113 199.319 460.324 198.908C460.027 198.754 459.604 199.16 459.179 199.74C459.179 199.74 459.179 199.74 459.176 199.742C458.556 200.595 457.945 201.818 457.758 202.201L457.757 202.21C457.749 202.223 457.744 202.237 457.736 202.248C457.752 202.206 457.775 202.151 457.804 202.082C457.805 202.073 457.807 202.062 457.814 202.054C457.845 201.973 457.885 201.874 457.926 201.762C457.928 201.748 457.934 201.734 457.942 201.72C458.37 200.591 459.16 198.219 458.512 197.63C458.047 197.206 456.99 198.75 456.121 200.25C455.437 201.429 454.872 202.58 454.801 202.725C454.818 202.677 454.866 202.526 454.93 202.309C454.935 202.298 454.94 202.287 454.941 202.278C455.223 201.305 455.773 199.081 454.956 198.549C454.325 198.143 453.362 200.188 452.687 201.906V201.909C452.23 203.072 451.906 204.085 451.906 204.085C451.906 204.085 452.211 200.988 451.264 201.079C450.313 201.17 449.71 206.397 448.534 207.897C447.355 209.397 445.056 211.303 445.158 212.928C445.211 213.774 446.71 215.84 450.622 215.651C452.025 215.583 453.33 214.918 454.231 213.84C456.974 210.558 459.877 204.633 460.217 201.695" fill="#A47B57"/>
<path d="M456.159 205.632C456.244 205.542 457.623 204.066 458.041 202.968C458.471 201.831 459.179 199.74 459.179 199.74C459.179 199.74 459.179 199.74 459.176 199.742C458.556 200.595 457.945 201.818 457.758 202.201L457.757 202.21C457.649 202.494 456.758 204.778 456.159 205.632Z" fill="#825A36"/>
<path d="M453.746 205.606C453.825 205.486 455.072 203.531 455.581 202.376C455.924 201.588 456.066 200.737 456.121 200.25C455.437 201.429 454.872 202.58 454.801 202.725C454.801 202.725 453.988 205.025 453.746 205.606Z" fill="#825A36"/>
<path d="M451.571 206.147C451.571 206.147 452.918 203.305 452.687 201.909C452.23 203.072 451.906 204.085 451.906 204.085" fill="#825A36"/>
<path d="M373.119 277.416C382.421 284.562 419.18 276.109 416.472 266.598C414.77 260.622 408.81 234.848 409.689 226.851C410.582 218.868 416.667 213.995 412.736 205.015C410.399 199.676 410.593 194.421 411.974 189.526C413.104 185.527 411.679 183.753 407.658 183.178C405.881 182.924 402.827 182.82 400.149 183.218C394.472 184.043 388.014 185.11 382.504 186.32C378.361 187.231 374.735 188.227 372.419 189.251C362.669 193.563 376.032 214.082 378.096 226.063C380.16 238.06 368.166 273.611 373.119 277.416Z" fill="#365460"/>
<path d="M393.275 227.311C403.636 227.311 409.187 224.344 409.462 224.194C409.742 224.041 409.844 223.69 409.691 223.41C409.538 223.131 409.187 223.028 408.907 223.181C408.83 223.223 400.996 227.387 386.778 225.78C386.461 225.744 386.175 225.972 386.139 226.289C386.103 226.606 386.331 226.892 386.648 226.928C389.038 227.198 391.249 227.311 393.275 227.311Z" fill="#517282"/>
<path d="M395.726 206.364C395.782 206.364 395.838 206.356 395.894 206.339C402.372 204.368 403.835 199.927 403.894 199.738C403.99 199.434 403.82 199.109 403.516 199.014C403.214 198.919 402.889 199.087 402.792 199.39C402.737 199.559 401.417 203.451 395.557 205.233C395.252 205.326 395.079 205.649 395.173 205.954C395.25 206.204 395.479 206.364 395.726 206.364Z" fill="#517282"/>
<path d="M388.367 267.176C402.602 267.176 410.652 259.344 410.988 259.01C411.214 258.785 411.216 258.42 410.991 258.194C410.767 257.967 410.401 257.966 410.174 258.19C410.095 258.268 402.103 266.021 388.367 266.021C388.051 266.014 387.786 266.278 387.786 266.599C387.786 266.918 388.045 267.177 388.364 267.177L388.367 267.176Z" fill="#517282"/>
<path d="M390.013 264.51C390.018 264.51 390.022 264.51 390.027 264.51C395.334 264.381 402.018 260.096 402.3 259.913C402.568 259.74 402.645 259.382 402.472 259.114C402.298 258.846 401.941 258.77 401.673 258.943C401.607 258.986 394.979 263.234 389.999 263.355C389.68 263.363 389.428 263.628 389.436 263.947C389.444 264.26 389.701 264.51 390.013 264.51Z" fill="#517282"/>
<path d="M406.907 164.175C406.907 164.175 406.907 173.026 404.757 178.978C402.791 184.421 405.758 189.165 405.758 189.165C405.758 189.165 404.294 184.671 406.753 179.841C409.212 175.012 411.397 164.538 410.958 155.693L406.907 164.175Z" fill="black"/>
<path d="M386.924 175.791C386.924 175.791 379.296 172.985 377.774 165.161C376.252 157.338 376.699 145.847 387.377 142.469C398.055 139.09 407.923 142.332 410.304 152.185C410.304 152.185 402.113 171.81 386.924 175.791Z" fill="black"/>
<path d="M398.903 179.529L398.322 184.944L397.998 188.11C391.824 190.769 385.499 186.785 385.567 186.226C386.242 183.824 386.755 179.706 386.924 175.792C387.032 175.716 387.149 175.653 387.275 175.604C390.531 174.187 398.903 179.529 398.903 179.529Z" fill="#A47B57"/>
<path d="M398.903 179.529L398.322 184.944C392.154 182.761 388.778 178.215 387.275 175.604C390.531 174.187 398.903 179.529 398.903 179.529Z" fill="#825A36"/>
<path d="M408.444 162.404C408.444 162.404 410.85 159.549 412.373 162.109C413.896 164.669 411.133 171.82 407.162 169.811L408.444 162.404Z" fill="#825A36"/>
<path d="M409.606 168.637C409.653 168.92 409.921 169.111 410.205 169.064C410.488 169.017 410.679 168.749 410.632 168.465C410.585 168.182 410.317 167.991 410.033 168.038C409.75 168.086 409.558 168.354 409.606 168.637Z" fill="white"/>
<path d="M408.179 167.611C408.33 167.619 408.473 167.528 408.524 167.378C409.282 165.165 411.664 164.385 411.688 164.378C411.869 164.32 411.97 164.127 411.912 163.946C411.855 163.765 411.661 163.664 411.48 163.721C411.369 163.756 408.745 164.607 407.872 167.155C407.81 167.335 407.906 167.531 408.086 167.593C408.117 167.603 408.148 167.609 408.179 167.611Z" fill="#825A36"/>
<path d="M410.594 166.611C410.658 166.615 410.723 166.601 410.783 166.567C410.949 166.473 411.007 166.263 410.913 166.097C410.897 166.07 410.521 165.417 409.681 164.983C409.513 164.895 409.304 164.962 409.217 165.131C409.13 165.3 409.196 165.508 409.365 165.595C410.015 165.931 410.312 166.432 410.314 166.437C410.374 166.543 410.481 166.605 410.594 166.611Z" fill="#825A36"/>
<path d="M410.389 165.982C410.331 166.785 410.247 167.537 410.136 168.217C409.121 174.351 403.731 186.806 392.939 180.461C390.35 178.938 388.425 177.433 386.924 175.791C385.79 174.555 384.894 173.241 384.129 171.786C383.833 171.224 383.699 170.593 383.506 169.99C383.471 169.884 383.439 169.775 383.408 169.669C383.389 169.608 383.371 169.55 383.352 169.489C382.815 167.729 382.408 165.951 382.092 164.257C381.698 162.143 381.447 160.172 381.293 158.55C381.008 155.569 382.323 152.663 384.745 150.9C391.301 146.123 398.868 146.753 403.955 148.068C407.486 148.98 410.031 152.051 410.27 155.685C410.387 157.409 410.48 159.374 410.508 161.326C410.527 162.933 410.499 164.539 410.389 165.982Z" fill="#A47B57"/>
<path d="M405.853 160.1C405.864 159.783 406.132 159.537 406.449 159.547C407.294 159.575 408.354 159.688 409.316 160.017C411.325 160.704 411.598 161.275 411.598 161.275C411.598 161.275 411.348 161.512 408.717 160.977C408.042 160.84 407.146 160.784 406.371 160.71C406.066 160.681 405.842 160.416 405.853 160.11C405.853 160.107 405.853 160.103 405.853 160.1Z" fill="black"/>
<path d="M398.529 159.694C398.589 159.319 398.331 158.969 397.956 158.908C396.958 158.747 395.688 158.636 394.483 158.801C391.967 159.145 391.516 159.753 391.516 159.753C391.516 159.753 391.755 160.089 394.965 160.066C395.789 160.06 396.853 160.201 397.78 160.292C398.144 160.328 398.468 160.069 398.526 159.707C398.528 159.702 398.528 159.698 398.529 159.694Z" fill="black"/>
<path d="M400.277 170.713C400.308 170.708 400.338 170.7 400.368 170.688L402.622 169.812L401.705 164.334C401.663 164.083 401.425 163.913 401.174 163.955C400.923 163.997 400.753 164.235 400.795 164.486L401.588 169.223L400.034 169.827C399.796 169.919 399.679 170.187 399.771 170.424C399.852 170.633 400.066 170.749 400.277 170.713Z" fill="#825A36"/>
<path d="M387.801 169.492C387.801 169.492 386.679 171.662 384.13 171.786C383.905 171.194 383.7 170.593 383.507 169.99C384.738 170.21 386.624 170.352 387.801 169.492Z" fill="#825A36"/>
<path d="M386.924 175.791C385.79 174.555 384.894 173.241 384.129 171.786C383.833 171.224 383.699 170.593 383.506 169.99C383.471 169.884 383.439 169.775 383.408 169.669C383.669 169.681 384.096 169.765 384.795 169.99C384.795 169.99 387.686 173.298 386.924 175.791Z" fill="black"/>
<path d="M403.88 173.388C403.349 174.944 401.9 177.744 398.342 177.268C394.776 176.791 394.135 173.97 394.039 172.072L403.88 173.388Z" fill="white"/>
<path d="M396.831 164.449C396.782 165.314 396.297 165.99 395.747 165.958C395.197 165.927 394.791 165.201 394.84 164.336C394.889 163.471 395.374 162.796 395.924 162.827C396.474 162.858 396.88 163.585 396.831 164.449Z" fill="black"/>
<path d="M408.031 165.092C407.982 165.957 407.497 166.632 406.947 166.601C406.397 166.57 405.991 165.844 406.04 164.979C406.089 164.114 406.574 163.438 407.124 163.47C407.674 163.501 408.08 164.227 408.031 165.092Z" fill="black"/>
<path d="M384.59 163.036C384.59 163.036 382.126 160.51 380.867 163.028C379.607 165.546 382.114 171.79 386.492 169.975L384.59 163.036Z" fill="#A47B57"/>
<path d="M383.666 169.521C383.713 169.804 383.981 169.995 384.265 169.948C384.548 169.901 384.739 169.633 384.692 169.349C384.645 169.066 384.377 168.875 384.093 168.922C383.81 168.97 383.619 169.238 383.666 169.521Z" fill="white"/>
<path d="M385.198 167.924C385.057 167.943 384.915 167.866 384.857 167.729C383.99 165.696 381.692 165.125 381.669 165.119C381.494 165.077 381.386 164.902 381.428 164.727C381.469 164.552 381.645 164.444 381.82 164.485C381.927 164.51 384.458 165.132 385.457 167.474C385.527 167.64 385.45 167.831 385.285 167.901C385.256 167.913 385.227 167.921 385.198 167.924Z" fill="#825A36"/>
<path d="M382.853 167.149C382.793 167.157 382.73 167.148 382.672 167.12C382.509 167.043 382.44 166.849 382.517 166.686C382.53 166.659 382.84 166.019 383.602 165.551C383.755 165.457 383.956 165.505 384.05 165.659C384.144 165.812 384.096 166.013 383.943 166.107C383.354 166.468 383.108 166.961 383.106 166.966C383.056 167.069 382.959 167.135 382.853 167.149Z" fill="#825A36"/>
<path d="M381.715 162.003C382.787 161.822 383.548 161.891 384.14 162.164C384.553 162.354 384.884 162.639 385.183 163.006C385.245 163.08 385.305 163.16 385.365 163.243C385.499 163.189 385.626 163.114 385.747 163.023C386.02 162.819 386.26 162.528 386.472 162.188C387.035 161.29 387.705 160.624 387.912 159.787C388.227 158.511 389.618 157.345 389.618 157.345C400.494 160.73 409.101 151.355 409.101 151.355C405.736 140.999 387.445 145.933 382.727 148.439C378.01 150.943 376.369 162.898 381.715 162.003Z" fill="black"/>
<path d="M387.911 159.786C387.911 159.786 385.379 163.51 387.372 168.752C389.365 173.994 389.633 182.759 384.698 185.416C384.698 185.416 387.257 179.921 386.293 176.307C385.147 172.012 384.091 167.047 384.821 163.944C385.552 160.841 386.849 159.098 387.911 159.786Z" fill="black"/>
<path d="M406.646 152.084C406.646 152.084 405.716 159.281 410.665 161.816C410.665 161.816 412.797 147.215 406.646 152.084Z" fill="black"/>
<path d="M394.172 169.353C391.557 169.21 389.547 166.966 389.69 164.352C389.833 161.737 392.077 159.727 394.691 159.87C397.305 160.013 399.316 162.257 399.173 164.871C399.03 167.486 396.786 169.497 394.172 169.353ZM394.651 160.609C392.444 160.488 390.55 162.185 390.429 164.392C390.308 166.599 392.005 168.493 394.212 168.614C396.419 168.735 398.313 167.038 398.433 164.831C398.555 162.624 396.858 160.73 394.651 160.609Z" fill="white"/>
<path d="M407.132 170.064C404.517 169.921 402.507 167.677 402.65 165.063C402.793 162.448 405.037 160.438 407.651 160.581C410.265 160.724 412.276 162.968 412.133 165.582C411.99 168.196 409.746 170.207 407.132 170.064ZM407.611 161.319C405.404 161.198 403.51 162.895 403.389 165.102C403.268 167.309 404.965 169.203 407.172 169.324C409.379 169.445 411.273 167.748 411.393 165.541C411.515 163.334 409.818 161.44 407.611 161.319Z" fill="white"/>
<path d="M386.471 162.187C387.307 162.262 389.806 162.781 390.273 162.881C390.209 163.148 389.902 164.136 389.95 163.874C389.983 163.692 388.367 163.341 388.366 163.365C387.822 163.248 386.856 163.073 385.746 163.022C385.563 163.013 385.373 163.007 385.182 163.006C384.883 162.639 384.552 162.354 384.139 162.164C384.955 162.098 385.759 162.122 386.471 162.187Z" fill="white"/>
<path d="M402.969 164.011C402.961 163.999 402.149 162.763 400.994 162.7C399.851 162.637 398.992 163.779 398.984 163.791L398.387 163.353C398.431 163.293 399.487 161.876 401.034 161.961C402.57 162.045 403.551 163.547 403.592 163.611L402.969 164.011Z" fill="white"/>
<path d="M376.532 321.473C377.003 321.473 377.41 321.121 377.467 320.642C377.496 320.402 378.164 314.703 377.501 308.123C377.109 304.227 376.326 300.84 375.175 298.056C373.699 294.487 371.608 291.89 368.96 290.338C366.179 288.709 363.714 288.487 361.631 289.681C355.525 293.18 355.455 308.052 355.455 308.684C355.455 309.205 355.877 309.627 356.398 309.627C356.919 309.627 357.341 309.205 357.341 308.684C357.343 304.686 358.285 293.771 362.569 291.317C364.043 290.473 365.821 290.685 368.006 291.965C378.171 297.922 375.622 320.193 375.595 320.417C375.533 320.934 375.902 321.404 376.419 321.466C376.456 321.471 376.494 321.473 376.532 321.473Z" fill="#273C43"/>
<path d="M392.258 318.326L352.255 294.988L345.625 298.859L385.591 321.933L392.258 318.326Z" fill="#273C43"/>
<path d="M385.591 321.933L345.625 298.859L338.868 356.606L385.613 383.437L385.591 321.933Z" fill="#2C4751"/>
<path d="M355.776 310.509C355.784 311.435 355.118 311.791 354.29 311.304C353.462 310.817 352.784 309.67 352.777 308.744C352.769 307.818 353.435 307.462 354.263 307.949C355.091 308.437 355.768 309.583 355.776 310.509Z" fill="#517282"/>
<path d="M375.909 322.356C375.917 323.282 375.251 323.638 374.423 323.151C373.595 322.664 372.917 321.517 372.91 320.591C372.903 319.665 373.568 319.309 374.396 319.796C375.224 320.283 375.901 321.429 375.909 322.356Z" fill="#517282"/>
<path d="M385.613 383.437L398.925 375.892L392.258 318.326L385.591 321.933L385.613 383.437Z" fill="#517282"/>
<path d="M374.411 322.417C374.882 322.417 375.289 322.065 375.346 321.586C375.375 321.346 376.043 315.647 375.38 309.067C374.987 305.171 374.205 301.784 373.054 298.999C371.579 295.43 369.487 292.834 366.839 291.281C364.059 289.652 361.593 289.43 359.51 290.624C353.404 294.123 353.334 308.995 353.334 309.627C353.334 310.148 353.756 310.57 354.277 310.57C354.798 310.57 355.22 310.148 355.22 309.627C355.221 305.629 356.164 294.715 360.448 292.26C361.922 291.416 363.7 291.628 365.885 292.908C376.05 298.865 373.501 321.136 373.474 321.36C373.412 321.877 373.781 322.347 374.298 322.409C374.335 322.414 374.373 322.417 374.411 322.417Z" fill="#517282"/>
<path d="M351.845 332.116C351.816 334.104 352.41 336.48 353.637 338.765L362.01 354.358L370.684 349.336C371.955 348.6 372.607 346.998 372.637 345.009C372.666 343.02 372.072 340.645 370.847 338.365C368.56 334.105 365.005 332.414 362.285 335.529C359.704 329.127 356.165 326.419 353.795 327.791C352.526 328.526 351.874 330.128 351.845 332.116Z" fill="#517282"/>
<path d="M376.658 209.45C375.93 215.786 373.236 233.575 372.187 240.444C372.154 240.652 372.122 240.851 372.094 241.039L372.046 241.634L368.895 281.334C366.535 283.468 360.593 280.804 360.593 280.804C360.106 275.869 359.17 259.631 359.197 254.485C359.225 249.339 361.087 239.013 361.087 239.013C361.971 231.492 363.806 215.633 364.657 206.611C365.802 194.491 370.91 190.195 370.91 190.195C376.884 192.321 377.569 201.527 376.658 209.45Z" fill="#365460"/>
<path d="M372.169 291.943C371.873 292.167 371.446 292.239 371.037 292.247C370.392 292.262 369.784 292.111 369.784 292.111C370.012 293.806 369.659 295.709 369.365 296.148C368.662 297.202 367.261 295.814 366.917 294.747C366.917 294.747 366.729 295.847 365.474 295.5C364.219 295.154 363.812 293.492 363.812 293.492C363.812 293.492 363.872 294.81 362.901 294.622C361.93 294.434 361.176 292.895 361.176 292.895C361.176 292.895 360.96 294.421 359.921 294.057C358.879 293.693 358.696 291.317 358.696 289.308C358.696 287.3 360.594 280.804 360.594 280.804C360.594 280.804 364.617 281.839 368.896 281.334C368.896 281.334 372.062 285.396 372.91 287.781C373.758 290.166 372.93 291.371 372.169 291.943Z" fill="#A47B57"/>
<path d="M371.037 292.247C370.392 292.262 369.784 292.111 369.784 292.111C369.784 292.111 369.636 288.742 370.663 287.969C370.663 287.969 370.286 290.816 371.037 292.247Z" fill="#825A36"/>
<path d="M372.187 240.444C372.154 240.652 372.122 240.851 372.094 241.039L372.046 241.634C370.773 241.112 368.966 240.572 367.003 240.59C366.767 240.593 366.566 240.457 366.473 240.259C366.438 240.184 366.42 240.103 366.418 240.018C366.413 239.699 366.671 239.441 366.993 239.436C368.999 239.417 370.831 239.919 372.187 240.444Z" fill="#365460"/>
<path d="M347.353 412.8C353.765 398.796 316.828 368.151 264.851 344.352C212.874 320.554 165.541 312.613 159.129 326.617C152.717 340.62 189.655 371.265 241.631 395.064C293.608 418.863 340.941 426.803 347.353 412.8Z" fill="white" fill-opacity="0.06"/>
<path d="M182.361 69.6021L195.532 76.3951L197.124 77.2161L198.736 60.7371L198.708 60.7521C198.703 60.7541 198.7 60.7571 198.695 60.7601L182.361 69.6021Z" fill="#273C43"/>
<path d="M195.532 66.589V327.042C195.532 329.531 196.864 331.833 199.026 333.07L317.482 400.982C322.114 403.639 327.89 400.294 327.89 394.954V137.667C327.89 134.926 326.792 132.342 324.903 130.453C324.291 129.841 323.596 129.302 322.83 128.853L205.988 60.589C203.55 59.163 200.781 59.415 198.708 60.753C198.703 60.755 198.7 60.758 198.695 60.761C196.834 61.97 195.532 64.053 195.532 66.589Z" fill="#273C43"/>
<path d="M322.652 401.691L304.219 406.807V389.814L322.652 401.691Z" fill="#273C43"/>
<path d="M182.361 69.602L195.532 76.395V83.992L300.091 144.4L324.902 130.453C324.29 129.841 323.595 129.302 322.829 128.853L205.988 60.589C203.55 59.163 200.781 59.415 198.708 60.753C198.703 60.755 198.7 60.758 198.695 60.761L182.361 69.602Z" fill="#3A4059"/>
<path d="M287.291 119.954C286.825 119.954 286.353 119.837 285.922 119.59L218.598 81.0821C217.301 80.3401 216.863 78.7091 217.621 77.4381C218.379 76.1671 220.045 75.7391 221.341 76.4811L288.665 114.989C289.962 115.731 290.4 117.362 289.642 118.633C289.136 119.481 288.226 119.954 287.291 119.954Z" fill="#273C43"/>
<path d="M309.932 144.265V398.312C309.932 405.359 302.314 409.773 296.199 406.268L182.185 340.905C179.334 339.272 177.574 336.234 177.574 332.946V77.654C177.574 70.573 185.26 66.163 191.374 69.735L305.385 136.346C308.202 137.991 309.932 141.006 309.932 144.265Z" fill="#30434C"/>
<path d="M300.748 400.813C300.327 400.813 299.926 400.7 299.523 400.469L185.511 335.107C184.738 334.664 184.258 333.836 184.258 332.946V77.653C184.258 75.946 185.753 75.151 186.763 75.151C187.19 75.151 187.596 75.267 188.004 75.505L302.016 142.117C302.777 142.562 303.25 143.385 303.25 144.266V398.312C303.25 399.021 303.002 399.618 302.513 400.088C302.03 400.548 301.387 400.813 300.748 400.813Z" fill="white"/>
<path d="M272.774 335.15C273.415 335.15 274.038 334.818 274.381 334.223C274.893 333.336 274.589 332.202 273.702 331.69L204.447 291.706C203.561 291.194 202.426 291.498 201.914 292.384C201.402 293.271 201.706 294.405 202.593 294.917L271.847 334.901C272.14 335.07 272.459 335.15 272.774 335.15Z" fill="#E5E5E5"/>
<path d="M272.774 348.515C273.415 348.515 274.038 348.183 274.381 347.588C274.893 346.701 274.589 345.567 273.702 345.055L204.25 304.957C203.364 304.445 202.23 304.749 201.717 305.636C201.205 306.523 201.509 307.657 202.396 308.169L271.848 348.267C272.14 348.435 272.459 348.515 272.774 348.515Z" fill="#E5E5E5"/>
<path d="M272.774 361.879C273.415 361.879 274.038 361.547 274.381 360.952C274.893 360.065 274.589 358.931 273.702 358.419L204.25 318.321C203.364 317.809 202.23 318.113 201.717 319C201.205 319.887 201.509 321.02 202.396 321.533L271.848 361.631C272.14 361.799 272.459 361.879 272.774 361.879Z" fill="#E5E5E5"/>
<path d="M272.774 161.344C273.415 161.344 274.038 161.012 274.381 160.417C274.893 159.53 274.589 158.396 273.702 157.884L204.447 117.9C203.561 117.388 202.426 117.692 201.914 118.578C201.402 119.465 201.706 120.599 202.593 121.111L271.847 161.095C272.14 161.264 272.459 161.344 272.774 161.344Z" fill="#E5E5E5"/>
<path d="M272.774 174.708C273.415 174.708 274.038 174.376 274.381 173.781C274.893 172.894 274.589 171.76 273.702 171.248L204.25 131.15C203.364 130.638 202.23 130.942 201.717 131.829C201.205 132.716 201.509 133.85 202.396 134.362L271.848 174.46C272.14 174.628 272.459 174.708 272.774 174.708Z" fill="#E5E5E5"/>
<path d="M272.774 188.073C273.415 188.073 274.038 187.741 274.381 187.146C274.893 186.259 274.589 185.126 273.702 184.613L204.25 144.515C203.364 144.003 202.23 144.307 201.717 145.194C201.205 146.081 201.509 147.214 202.396 147.727L271.848 187.825C272.14 187.993 272.459 188.073 272.774 188.073Z" fill="#E5E5E5"/>
<path d="M271.615 123.848V136.359C271.615 138.179 269.641 139.312 268.069 138.395L218.603 109.521C217.879 109.098 217.434 108.323 217.434 107.485V92.2891L271.615 123.848Z" fill="#30434C"/>
<path d="M263.898 128.605C263.688 128.605 263.475 128.551 263.281 128.438L232.954 110.727C232.37 110.386 232.173 109.635 232.514 109.051C232.855 108.467 233.606 108.27 234.19 108.611L264.516 126.322C265.1 126.663 265.297 127.414 264.956 127.998C264.729 128.388 264.319 128.605 263.898 128.605Z" fill="#6B749B"/>
<path d="M223.627 105.3C223.627 106.693 224.558 107.822 225.706 107.822C226.854 107.822 227.785 106.693 227.785 105.3C227.785 103.907 226.854 102.778 225.706 102.778C224.558 102.778 223.627 103.907 223.627 105.3Z" fill="#6B749B"/>
<path d="M321.439 58.9399C330.307 70.7509 323.984 114.887 318.526 126.317L286.392 107.593C286.392 107.593 292.25 61.1579 321.439 58.9399Z" fill="#C6C6C6"/>
<path d="M219.302 78.115V77.968C219.302 53.679 232.281 31.241 253.337 19.131L253.566 19L322.093 58.564L321.44 58.941C300.44 71.065 287.503 93.472 287.503 117.721L219.302 78.115Z" fill="#E5E5E5"/>
<path d="M300.087 54.911C299.903 55.229 299.57 55.408 299.227 55.408C299.058 55.408 298.886 55.363 298.73 55.274L255.509 30.32C254.907 29.973 254.848 29.131 255.39 28.697C255.395 28.693 255.401 28.688 255.407 28.684C255.722 28.431 256.161 28.401 256.51 28.603L299.724 53.552C300.198 53.827 300.362 54.434 300.087 54.911Z" fill="#C6C6C6"/>
<path d="M289.724 63.695C289.54 64.016 289.204 64.195 288.861 64.195C288.692 64.195 288.52 64.15 288.364 64.061L246.051 39.629C245.523 39.324 245.394 38.616 245.784 38.148C245.788 38.143 245.793 38.138 245.797 38.133C246.104 37.764 246.632 37.669 247.048 37.909L289.358 62.338C289.836 62.614 289.997 63.22 289.724 63.695Z" fill="#C6C6C6"/>
<path d="M282.093 75.1711C281.909 75.4921 281.576 75.6711 281.23 75.6711C281.061 75.6711 280.892 75.6261 280.735 75.5371L238.372 51.0781C237.913 50.8131 237.746 50.2321 237.994 49.7631C237.997 49.7571 238 49.7511 238.003 49.7461C238.264 49.2541 238.882 49.0781 239.365 49.3561L281.729 73.8151C282.205 74.0891 282.367 74.6961 282.093 75.1711Z" fill="#C6C6C6"/>
<path d="M276.483 86.5919C276.299 86.9129 275.963 87.089 275.621 87.089C275.452 87.089 275.28 87.0469 275.124 86.9569L233.483 62.9149C233.085 62.6849 232.9 62.211 233.034 61.771C233.036 61.764 233.038 61.7579 233.04 61.7509C233.224 61.1459 233.927 60.872 234.475 61.188L276.119 85.2339C276.595 85.5079 276.757 86.1169 276.483 86.5919Z" fill="#C6C6C6"/>
<path d="M272.054 99.162C271.87 99.48 271.534 99.659 271.191 99.659C271.022 99.659 270.851 99.614 270.694 99.525L230.838 76.514C230.508 76.324 230.316 75.96 230.348 75.581C230.349 75.574 230.349 75.566 230.35 75.559C230.413 74.839 231.198 74.426 231.824 74.787L271.688 97.802C272.163 98.078 272.328 98.684 272.054 99.162Z" fill="#C6C6C6"/>
<path opacity="0.2" d="M276.2 234.29L275.723 314.045C275.713 316.014 274.923 317.306 273.687 317.753C273.518 317.813 273.339 317.86 273.155 317.885V317.925L268.447 318.386C266.61 318.566 264.763 318.151 263.18 317.201L184.257 269.883L177.573 265.876V167.852L184.257 171.911L270.482 224.297C273.662 226.23 276.22 230.704 276.2 234.29Z" fill="#252B3D"/>
<path d="M135.193 142.049L137.463 235.672L260.614 309.506L268.15 308.766V308.728C268.335 308.701 268.513 308.655 268.682 308.594C269.916 308.149 270.707 306.854 270.718 304.887L271.195 225.131C271.215 221.544 268.655 217.071 265.476 215.14L145.404 142.19C144.295 141.515 143.257 141.239 142.374 141.319L142.3 141.326L135.193 142.049Z" fill="#263940"/>
<path d="M132.219 145.924L131.742 225.678C131.721 229.264 134.283 233.739 137.462 235.671L257.535 308.622C258.966 309.492 260.283 309.697 261.295 309.334C262.53 308.889 263.318 307.595 263.33 305.626L263.807 225.872C263.829 222.286 261.268 217.812 258.089 215.881L138.016 142.93C134.838 140.998 132.24 142.338 132.219 145.924Z" fill="#749AAD"/>
<path d="M132.16 155.83L132.055 173.507L263.643 253.454L263.748 235.777L132.16 155.83Z" fill="#3A4059"/>
<path d="M142.525 226.721L170.991 244.016C171.678 244.433 172.238 244.143 172.242 243.369L172.298 233.942C172.303 233.168 171.75 232.202 171.063 231.785L142.597 214.49C141.911 214.073 141.35 214.362 141.346 215.137L141.29 224.564C141.286 225.338 141.838 226.304 142.525 226.721Z" fill="#517282"/>
<path d="M246.517 264.093L255.191 269.363C255.572 269.595 255.883 269.434 255.886 269.004L255.917 263.889C255.92 263.459 255.613 262.923 255.232 262.691L246.558 257.421C246.177 257.19 245.866 257.35 245.863 257.78L245.832 262.895C245.829 263.326 246.136 263.862 246.517 264.093Z" fill="#517282"/>
<path d="M228.807 253.333L237.481 258.603C237.862 258.835 238.173 258.674 238.176 258.244L238.207 253.129C238.21 252.699 237.903 252.163 237.522 251.931L228.848 246.661C228.467 246.429 228.156 246.59 228.153 247.02L228.122 252.135C228.119 252.566 228.426 253.102 228.807 253.333Z" fill="#517282"/>
<path d="M211.096 242.573L219.77 247.843C220.151 248.075 220.462 247.914 220.465 247.484L220.496 242.369C220.499 241.939 220.192 241.403 219.811 241.171L211.137 235.901C210.756 235.669 210.445 235.83 210.442 236.26L210.411 241.375C210.408 241.806 210.715 242.342 211.096 242.573Z" fill="#517282"/>
<path d="M193.386 231.813L202.06 237.083C202.441 237.315 202.752 237.154 202.755 236.724L202.786 231.609C202.789 231.179 202.482 230.643 202.1 230.411L193.426 225.141C193.045 224.91 192.734 225.07 192.731 225.5L192.701 230.615C192.698 231.046 193.005 231.582 193.386 231.813Z" fill="#517282"/>
<path d="M175.676 221.053L184.35 226.323C184.731 226.555 185.042 226.394 185.045 225.964L185.076 220.849C185.079 220.419 184.772 219.883 184.391 219.651L175.717 214.381C175.336 214.15 175.025 214.31 175.022 214.74L174.991 219.855C174.988 220.286 175.295 220.822 175.676 221.053Z" fill="#517282"/>
<path d="M157.966 210.294L166.64 215.564C167.021 215.796 167.332 215.635 167.335 215.205L167.366 210.09C167.369 209.66 167.062 209.124 166.681 208.892L158.007 203.622C157.626 203.39 157.315 203.551 157.312 203.981L157.281 209.096C157.278 209.526 157.585 210.062 157.966 210.294Z" fill="#517282"/>
<path d="M140.256 199.534L148.93 204.804C149.311 205.036 149.622 204.875 149.625 204.445L149.656 199.33C149.659 198.9 149.352 198.364 148.971 198.132L140.297 192.862C139.916 192.631 139.605 192.791 139.602 193.221L139.571 198.336C139.568 198.766 139.875 199.302 140.256 199.534Z" fill="#517282"/>
<path d="M132.216 146.463L132.196 149.852L263.784 229.8L263.804 226.411L132.216 146.463Z" fill="#517282"/>
<path d="M240.037 287.714L253.687 296.007C254.808 296.688 255.723 296.215 255.731 294.95L255.823 279.553C255.831 278.288 254.928 276.711 253.807 276.03L240.157 267.737C239.036 267.056 238.121 267.529 238.113 268.793L238.021 284.19C238.013 285.455 238.916 287.033 240.037 287.714Z" fill="#517282"/>
<path d="M177.175 244.398L233.116 278.385C233.501 278.619 233.814 278.456 233.817 278.023L233.84 274.09C233.843 273.656 233.533 273.115 233.148 272.881L177.207 238.894C176.822 238.66 176.509 238.823 176.506 239.257L176.483 243.19C176.481 243.623 176.791 244.164 177.175 244.398Z" fill="#517282"/>
<path opacity="0.2" d="M181.012 169.052L261.296 309.334C262.531 308.889 263.319 307.595 263.331 305.626L263.498 277.647L212.19 187.994L181.012 169.052Z" fill="white"/>
<path opacity="0.2" d="M138.262 143.079L219.926 285.773L235.181 295.041L153.517 152.347L138.262 143.079Z" fill="white"/>
<path d="M136.071 407.682C157.533 407.682 174.931 398.708 174.931 387.639C174.931 376.57 157.533 367.596 136.071 367.596C114.609 367.596 97.2109 376.57 97.2109 387.639C97.2109 398.708 114.609 407.682 136.071 407.682Z" fill="#C3C3C3" fill-opacity="0.06"/>
<path d="M170.754 383.762C170.755 383.814 170.755 383.864 170.755 383.916C170.755 385.806 170.12 387.623 168.95 389.318C168.664 389.734 168.346 390.14 167.999 390.538C167.025 391.654 165.813 392.707 164.395 393.684C164.088 393.896 163.77 394.103 163.444 394.307C162.344 394.996 161.139 395.638 159.84 396.233C159.529 396.376 159.212 396.517 158.889 396.653C157.751 397.137 156.547 397.584 155.284 397.992C154.97 398.094 154.654 398.193 154.332 398.289C153.175 398.637 151.972 398.952 150.728 399.232C150.413 399.304 150.097 399.372 149.777 399.439C148.607 399.681 147.405 399.892 146.173 400.071C145.857 400.117 145.541 400.161 145.221 400.201C144.044 400.355 142.841 400.477 141.617 400.568C141.301 400.591 140.985 400.613 140.666 400.632C139.482 400.703 138.28 400.745 137.062 400.756C136.851 400.758 136.638 400.759 136.425 400.759C136.321 400.759 136.215 400.759 136.11 400.757C134.892 400.752 133.69 400.716 132.505 400.651C132.186 400.634 131.869 400.613 131.553 400.591C130.652 400.528 129.761 400.447 128.883 400.351C128.569 400.317 128.258 400.281 127.949 400.242C127.63 400.203 127.313 400.16 126.998 400.115C125.767 399.944 124.564 399.739 123.394 399.503C123.074 399.438 122.757 399.373 122.443 399.302C121.697 399.139 120.967 398.963 120.25 398.775C119.773 398.65 119.303 398.519 118.839 398.383C118.519 398.289 118.201 398.192 117.888 398.093C116.627 397.696 115.423 397.259 114.283 396.787C114.058 396.694 113.835 396.599 113.614 396.503C113.519 396.462 113.425 396.42 113.331 396.378C112.816 396.149 112.314 395.911 111.828 395.666C111.092 395.294 110.391 394.907 109.727 394.505C109.4 394.306 109.084 394.105 108.775 393.901C107.559 393.092 106.487 392.228 105.578 391.317C105.438 391.177 105.302 391.036 105.171 390.894C105.006 390.717 104.847 390.538 104.695 390.358C104.528 390.162 104.371 389.963 104.219 389.762C102.844 387.943 102.093 385.972 102.093 383.917C102.093 383.773 102.097 383.628 102.106 383.484L102.109 371.845L104.219 371.84L105.17 371.837L108.774 371.829L109.726 371.826L112.539 371.82L113.33 371.818L114.281 371.815L117.886 371.807L118.837 371.806L122.441 371.796L123.392 371.794L126.996 371.785L127.947 371.783L131.551 371.775L132.503 371.772L136.108 371.764L137.059 371.761L140.663 371.753L141.614 371.751L145.218 371.742L146.17 371.741L149.774 371.732L150.725 371.73L154.329 371.722L155.281 371.719L158.886 371.711L159.837 371.708H160.071L163.441 371.7L164.392 371.698L167.996 371.689L168.947 371.687L170.739 371.682L170.752 383.762H170.754Z" fill="#517282"/>
<path d="M105.17 371.836V390.893C105.005 390.716 104.846 390.537 104.694 390.357C104.527 390.161 104.37 389.962 104.218 389.761V371.839L105.17 371.836Z" fill="#263940"/>
<path d="M109.726 371.825V394.504C109.399 394.305 109.083 394.104 108.774 393.9V371.828L109.726 371.825Z" fill="#263940"/>
<path d="M114.281 371.814V396.786C114.056 396.693 113.833 396.598 113.612 396.502C113.517 396.461 113.423 396.419 113.329 396.377V371.818L114.281 371.814Z" fill="#263940"/>
<path d="M118.838 371.805V398.382C118.518 398.288 118.2 398.191 117.887 398.092V371.806L118.838 371.805Z" fill="#263940"/>
<path d="M123.393 371.794V399.503C123.073 399.438 122.756 399.373 122.442 399.302V371.796L123.393 371.794Z" fill="#263940"/>
<path d="M127.949 371.783V400.241C127.63 400.202 127.313 400.159 126.998 400.114V371.785L127.949 371.783Z" fill="#263940"/>
<path d="M132.505 371.772V400.65C132.186 400.633 131.869 400.612 131.553 400.59V371.775L132.505 371.772Z" fill="#263940"/>
<path d="M137.061 371.761V400.755C136.85 400.757 136.637 400.758 136.424 400.758C136.32 400.758 136.214 400.758 136.109 400.756V371.764L137.061 371.761Z" fill="#263940"/>
<path d="M141.617 371.752V400.567C141.301 400.59 140.985 400.612 140.666 400.631V371.753L141.617 371.752Z" fill="#263940"/>
<path d="M146.172 371.741V400.07C145.856 400.116 145.54 400.16 145.22 400.2V371.742L146.172 371.741Z" fill="#263940"/>
<path d="M150.728 371.73V399.231C150.413 399.303 150.097 399.371 149.777 399.438V371.731L150.728 371.73Z" fill="#263940"/>
<path d="M155.283 371.719V397.992C154.969 398.094 154.653 398.193 154.331 398.289V371.723L155.283 371.719Z" fill="#263940"/>
<path d="M159.84 371.708V396.233C159.529 396.376 159.212 396.517 158.889 396.653V371.711L159.84 371.708Z" fill="#263940"/>
<path d="M164.395 371.698V393.684C164.088 393.896 163.77 394.103 163.444 394.307V371.7L164.395 371.698Z" fill="#263940"/>
<path d="M168.951 371.687V389.318C168.665 389.734 168.347 390.14 168 390.538V371.688L168.951 371.687Z" fill="#263940"/>
<path d="M170.748 371.854C170.748 381.809 155.385 389.88 136.427 389.88C133.837 389.88 131.314 389.729 128.888 389.443C125.837 389.084 122.94 388.512 120.256 387.757C117.86 387.084 115.635 386.265 113.621 385.324C113.006 385.037 112.41 384.738 111.836 384.428C109.312 383.067 107.196 381.498 105.589 379.774C105.274 379.437 104.979 379.095 104.706 378.747C103.03 376.624 102.105 374.295 102.105 371.853C102.105 371.63 102.113 371.407 102.133 371.184C102.798 361.539 117.898 353.827 136.426 353.827C140.986 353.827 145.337 354.294 149.317 355.142C150.086 355.306 150.841 355.483 151.581 355.675C154.814 356.512 157.758 357.608 160.317 358.912C160.881 359.199 161.426 359.496 161.952 359.803C163.821 360.895 165.44 362.106 166.761 363.414C168.123 364.762 169.169 366.212 169.847 367.737C170.342 368.85 170.641 370.003 170.721 371.185C170.74 371.408 170.748 371.632 170.748 371.854Z" fill="#30434C"/>
<path opacity="0.3" d="M169.847 367.737L128.888 389.444C125.837 389.085 122.94 388.513 120.256 387.758L166.761 363.414C168.122 364.762 169.168 366.212 169.847 367.737Z" fill="white"/>
<path opacity="0.3" d="M151.581 355.676L105.589 379.774C105.274 379.437 104.979 379.095 104.706 378.747L149.317 355.142C150.086 355.307 150.841 355.484 151.581 355.676Z" fill="white"/>
<path opacity="0.3" d="M161.952 359.804L113.622 385.325C113.007 385.038 112.411 384.739 111.837 384.429L160.318 358.913C160.881 359.2 161.426 359.497 161.952 359.804Z" fill="white"/>
<path d="M163.859 371.855C163.859 372.076 163.847 372.297 163.832 372.516C163.17 380.155 151.132 386.262 136.427 386.262C121.722 386.262 109.684 380.155 109.022 372.516C109.007 372.297 108.995 372.076 108.995 371.855C108.995 363.91 121.3 357.447 136.427 357.447C151.553 357.447 163.859 363.91 163.859 371.855Z" fill="#263940"/>
<path d="M163.832 372.516C163.17 380.155 151.132 386.262 136.427 386.262C136.098 386.262 135.772 386.258 135.447 386.252C132.167 386.191 129.032 385.828 126.139 385.211C123.245 384.594 120.597 383.725 118.292 382.655C117.707 382.384 117.144 382.1 116.6 381.803C114.143 380.45 112.176 378.85 110.863 377.077C110.545 376.653 110.266 376.217 110.029 375.775C109.463 374.731 109.122 373.64 109.022 372.516C109.684 364.877 121.722 358.768 136.427 358.768C138.287 358.768 140.105 358.866 141.866 359.053C142.762 359.148 143.646 359.266 144.511 359.407C148.044 359.98 151.274 360.919 154.041 362.139C154.638 362.403 155.216 362.68 155.771 362.971C157.926 364.097 159.728 365.41 161.08 366.859C162.397 368.272 163.285 369.812 163.66 371.435C163.744 371.79 163.801 372.152 163.832 372.516Z" fill="#517282"/>
<path opacity="0.2" d="M163.66 371.435L135.448 386.253C132.168 386.192 129.033 385.829 126.14 385.212L161.081 366.86C162.397 368.272 163.285 369.812 163.66 371.435Z" fill="white"/>
<path opacity="0.2" d="M144.511 359.407L110.864 377.077C110.546 376.653 110.267 376.217 110.03 375.775L141.867 359.053C142.761 359.148 143.646 359.266 144.511 359.407Z" fill="white"/>
<path opacity="0.2" d="M155.771 362.971L118.292 382.655C117.707 382.384 117.144 382.1 116.6 381.803L154.041 362.139C154.638 362.403 155.216 362.68 155.771 362.971Z" fill="white"/>
<path d="M140.242 380.029V382.423H134.453V380.137C130.347 380.007 126.364 379.425 123.901 378.627L127.022 374.918C129.732 375.759 133.345 376.298 136.507 376.298C139.258 376.298 140.243 375.996 140.243 375.478C140.243 373.58 124.353 375.112 124.353 369.483C124.353 367.046 127.72 364.998 134.454 364.502V362.151H140.243V364.459C143.282 364.61 146.238 365.02 148.578 365.71L145.663 369.397C142.83 368.642 140.161 368.276 137.657 368.276C134.824 368.276 133.92 368.707 133.92 369.225C133.92 371.037 149.81 369.527 149.81 375.091C149.809 377.419 146.606 379.446 140.242 380.029Z" fill="#263940"/>
<path d="M140.073 379.232V381.625H134.284V379.339C130.178 379.21 126.195 378.627 123.732 377.83L126.852 374.12C129.562 374.961 133.175 375.5 136.337 375.5C139.088 375.5 140.073 375.198 140.073 374.68C140.073 372.783 124.183 374.314 124.183 368.685C124.183 366.248 127.55 364.2 134.284 363.703V361.353H140.073V363.66C143.111 363.811 146.068 364.221 148.408 364.911L145.493 368.599C142.66 367.844 139.991 367.477 137.486 367.477C134.653 367.477 133.75 367.909 133.75 368.426C133.75 370.238 149.64 368.728 149.64 374.292C149.64 376.623 146.437 378.65 140.073 379.232Z" fill="#30434C"/>
<path d="M169.972 365.237C169.973 365.289 169.973 365.339 169.973 365.391C169.973 367.281 169.338 369.098 168.168 370.793C167.882 371.209 167.564 371.615 167.217 372.013C166.243 373.129 165.032 374.182 163.613 375.159C163.306 375.371 162.988 375.578 162.662 375.782C161.562 376.471 160.357 377.113 159.058 377.708C158.747 377.851 158.43 377.992 158.107 378.128C156.969 378.612 155.765 379.059 154.502 379.467C154.188 379.569 153.872 379.668 153.55 379.764C152.393 380.112 151.19 380.427 149.946 380.706C149.631 380.778 149.315 380.846 148.995 380.913C147.825 381.154 146.623 381.366 145.391 381.545C145.075 381.591 144.759 381.635 144.44 381.675C143.262 381.829 142.059 381.951 140.836 382.042C140.52 382.065 140.204 382.087 139.885 382.106C138.701 382.177 137.499 382.219 136.281 382.23C136.07 382.232 135.857 382.233 135.644 382.233C135.54 382.233 135.434 382.233 135.329 382.231C134.111 382.226 132.909 382.19 131.724 382.125C131.405 382.108 131.088 382.087 130.772 382.065C129.871 382.002 128.98 381.921 128.102 381.825C127.789 381.791 127.477 381.755 127.168 381.716C126.849 381.677 126.532 381.634 126.217 381.589C124.986 381.418 123.783 381.213 122.613 380.978C122.293 380.914 121.976 380.848 121.662 380.777C120.916 380.614 120.186 380.438 119.469 380.25C118.992 380.125 118.522 379.994 118.058 379.858C117.738 379.764 117.42 379.667 117.107 379.568C115.846 379.171 114.642 378.734 113.502 378.262C113.277 378.169 113.054 378.074 112.833 377.978C112.738 377.937 112.644 377.895 112.55 377.853C112.035 377.624 111.533 377.386 111.047 377.141C110.311 376.769 109.61 376.382 108.946 375.981C108.62 375.782 108.303 375.581 107.995 375.377C106.779 374.568 105.707 373.704 104.798 372.793C104.658 372.653 104.522 372.512 104.391 372.369C104.226 372.192 104.067 372.013 103.915 371.833C103.749 371.637 103.591 371.438 103.439 371.237C102.064 369.418 101.313 367.447 101.313 365.392C101.313 365.248 101.317 365.104 101.326 364.959L101.329 353.32L103.439 353.315L104.39 353.312L107.994 353.304L108.945 353.301L111.758 353.295L112.549 353.293L113.5 353.29L117.105 353.282L118.056 353.281L121.66 353.272L122.611 353.27L126.215 353.261L127.166 353.26L130.77 353.252L131.722 353.249L135.327 353.241L136.278 353.238L139.882 353.23L140.833 353.228L144.437 353.219L145.388 353.218L148.992 353.209L149.943 353.208L153.547 353.2L154.499 353.197L158.104 353.189L159.055 353.186H159.29L162.659 353.178L163.61 353.176L167.214 353.167L168.165 353.165L169.957 353.16L169.97 365.24H169.972V365.237Z" fill="#517282"/>
<path d="M104.387 353.311V372.367C104.222 372.19 104.063 372.011 103.911 371.831C103.745 371.635 103.587 371.436 103.435 371.235V353.313L104.387 353.311Z" fill="#263940"/>
<path d="M108.943 353.3V375.979C108.617 375.78 108.3 375.579 107.992 375.375V353.303L108.943 353.3Z" fill="#263940"/>
<path d="M113.498 353.289V378.261C113.273 378.168 113.05 378.073 112.829 377.977C112.734 377.936 112.64 377.894 112.546 377.852V353.293L113.498 353.289Z" fill="#263940"/>
<path d="M118.055 353.279V379.856C117.735 379.762 117.417 379.665 117.104 379.566V353.28L118.055 353.279Z" fill="#263940"/>
<path d="M122.611 353.268V380.977C122.291 380.913 121.974 380.847 121.66 380.776V353.27L122.611 353.268Z" fill="#263940"/>
<path d="M127.166 353.257V381.715C126.847 381.676 126.53 381.633 126.215 381.588V353.259L127.166 353.257Z" fill="#263940"/>
<path d="M131.722 353.247V382.125C131.403 382.108 131.086 382.087 130.77 382.065V353.25L131.722 353.247Z" fill="#263940"/>
<path d="M136.278 353.236V382.23C136.067 382.232 135.854 382.233 135.641 382.233C135.537 382.233 135.431 382.233 135.326 382.231V353.239L136.278 353.236Z" fill="#263940"/>
<path d="M140.834 353.226V382.041C140.518 382.064 140.202 382.086 139.883 382.105V353.227L140.834 353.226Z" fill="#263940"/>
<path d="M145.389 353.215V381.544C145.073 381.59 144.757 381.634 144.438 381.674V353.216L145.389 353.215Z" fill="#263940"/>
<path d="M149.945 353.204V380.705C149.63 380.777 149.314 380.845 148.994 380.912V353.205L149.945 353.204Z" fill="#263940"/>
<path d="M154.5 353.193V379.466C154.186 379.568 153.87 379.667 153.548 379.763V353.196L154.5 353.193Z" fill="#263940"/>
<path d="M159.057 353.182V377.707C158.746 377.85 158.429 377.991 158.106 378.127V353.185L159.057 353.182Z" fill="#263940"/>
<path d="M163.612 353.172V375.158C163.305 375.37 162.987 375.577 162.661 375.781V353.174L163.612 353.172Z" fill="#263940"/>
<path d="M168.168 353.162V370.793C167.882 371.209 167.564 371.615 167.217 372.013V353.163L168.168 353.162Z" fill="#263940"/>
<path d="M169.965 353.329C169.965 363.284 154.602 371.355 135.644 371.355C133.054 371.355 130.531 371.204 128.105 370.918C125.054 370.56 122.157 369.987 119.473 369.232C117.077 368.559 114.852 367.74 112.839 366.799C112.224 366.512 111.628 366.213 111.054 365.903C108.53 364.542 106.414 362.973 104.807 361.249C104.492 360.912 104.197 360.57 103.924 360.222C102.248 358.099 101.323 355.77 101.323 353.328C101.323 353.105 101.332 352.882 101.351 352.659C102.016 343.014 117.116 335.302 135.644 335.302C140.204 335.302 144.555 335.769 148.535 336.617C149.304 336.781 150.059 336.958 150.799 337.151C154.032 337.988 156.976 339.084 159.535 340.388C160.099 340.675 160.644 340.972 161.17 341.279C163.039 342.371 164.658 343.582 165.979 344.89C167.341 346.238 168.387 347.688 169.065 349.213C169.56 350.326 169.859 351.479 169.939 352.661C169.957 352.882 169.965 353.106 169.965 353.329Z" fill="#30434C"/>
<path opacity="0.3" d="M169.064 349.211L128.105 370.918C125.054 370.56 122.157 369.987 119.473 369.232L165.978 344.888C167.34 346.237 168.386 347.687 169.064 349.211Z" fill="white"/>
<path opacity="0.3" d="M150.798 337.151L104.806 361.249C104.491 360.912 104.196 360.57 103.923 360.222L148.534 336.617C149.303 336.781 150.058 336.959 150.798 337.151Z" fill="white"/>
<path opacity="0.3" d="M161.169 341.278L112.839 366.799C112.224 366.512 111.628 366.213 111.054 365.903L159.535 340.387C160.098 340.674 160.643 340.971 161.169 341.278Z" fill="white"/>
<path d="M163.076 353.329C163.076 353.55 163.064 353.771 163.049 353.99C162.387 361.629 150.349 367.736 135.644 367.736C120.939 367.736 108.901 361.629 108.239 353.99C108.224 353.771 108.212 353.55 108.212 353.329C108.212 345.384 120.517 338.921 135.644 338.921C150.77 338.922 163.076 345.385 163.076 353.329Z" fill="#263940"/>
<path d="M163.049 353.991C162.387 361.63 150.349 367.737 135.644 367.737C135.315 367.737 134.989 367.733 134.664 367.727C131.384 367.667 128.249 367.303 125.356 366.686C122.462 366.069 119.814 365.2 117.509 364.131C116.923 363.859 116.361 363.576 115.817 363.279C113.36 361.926 111.393 360.326 110.08 358.553C109.762 358.129 109.483 357.693 109.246 357.251C108.679 356.207 108.339 355.116 108.239 353.992C108.901 346.353 120.939 340.244 135.644 340.244C137.504 340.244 139.322 340.342 141.083 340.529C141.979 340.624 142.863 340.742 143.728 340.883C147.261 341.456 150.491 342.395 153.258 343.615C153.855 343.879 154.433 344.156 154.988 344.447C157.143 345.573 158.945 346.886 160.297 348.335C161.614 349.748 162.502 351.288 162.877 352.911C162.961 353.265 163.018 353.627 163.049 353.991Z" fill="#517282"/>
<path opacity="0.2" d="M162.877 352.909L134.665 367.727C131.385 367.667 128.25 367.303 125.357 366.686L160.298 348.334C161.614 349.747 162.502 351.287 162.877 352.909Z" fill="white"/>
<path opacity="0.2" d="M143.728 340.882L110.081 358.552C109.763 358.128 109.484 357.692 109.247 357.25L141.084 340.528C141.979 340.622 142.863 340.741 143.728 340.882Z" fill="white"/>
<path opacity="0.2" d="M154.988 344.446L117.509 364.13C116.923 363.858 116.361 363.575 115.817 363.278L153.258 343.613C153.855 343.877 154.433 344.154 154.988 344.446Z" fill="white"/>
<path d="M139.459 361.503V363.897H133.67V361.611C129.564 361.481 125.581 360.899 123.118 360.101L126.238 356.392C128.948 357.233 132.561 357.772 135.723 357.772C138.474 357.772 139.459 357.47 139.459 356.952C139.459 355.054 123.569 356.586 123.569 350.957C123.569 348.52 126.936 346.472 133.67 345.976V343.625H139.459V345.933C142.498 346.084 145.454 346.494 147.794 347.184L144.879 350.871C142.046 350.116 139.377 349.75 136.872 349.75C134.039 349.75 133.135 350.181 133.135 350.699C133.135 352.511 149.025 351.001 149.025 356.565C149.026 358.894 145.823 360.921 139.459 361.503Z" fill="#263940"/>
<path d="M139.29 360.707V363.1H133.501V360.814C129.395 360.685 125.412 360.102 122.949 359.305L126.069 355.595C128.779 356.436 132.392 356.975 135.554 356.975C138.305 356.975 139.29 356.673 139.29 356.155C139.29 354.257 123.4 355.789 123.4 350.16C123.4 347.723 126.767 345.675 133.501 345.178V342.828H139.29V345.135C142.328 345.286 145.285 345.696 147.625 346.386L144.71 350.074C141.877 349.319 139.208 348.952 136.703 348.952C133.87 348.952 132.967 349.383 132.967 349.901C132.967 351.712 148.857 350.203 148.857 355.767C148.857 358.098 145.654 360.124 139.29 360.707Z" fill="#30434C"/>
<path d="M174.212 347.177C174.213 347.229 174.213 347.279 174.213 347.331C174.213 349.221 173.578 351.038 172.408 352.733C172.122 353.149 171.804 353.555 171.457 353.953C170.483 355.069 169.272 356.122 167.853 357.099C167.546 357.311 167.228 357.518 166.901 357.722C165.801 358.411 164.596 359.053 163.297 359.648C162.986 359.791 162.669 359.932 162.345 360.068C161.207 360.552 160.003 361 158.74 361.407C158.426 361.509 158.11 361.608 157.789 361.704C156.632 362.052 155.429 362.367 154.185 362.647C153.87 362.719 153.554 362.787 153.234 362.854C152.064 363.095 150.862 363.307 149.63 363.486C149.314 363.532 148.998 363.576 148.679 363.616C147.502 363.77 146.298 363.892 145.075 363.983C144.759 364.006 144.443 364.028 144.124 364.047C142.94 364.118 141.738 364.16 140.52 364.171C140.309 364.173 140.096 364.174 139.883 364.174C139.779 364.174 139.673 364.174 139.568 364.172C138.35 364.168 137.148 364.131 135.963 364.066C135.644 364.049 135.327 364.028 135.011 364.006C134.11 363.943 133.219 363.862 132.341 363.766C132.028 363.732 131.716 363.696 131.407 363.657C131.088 363.618 130.771 363.575 130.456 363.53C129.225 363.359 128.022 363.154 126.852 362.919C126.532 362.855 126.215 362.789 125.901 362.718C125.155 362.555 124.425 362.379 123.708 362.191C123.231 362.066 122.761 361.935 122.297 361.799C121.977 361.705 121.659 361.608 121.346 361.509C120.085 361.112 118.881 360.675 117.741 360.203C117.516 360.11 117.293 360.015 117.072 359.919C116.977 359.878 116.883 359.836 116.789 359.794C116.274 359.565 115.772 359.327 115.286 359.082C114.55 358.71 113.849 358.323 113.185 357.922C112.858 357.723 112.542 357.522 112.233 357.318C111.017 356.509 109.945 355.645 109.036 354.734C108.896 354.594 108.76 354.453 108.628 354.311C108.463 354.134 108.304 353.955 108.152 353.775C107.985 353.579 107.828 353.38 107.676 353.179C106.301 351.36 105.55 349.389 105.55 347.334C105.55 347.19 105.554 347.045 105.563 346.901L105.566 335.262L107.676 335.257L108.627 335.254L112.231 335.246L113.183 335.243L115.996 335.237L116.787 335.235L117.738 335.232L121.343 335.224L122.294 335.223L125.898 335.214L126.849 335.212L130.453 335.203L131.404 335.201L135.008 335.193L135.96 335.19L139.565 335.182L140.516 335.179L144.12 335.171L145.071 335.169L148.675 335.16L149.626 335.159L153.23 335.15L154.181 335.149L157.785 335.141L158.736 335.138L162.341 335.13L163.293 335.127H163.527L166.896 335.119L167.848 335.117L171.452 335.108L172.403 335.106L174.195 335.101L174.208 347.181H174.212V347.177Z" fill="#517282"/>
<path d="M108.628 335.251V354.307C108.463 354.13 108.304 353.951 108.152 353.771C107.985 353.575 107.828 353.376 107.676 353.175V335.253L108.628 335.251Z" fill="#263940"/>
<path d="M113.184 335.24V357.919C112.857 357.72 112.541 357.519 112.232 357.315V335.243L113.184 335.24Z" fill="#263940"/>
<path d="M117.739 335.229V360.201C117.514 360.108 117.291 360.013 117.07 359.917C116.975 359.876 116.881 359.834 116.787 359.792V335.233L117.739 335.229Z" fill="#263940"/>
<path d="M122.296 335.219V361.796C121.976 361.702 121.658 361.605 121.345 361.506V335.22L122.296 335.219Z" fill="#263940"/>
<path d="M126.851 335.208V362.917C126.531 362.853 126.214 362.787 125.9 362.716V335.21L126.851 335.208Z" fill="#263940"/>
<path d="M131.407 335.197V363.655C131.088 363.616 130.771 363.573 130.456 363.528V335.199L131.407 335.197Z" fill="#263940"/>
<path d="M135.963 335.187V364.065C135.644 364.048 135.327 364.027 135.011 364.005V335.19L135.963 335.187Z" fill="#263940"/>
<path d="M140.519 335.176V364.17C140.308 364.172 140.095 364.173 139.882 364.173C139.778 364.173 139.672 364.173 139.567 364.171V335.179L140.519 335.176Z" fill="#263940"/>
<path d="M145.075 335.166V363.981C144.759 364.004 144.443 364.026 144.124 364.045V335.167L145.075 335.166Z" fill="#263940"/>
<path d="M149.63 335.155V363.484C149.314 363.53 148.998 363.574 148.679 363.614V335.156L149.63 335.155Z" fill="#263940"/>
<path d="M154.186 335.144V362.645C153.871 362.717 153.555 362.785 153.235 362.852V335.145L154.186 335.144Z" fill="#263940"/>
<path d="M158.741 335.133V361.406C158.427 361.508 158.111 361.607 157.79 361.703V335.136L158.741 335.133Z" fill="#263940"/>
<path d="M163.298 335.122V359.647C162.987 359.79 162.67 359.931 162.346 360.067V335.125L163.298 335.122Z" fill="#263940"/>
<path d="M167.853 335.113V357.099C167.546 357.311 167.228 357.518 166.901 357.722V335.115L167.853 335.113Z" fill="#263940"/>
<path d="M172.409 335.102V352.733C172.123 353.149 171.805 353.555 171.458 353.953V335.103L172.409 335.102Z" fill="#263940"/>
<path d="M174.206 335.269C174.206 345.224 158.843 353.295 139.885 353.295C137.295 353.295 134.772 353.144 132.346 352.858C129.295 352.499 126.398 351.927 123.714 351.172C121.318 350.499 119.092 349.68 117.079 348.739C116.464 348.452 115.868 348.153 115.294 347.843C112.77 346.482 110.654 344.913 109.047 343.189C108.733 342.853 108.437 342.51 108.164 342.162C106.488 340.039 105.563 337.71 105.563 335.268C105.563 335.045 105.571 334.822 105.591 334.599C106.256 324.954 121.356 317.242 139.884 317.242C144.444 317.242 148.795 317.709 152.775 318.557C153.544 318.721 154.299 318.898 155.039 319.091C158.272 319.928 161.216 321.024 163.775 322.328C164.339 322.615 164.884 322.912 165.41 323.219C167.279 324.311 168.898 325.522 170.219 326.83C171.581 328.178 172.627 329.628 173.305 331.153C173.8 332.266 174.098 333.419 174.179 334.601C174.198 334.822 174.206 335.046 174.206 335.269Z" fill="#30434C"/>
<path opacity="0.3" d="M173.305 331.151L132.346 352.858C129.295 352.499 126.398 351.927 123.714 351.172L170.219 326.828C171.58 328.177 172.626 329.627 173.305 331.151Z" fill="white"/>
<path opacity="0.3" d="M155.039 319.091L109.047 343.189C108.733 342.853 108.437 342.51 108.164 342.162L152.775 318.557C153.544 318.721 154.299 318.899 155.039 319.091Z" fill="white"/>
<path opacity="0.3" d="M165.41 323.218L117.08 348.739C116.465 348.452 115.869 348.153 115.295 347.843L163.776 322.327C164.339 322.614 164.884 322.911 165.41 323.218Z" fill="white"/>
<path d="M167.317 335.269C167.317 335.49 167.305 335.711 167.29 335.93C166.628 343.569 154.591 349.676 139.885 349.676C125.18 349.676 113.142 343.569 112.48 335.93C112.465 335.711 112.453 335.49 112.453 335.269C112.453 327.324 124.758 320.861 139.885 320.861C155.011 320.862 167.317 327.325 167.317 335.269Z" fill="#263940"/>
<path d="M167.29 335.931C166.628 343.57 154.591 349.677 139.885 349.677C139.556 349.677 139.23 349.673 138.905 349.667C135.625 349.606 132.49 349.243 129.597 348.626C126.703 348.009 124.055 347.14 121.751 346.071C121.165 345.8 120.603 345.516 120.059 345.219C117.602 343.866 115.635 342.266 114.322 340.493C114.004 340.069 113.725 339.633 113.488 339.191C112.921 338.147 112.581 337.056 112.481 335.932C113.143 328.293 125.181 322.184 139.886 322.184C141.746 322.184 143.564 322.282 145.325 322.469C146.221 322.564 147.105 322.682 147.97 322.823C151.503 323.396 154.733 324.335 157.5 325.555C158.097 325.819 158.675 326.096 159.23 326.387C161.385 327.513 163.187 328.826 164.539 330.275C165.856 331.688 166.744 333.228 167.119 334.851C167.202 335.205 167.259 335.567 167.29 335.931Z" fill="#517282"/>
<path opacity="0.2" d="M167.118 334.849L138.906 349.667C135.626 349.606 132.491 349.243 129.598 348.626L164.539 330.274C165.855 331.687 166.743 333.227 167.118 334.849Z" fill="white"/>
<path opacity="0.2" d="M147.969 322.822L114.322 340.492C114.004 340.068 113.725 339.632 113.488 339.19L145.325 322.468C146.219 322.562 147.104 322.681 147.969 322.822Z" fill="white"/>
<path opacity="0.2" d="M159.229 326.386L121.75 346.07C121.164 345.799 120.602 345.515 120.058 345.218L157.499 325.553C158.096 325.817 158.674 326.094 159.229 326.386Z" fill="white"/>
<path d="M143.7 343.443V345.837H137.911V343.551C133.805 343.421 129.822 342.839 127.359 342.041L130.48 338.332C133.19 339.173 136.803 339.712 139.965 339.712C142.716 339.712 143.701 339.41 143.701 338.892C143.701 336.994 127.811 338.526 127.811 332.897C127.811 330.46 131.178 328.412 137.912 327.916V325.565H143.701V327.873C146.74 328.024 149.696 328.434 152.036 329.124L149.121 332.811C146.288 332.056 143.619 331.69 141.114 331.69C138.281 331.69 137.377 332.121 137.377 332.639C137.377 334.451 153.267 332.941 153.267 338.505C153.267 340.834 150.064 342.861 143.7 343.443Z" fill="#263940"/>
<path d="M143.531 342.647V345.04H137.742V342.754C133.636 342.625 129.653 342.042 127.19 341.245L130.31 337.535C133.02 338.376 136.633 338.915 139.795 338.915C142.546 338.915 143.531 338.613 143.531 338.095C143.531 336.198 127.641 337.729 127.641 332.1C127.641 329.663 131.008 327.615 137.742 327.118V324.768H143.531V327.075C146.569 327.226 149.526 327.636 151.866 328.326L148.951 332.014C146.118 331.259 143.449 330.892 140.944 330.892C138.111 330.892 137.208 331.323 137.208 331.841C137.208 333.653 153.098 332.143 153.098 337.707C153.098 340.038 149.895 342.064 143.531 342.647Z" fill="#30434C"/>
<path d="M76.538 430.701C97.9998 430.701 115.398 421.728 115.398 410.659C115.398 399.59 97.9998 390.617 76.538 390.617C55.0762 390.617 37.678 399.59 37.678 410.659C37.678 421.728 55.0762 430.701 76.538 430.701Z" fill="#C3C3C3" fill-opacity="0.06"/>
<path d="M110.707 409.25C110.708 409.302 110.708 409.352 110.708 409.404C110.708 411.294 110.073 413.111 108.903 414.806C108.617 415.222 108.299 415.628 107.952 416.026C106.978 417.142 105.767 418.195 104.348 419.172C104.041 419.384 103.723 419.591 103.396 419.795C102.296 420.483 101.091 421.126 99.7921 421.721C99.4811 421.864 99.1641 422.005 98.8411 422.141C97.7031 422.625 96.4991 423.072 95.2361 423.48C94.9221 423.582 94.6061 423.681 94.2851 423.777C93.1281 424.125 91.9251 424.44 90.6811 424.72C90.3661 424.792 90.0501 424.86 89.7301 424.927C88.5601 425.169 87.3581 425.38 86.1261 425.559C85.8101 425.605 85.4941 425.649 85.1751 425.689C83.9981 425.843 82.7941 425.965 81.5711 426.056C81.2551 426.079 80.9391 426.101 80.6201 426.12C79.4361 426.191 78.2341 426.233 77.0161 426.244C76.8051 426.246 76.5921 426.247 76.3791 426.247C76.2751 426.247 76.1691 426.247 76.0641 426.245C74.8461 426.24 73.6441 426.204 72.4591 426.139C72.1401 426.122 71.8231 426.101 71.5071 426.079C70.6061 426.016 69.7151 425.935 68.8371 425.839C68.5231 425.805 68.2121 425.769 67.9031 425.729C67.5841 425.69 67.2671 425.648 66.9521 425.602C65.7211 425.431 64.5181 425.226 63.3481 424.991C63.0281 424.926 62.7111 424.861 62.3971 424.79C61.6511 424.627 60.9211 424.451 60.2041 424.263C59.7271 424.138 59.2571 424.007 58.7931 423.871C58.4731 423.777 58.1551 423.68 57.8421 423.581C56.5811 423.184 55.3771 422.747 54.2371 422.275C54.0121 422.182 53.7891 422.087 53.5681 421.991C53.4731 421.95 53.3791 421.908 53.2851 421.865C52.7701 421.636 52.2681 421.398 51.7821 421.153C51.0461 420.782 50.3451 420.394 49.6811 419.993C49.3551 419.794 49.0381 419.593 48.7301 419.389C47.5141 418.58 46.4421 417.716 45.5331 416.805C45.3931 416.665 45.2571 416.524 45.1261 416.382C44.9611 416.205 44.8021 416.026 44.6501 415.846C44.4831 415.65 44.3261 415.451 44.1741 415.25C42.7991 413.431 42.0481 411.46 42.0481 409.405C42.0481 409.261 42.0521 409.116 42.0611 408.972L42.0641 397.333L44.1741 397.328L45.1251 397.325L48.7291 397.317L49.6801 397.314L52.4931 397.308L53.2841 397.306L54.2361 397.303L57.8411 397.295L58.7921 397.294L62.3961 397.285L63.3471 397.283L66.9511 397.274L67.9021 397.272L71.5061 397.264L72.4581 397.261L76.0631 397.253L77.0141 397.25L80.6181 397.242L81.5691 397.24L85.1731 397.231L86.1241 397.23L89.7281 397.221L90.6791 397.22L94.2831 397.212L95.2341 397.209L98.8391 397.201L99.7901 397.198H100.025L103.394 397.19L104.346 397.188L107.95 397.179L108.901 397.177L110.693 397.172L110.706 409.252L110.707 409.25Z" fill="#517282"/>
<path d="M45.1231 397.324V416.381C44.9581 416.204 44.7991 416.025 44.6471 415.845C44.4801 415.649 44.3231 415.45 44.1711 415.249V397.327L45.1231 397.324Z" fill="#263940"/>
<path d="M49.679 397.313V419.992C49.353 419.793 49.036 419.592 48.728 419.388V397.316L49.679 397.313Z" fill="#263940"/>
<path d="M54.2342 397.302V422.274C54.0092 422.181 53.7862 422.086 53.5652 421.99C53.4702 421.949 53.3762 421.907 53.2822 421.864V397.305L54.2342 397.302Z" fill="#263940"/>
<path d="M58.7911 397.293V423.87C58.4711 423.776 58.1531 423.679 57.8401 423.58V397.294L58.7911 397.293Z" fill="#263940"/>
<path d="M63.346 397.282V424.991C63.026 424.926 62.709 424.861 62.395 424.79V397.284L63.346 397.282Z" fill="#263940"/>
<path d="M67.9022 397.271V425.729C67.5832 425.69 67.2662 425.648 66.9512 425.602V397.273L67.9022 397.271Z" fill="#263940"/>
<path d="M72.4571 397.26V426.138C72.1381 426.121 71.8211 426.1 71.5051 426.078V397.263L72.4571 397.26Z" fill="#263940"/>
<path d="M77.0143 397.249V426.243C76.8033 426.245 76.5903 426.246 76.3773 426.246C76.2733 426.246 76.1673 426.246 76.0623 426.244V397.252L77.0143 397.249Z" fill="#263940"/>
<path d="M81.5692 397.24V426.055C81.2532 426.078 80.9372 426.1 80.6182 426.119V397.241L81.5692 397.24Z" fill="#263940"/>
<path d="M86.1251 397.229V425.558C85.8091 425.604 85.4931 425.648 85.1741 425.688V397.23L86.1251 397.229Z" fill="#263940"/>
<path d="M90.6803 397.218V424.719C90.3653 424.791 90.0492 424.859 89.7292 424.926V397.219L90.6803 397.218Z" fill="#263940"/>
<path d="M95.2362 397.207V423.48C94.9222 423.582 94.6062 423.681 94.2852 423.777V397.211L95.2362 397.207Z" fill="#263940"/>
<path d="M99.7921 397.196V421.721C99.4811 421.864 99.1641 422.005 98.8411 422.141V397.199L99.7921 397.196Z" fill="#263940"/>
<path d="M104.348 397.186V419.172C104.041 419.384 103.723 419.591 103.396 419.795V397.188L104.348 397.186Z" fill="#263940"/>
<path d="M108.903 397.175V414.806C108.617 415.222 108.299 415.628 107.952 416.026V397.176L108.903 397.175Z" fill="#263940"/>
<path d="M110.7 397.342C110.7 407.297 95.3371 415.368 76.3791 415.368C73.7891 415.368 71.2661 415.217 68.8401 414.931C65.7891 414.572 62.8921 414 60.2081 413.245C57.8121 412.572 55.5871 411.753 53.5741 410.812C52.9591 410.525 52.3631 410.226 51.7891 409.916C49.2651 408.555 47.1491 406.986 45.5421 405.262C45.2271 404.925 44.9321 404.583 44.6591 404.235C42.9831 402.112 42.0581 399.783 42.0581 397.341C42.0581 397.118 42.0661 396.895 42.0861 396.672C42.7511 387.027 57.8511 379.315 76.3791 379.315C80.9391 379.315 85.2901 379.782 89.2701 380.629C90.0391 380.793 90.7941 380.97 91.5341 381.162C94.7671 381.999 97.7111 383.095 100.27 384.399C100.834 384.686 101.379 384.983 101.905 385.29C103.774 386.382 105.393 387.593 106.714 388.901C108.076 390.249 109.122 391.699 109.8 393.224C110.295 394.337 110.593 395.49 110.674 396.672C110.693 396.896 110.7 397.119 110.7 397.342Z" fill="#30434C"/>
<path opacity="0.3" d="M109.799 393.225L68.84 414.932C65.789 414.573 62.892 414.001 60.208 413.246L106.713 388.902C108.075 390.25 109.121 391.7 109.799 393.225Z" fill="white"/>
<path opacity="0.3" d="M91.5332 381.164L45.5412 405.262C45.2262 404.925 44.9312 404.583 44.6582 404.235L89.2692 380.63C90.0382 380.795 90.7932 380.972 91.5332 381.164Z" fill="white"/>
<path opacity="0.3" d="M101.904 385.292L53.5741 410.813C52.9591 410.526 52.3631 410.227 51.7891 409.917L100.27 384.401C100.834 384.688 101.379 384.985 101.904 385.292Z" fill="white"/>
<path d="M103.811 397.343C103.811 397.564 103.799 397.785 103.784 398.004C103.122 405.643 91.084 411.75 76.379 411.75C61.674 411.75 49.636 405.643 48.974 398.004C48.959 397.785 48.947 397.564 48.947 397.343C48.947 389.399 61.252 382.935 76.379 382.935C91.506 382.935 103.811 389.398 103.811 397.343Z" fill="#263940"/>
<path d="M103.785 398.004C103.123 405.643 91.0851 411.75 76.3801 411.75C76.0511 411.75 75.7251 411.746 75.4001 411.74C72.1201 411.679 68.9851 411.316 66.0921 410.699C63.1981 410.082 60.5501 409.213 58.2451 408.143C57.6601 407.872 57.0971 407.588 56.5531 407.291C54.0961 405.938 52.1291 404.338 50.8161 402.565C50.4981 402.141 50.2191 401.705 49.9811 401.263C49.4151 400.22 49.0741 399.128 48.9741 398.004C49.6361 390.365 61.6741 384.256 76.3791 384.256C78.2391 384.256 80.0571 384.354 81.8181 384.541C82.7141 384.636 83.5981 384.754 84.4631 384.895C87.9961 385.468 91.2261 386.407 93.9931 387.627C94.5901 387.891 95.1681 388.168 95.7231 388.459C97.8781 389.585 99.6801 390.898 101.032 392.347C102.349 393.76 103.237 395.3 103.612 396.923C103.696 397.278 103.754 397.64 103.785 398.004Z" fill="#517282"/>
<path opacity="0.2" d="M103.612 396.923L75.4 411.741C72.12 411.68 68.985 411.317 66.092 410.7L101.033 392.348C102.349 393.76 103.237 395.3 103.612 396.923Z" fill="white"/>
<path opacity="0.2" d="M84.4632 384.895L50.8162 402.565C50.4982 402.141 50.2192 401.705 49.9812 401.263L81.8182 384.541C82.7142 384.636 83.5982 384.754 84.4632 384.895Z" fill="white"/>
<path opacity="0.2" d="M95.7242 388.459L58.2452 408.143C57.6602 407.872 57.0972 407.588 56.5532 407.291L93.9932 387.627C94.5912 387.89 95.1692 388.168 95.7242 388.459Z" fill="white"/>
<path d="M80.194 405.517V407.911H74.405V405.625C70.299 405.495 66.316 404.913 63.853 404.115L66.973 400.406C69.683 401.247 73.296 401.786 76.458 401.786C79.209 401.786 80.194 401.484 80.194 400.966C80.194 399.068 64.304 400.6 64.304 394.971C64.304 392.534 67.671 390.486 74.405 389.99V387.639H80.194V389.947C83.233 390.098 86.189 390.508 88.529 391.198L85.614 394.885C82.781 394.13 80.112 393.764 77.607 393.764C74.774 393.764 73.87 394.195 73.87 394.713C73.87 396.525 89.76 395.015 89.76 400.579C89.761 402.907 86.558 404.934 80.194 405.517Z" fill="#263940"/>
<path d="M80.0261 404.721V407.114H74.2371V404.828C70.1311 404.699 66.1481 404.116 63.6851 403.319L66.8051 399.609C69.5151 400.45 73.1281 400.989 76.2901 400.989C79.0411 400.989 80.0261 400.687 80.0261 400.169C80.0261 398.271 64.1361 399.803 64.1361 394.174C64.1361 391.737 67.5031 389.689 74.2371 389.192V386.842H80.0261V389.149C83.0641 389.3 86.0211 389.71 88.3611 390.4L85.4461 394.088C82.6131 393.333 79.9441 392.966 77.4391 392.966C74.6061 392.966 73.7031 393.397 73.7031 393.915C73.7031 395.726 89.5931 394.217 89.5931 399.781C89.5931 402.111 86.3901 404.138 80.0261 404.721Z" fill="#30434C"/>
<path d="M118.9 396.133C118.901 396.185 118.901 396.235 118.901 396.287C118.901 398.177 118.266 399.994 117.096 401.689C116.81 402.105 116.492 402.511 116.145 402.909C115.171 404.025 113.96 405.078 112.541 406.055C112.234 406.267 111.916 406.474 111.589 406.678C110.489 407.367 109.284 408.009 107.985 408.604C107.674 408.747 107.357 408.888 107.034 409.024C105.896 409.508 104.692 409.955 103.429 410.363C103.115 410.465 102.799 410.564 102.478 410.66C101.321 411.008 100.118 411.323 98.874 411.603C98.559 411.675 98.243 411.743 97.923 411.81C96.753 412.051 95.551 412.263 94.319 412.442C94.003 412.488 93.687 412.532 93.368 412.572C92.191 412.726 90.987 412.848 89.764 412.939C89.448 412.962 89.132 412.984 88.813 413.003C87.629 413.074 86.427 413.116 85.209 413.127C84.998 413.129 84.785 413.13 84.572 413.13C84.467 413.13 84.362 413.13 84.257 413.128C83.039 413.124 81.837 413.087 80.652 413.022C80.333 413.005 80.016 412.984 79.7 412.962C78.799 412.899 77.908 412.818 77.03 412.722C76.716 412.688 76.405 412.652 76.096 412.613C75.777 412.574 75.46 412.531 75.145 412.486C73.914 412.315 72.711 412.11 71.541 411.875C71.221 411.811 70.904 411.745 70.59 411.674C69.844 411.511 69.114 411.335 68.397 411.147C67.92 411.022 67.45 410.891 66.986 410.755C66.666 410.661 66.348 410.564 66.035 410.465C64.774 410.068 63.57 409.631 62.43 409.159C62.205 409.066 61.982 408.971 61.761 408.875C61.666 408.834 61.572 408.792 61.478 408.75C60.963 408.521 60.461 408.283 59.975 408.038C59.239 407.666 58.538 407.279 57.874 406.878C57.548 406.679 57.231 406.478 56.922 406.274C55.706 405.465 54.634 404.601 53.725 403.69C53.585 403.55 53.449 403.409 53.318 403.267C53.153 403.09 52.994 402.911 52.842 402.731C52.675 402.535 52.518 402.336 52.366 402.135C50.991 400.316 50.24 398.345 50.24 396.29C50.24 396.146 50.244 396.002 50.253 395.857L50.256 384.218L52.366 384.213L53.317 384.21L56.921 384.202L57.873 384.199L60.686 384.193L61.477 384.191L62.429 384.188L66.034 384.18L66.985 384.179L70.589 384.17L71.54 384.168L75.144 384.159L76.095 384.158L79.699 384.15L80.651 384.147L84.256 384.139L85.207 384.136L88.811 384.128L89.762 384.126L93.366 384.117L94.317 384.116L97.921 384.107L98.872 384.106L102.476 384.098L103.427 384.095L107.032 384.087L107.983 384.084H108.218L111.587 384.076L112.539 384.074L116.143 384.065L117.094 384.063L118.886 384.058L118.899 396.138L118.9 396.133Z" fill="#517282"/>
<path d="M53.316 384.207V403.263C53.151 403.086 52.992 402.907 52.84 402.727C52.673 402.531 52.516 402.332 52.364 402.131V384.21L53.316 384.207Z" fill="#263940"/>
<path d="M57.8719 384.196V406.875C57.5459 406.676 57.2289 406.475 56.9199 406.271V384.199L57.8719 384.196Z" fill="#263940"/>
<path d="M62.4271 384.185V409.157C62.2021 409.064 61.9791 408.969 61.7581 408.873C61.6631 408.832 61.5691 408.79 61.4751 408.748V384.189L62.4271 384.185Z" fill="#263940"/>
<path d="M66.984 384.175V410.752C66.664 410.658 66.346 410.561 66.033 410.462V384.176L66.984 384.175Z" fill="#263940"/>
<path d="M71.5389 384.164V411.873C71.2189 411.809 70.9019 411.743 70.5879 411.672V384.166L71.5389 384.164Z" fill="#263940"/>
<path d="M76.095 384.153V412.611C75.776 412.572 75.459 412.529 75.144 412.484V384.155L76.095 384.153Z" fill="#263940"/>
<path d="M80.65 384.142V413.02C80.331 413.003 80.014 412.982 79.698 412.96V384.145L80.65 384.142Z" fill="#263940"/>
<path d="M85.2071 384.132V413.126C84.9961 413.128 84.7831 413.129 84.5701 413.129C84.4651 413.129 84.3601 413.129 84.2551 413.127V384.135L85.2071 384.132Z" fill="#263940"/>
<path d="M89.762 384.122V412.937C89.446 412.96 89.13 412.982 88.811 413.001V384.123L89.762 384.122Z" fill="#263940"/>
<path d="M94.3179 384.111V412.44C94.0019 412.486 93.6859 412.53 93.3669 412.57V384.112L94.3179 384.111Z" fill="#263940"/>
<path d="M98.8731 384.1V411.601C98.5581 411.673 98.2421 411.741 97.9221 411.808V384.101L98.8731 384.1Z" fill="#263940"/>
<path d="M103.429 384.089V410.362C103.115 410.464 102.799 410.563 102.478 410.659V384.092L103.429 384.089Z" fill="#263940"/>
<path d="M107.985 384.078V408.603C107.674 408.746 107.357 408.887 107.034 409.023V384.081L107.985 384.078Z" fill="#263940"/>
<path d="M112.541 384.068V406.054C112.234 406.266 111.916 406.473 111.589 406.677V384.07L112.541 384.068Z" fill="#263940"/>
<path d="M117.096 384.058V401.689C116.81 402.105 116.492 402.511 116.145 402.909V384.059L117.096 384.058Z" fill="#263940"/>
<path d="M118.893 384.225C118.893 394.18 103.53 402.251 84.572 402.251C81.982 402.251 79.459 402.1 77.033 401.814C73.982 401.455 71.085 400.883 68.401 400.128C66.005 399.455 63.779 398.636 61.766 397.695C61.151 397.408 60.555 397.109 59.981 396.799C57.457 395.438 55.341 393.869 53.734 392.145C53.419 391.809 53.124 391.466 52.851 391.118C51.175 388.995 50.25 386.666 50.25 384.224C50.25 384.001 50.258 383.778 50.278 383.555C50.944 373.91 66.044 366.199 84.572 366.199C89.132 366.199 93.483 366.666 97.463 367.514C98.232 367.678 98.987 367.855 99.727 368.048C102.96 368.885 105.904 369.981 108.463 371.285C109.027 371.572 109.572 371.869 110.098 372.176C111.967 373.268 113.586 374.479 114.907 375.787C116.269 377.135 117.315 378.585 117.993 380.11C118.488 381.223 118.786 382.376 118.867 383.558C118.886 383.778 118.893 384.002 118.893 384.225Z" fill="#30434C"/>
<path opacity="0.3" d="M117.992 380.107L77.0329 401.814C73.9819 401.455 71.0849 400.883 68.4009 400.128L114.906 375.784C116.268 377.133 117.314 378.583 117.992 380.107Z" fill="white"/>
<path opacity="0.3" d="M99.7261 368.047L53.7341 392.145C53.4191 391.809 53.1241 391.466 52.8511 391.118L97.4621 367.513C98.2311 367.677 98.9861 367.855 99.7261 368.047Z" fill="white"/>
<path opacity="0.3" d="M110.097 372.174L61.7669 397.695C61.1519 397.408 60.5559 397.109 59.9819 396.799L108.463 371.283C109.027 371.57 109.572 371.867 110.097 372.174Z" fill="white"/>
<path d="M112.004 384.225C112.004 384.446 111.992 384.667 111.977 384.886C111.315 392.525 99.2779 398.632 84.5719 398.632C69.8669 398.632 57.8289 392.525 57.1669 384.886C57.1519 384.667 57.1399 384.446 57.1399 384.225C57.1399 376.28 69.4449 369.817 84.5719 369.817C99.6989 369.817 112.004 376.281 112.004 384.225Z" fill="#263940"/>
<path d="M111.977 384.886C111.315 392.525 99.278 398.632 84.572 398.632C84.243 398.632 83.917 398.628 83.592 398.622C80.312 398.562 77.177 398.198 74.284 397.581C71.39 396.964 68.742 396.095 66.437 395.026C65.852 394.755 65.289 394.471 64.745 394.174C62.288 392.821 60.321 391.221 59.008 389.448C58.69 389.024 58.411 388.588 58.174 388.146C57.608 387.102 57.267 386.011 57.167 384.887C57.829 377.248 69.867 371.139 84.572 371.139C86.432 371.139 88.25 371.237 90.011 371.424C90.907 371.519 91.791 371.637 92.656 371.778C96.189 372.351 99.419 373.29 102.186 374.51C102.783 374.774 103.361 375.051 103.916 375.342C106.071 376.468 107.873 377.781 109.225 379.23C110.542 380.643 111.43 382.183 111.805 383.806C111.889 384.161 111.947 384.523 111.977 384.886Z" fill="#517282"/>
<path opacity="0.2" d="M111.805 383.805L83.5919 398.623C80.3119 398.563 77.1769 398.199 74.2839 397.582L109.225 379.23C110.542 380.643 111.43 382.183 111.805 383.805Z" fill="white"/>
<path opacity="0.2" d="M92.656 371.778L59.009 389.448C58.691 389.024 58.412 388.588 58.175 388.146L90.0121 371.424C90.9071 371.518 91.791 371.637 92.656 371.778Z" fill="white"/>
<path opacity="0.2" d="M103.917 375.342L66.4381 395.026C65.8531 394.755 65.2901 394.471 64.7461 394.174L102.187 374.509C102.784 374.773 103.362 375.05 103.917 375.342Z" fill="white"/>
<path d="M88.3869 392.399V394.793H82.5979V392.507C78.4919 392.377 74.5089 391.795 72.0459 390.997L75.1669 387.288C77.8769 388.129 81.4899 388.668 84.6519 388.668C87.4029 388.668 88.3879 388.366 88.3879 387.848C88.3879 385.95 72.4979 387.482 72.4979 381.853C72.4979 379.416 75.8649 377.368 82.5989 376.872V374.521H88.3879V376.829C91.4269 376.98 94.3829 377.39 96.7229 378.08L93.8079 381.767C90.9749 381.012 88.3059 380.646 85.8009 380.646C82.9679 380.646 82.0639 381.077 82.0639 381.595C82.0639 383.407 97.9539 381.897 97.9539 387.461C97.9539 389.79 94.7509 391.817 88.3869 392.399Z" fill="#263940"/>
<path d="M88.2189 391.603V393.996H82.4299V391.71C78.3239 391.581 74.3409 390.998 71.8779 390.201L74.9979 386.491C77.7079 387.332 81.3209 387.871 84.4829 387.871C87.2339 387.871 88.2189 387.569 88.2189 387.051C88.2189 385.153 72.3289 386.685 72.3289 381.056C72.3289 378.619 75.6959 376.571 82.4299 376.074V373.724H88.2189V376.031C91.2569 376.182 94.2139 376.592 96.5539 377.282L93.6389 380.97C90.8059 380.215 88.1369 379.848 85.6319 379.848C82.7989 379.848 81.8959 380.279 81.8959 380.797C81.8959 382.609 97.7859 381.099 97.7859 386.663C97.7859 388.994 94.5829 391.02 88.2189 391.603Z" fill="#30434C"/>
<path d="M277.04 437.277C280.946 428.748 264.765 412.975 240.899 402.048C217.034 391.12 194.521 389.176 190.615 397.706C186.71 406.235 202.891 422.008 226.757 432.935C250.622 443.863 273.135 445.807 277.04 437.277Z" fill="#C3C3C3" fill-opacity="0.06"/>
<path d="M258.21 366.606L214.337 341.01L207.065 345.255L250.898 370.562L258.21 366.606Z" fill="#263940"/>
<path d="M250.898 370.562L207.065 345.255L199.654 408.591L250.922 438.017L250.898 370.562Z" fill="#517282"/>
<path d="M218.198 358.033C218.206 359.049 217.476 359.439 216.568 358.905C215.66 358.37 214.916 357.113 214.908 356.097C214.9 355.081 215.63 354.691 216.538 355.225C217.447 355.76 218.19 357.017 218.198 358.033Z" fill="#263940"/>
<path d="M240.28 371.026C240.288 372.042 239.559 372.433 238.65 371.898C237.741 371.363 236.998 370.106 236.99 369.09C236.982 368.074 237.711 367.684 238.62 368.218C239.528 368.753 240.272 370.01 240.28 371.026Z" fill="#263940"/>
<path d="M250.922 438.017L265.523 429.744L258.21 366.606L250.898 370.562L250.922 438.017Z" fill="#30434C"/>
<path d="M244.707 364.945C245.223 364.945 245.67 364.559 245.733 364.034C245.764 363.771 246.497 357.52 245.77 350.303C245.34 346.03 244.481 342.315 243.219 339.261C241.601 335.347 239.307 332.499 236.402 330.796C233.352 329.009 230.648 328.766 228.364 330.075C221.667 333.912 221.59 350.224 221.59 350.916C221.59 351.487 222.053 351.95 222.624 351.95C223.195 351.95 223.658 351.487 223.659 350.916C223.661 346.531 224.694 334.56 229.393 331.869C231.009 330.943 232.96 331.176 235.356 332.58C246.505 339.113 243.708 363.539 243.679 363.785C243.611 364.352 244.015 364.867 244.583 364.935C244.624 364.942 244.666 364.945 244.707 364.945Z" fill="#263940"/>
<path d="M209.382 382.447C209.257 390.677 216.093 401.526 224.621 406.63C233.148 411.734 240.186 409.19 240.311 400.959C240.436 392.728 233.6 381.88 225.073 376.776C216.545 371.672 209.507 374.216 209.382 382.447ZM217.977 393.153C217.496 391.227 217.245 389.303 217.23 387.429L224.22 391.613L224.141 396.843L217.977 393.153ZM221.503 403.212C217.588 400.006 214.284 395.602 212.345 390.994L217.055 393.813C217.677 395.967 218.556 398.108 219.671 400.179C220.234 401.224 220.848 402.242 221.503 403.212ZM224.123 398.043L224.017 405.043C223.552 404.496 222.084 402.68 220.629 399.965C219.697 398.225 218.941 396.424 218.381 394.606L224.123 398.043ZM218.934 380.748C220.637 378.208 223.095 377.49 223.879 377.32C224.064 377.416 224.249 377.515 224.433 377.618L224.337 383.981L218.934 380.748ZM212.954 377.169C214.981 375.351 218.136 375.061 221.706 376.359C220.996 376.654 220.327 377.042 219.714 377.515C218.868 378.167 218.148 378.981 217.575 379.935L212.954 377.169ZM217.256 386.232C217.356 384.489 217.744 382.947 218.409 381.645L224.319 385.182L224.24 390.412L217.256 386.232ZM210.672 382.292C210.826 380.534 211.349 379.073 212.228 377.946L217.088 380.855C216.467 382.195 216.105 383.752 216.011 385.488L210.672 382.292ZM215.986 386.684C215.999 388.545 216.232 390.459 216.681 392.378L211.74 389.421C211.011 387.315 210.636 385.317 210.626 383.477L215.986 386.684ZM233.554 397.2L239.059 400.495C238.993 402.29 238.566 403.808 237.786 405.011L232.701 401.967C233.199 400.615 233.486 399.012 233.554 397.2ZM225.58 384.726L225.676 378.363C225.808 378.447 225.939 378.533 226.07 378.62C226.6 379.377 227.884 381.3 229.156 383.887C229.812 385.219 230.378 386.559 230.841 387.876L225.58 384.726ZM231.328 389.378C231.941 391.451 232.274 393.425 232.321 395.249L225.483 391.156L225.562 385.926L231.328 389.378ZM232.196 388.687C231.662 387.07 230.98 385.418 230.168 383.773C229.569 382.559 228.91 381.363 228.206 380.209C231.83 383.185 234.987 387.268 236.96 391.539L232.196 388.687ZM232.31 396.455C232.239 398.284 231.936 399.876 231.407 401.192L225.385 397.587L225.464 392.357L232.31 396.455ZM233.565 395.995C233.524 394.178 233.215 392.219 232.646 390.168L237.65 393.163C238.481 395.316 238.951 397.371 239.049 399.277L233.565 395.995ZM237.145 405.838C235.092 408.069 231.568 408.454 227.594 406.897C228.283 406.722 228.933 406.448 229.53 406.08C230.686 405.368 231.614 404.309 232.29 402.932L237.145 405.838ZM230.962 402.137C229.18 405.411 226.211 405.699 225.262 405.703L225.367 398.788L230.962 402.137Z" fill="#263940"/>
<path d="M238.636 371.093C239.152 371.093 239.599 370.707 239.662 370.182C239.693 369.919 240.426 363.668 239.699 356.451C239.269 352.178 238.41 348.463 237.148 345.409C235.53 341.495 233.236 338.647 230.331 336.944C227.282 335.157 224.577 334.914 222.293 336.223C215.596 340.06 215.52 356.372 215.52 357.065C215.52 357.636 215.983 358.099 216.554 358.099C217.125 358.099 217.588 357.636 217.589 357.065C217.591 352.68 218.624 340.709 223.323 338.018C224.939 337.092 226.89 337.325 229.286 338.729C240.435 345.262 237.639 369.688 237.609 369.934C237.541 370.501 237.945 371.016 238.513 371.084C238.554 371.09 238.595 371.093 238.636 371.093Z" fill="#263940"/>
<path d="M144.925 123.21L148.428 130.874V125.232L144.925 123.21Z" fill="#517282"/>
<path d="M148.425 130.874L150.161 129.871V126.233L148.428 125.232L148.425 130.874Z" fill="#263940"/>
<path d="M164.7 104.102V129.581L160.294 132.124L160.677 106.443L164.7 104.102Z" fill="#263940"/>
<path d="M137.862 93.27V119.173L160.294 132.124L160.677 106.443L137.862 93.27Z" fill="#517282"/>
<path d="M164.7 104.102L141.885 90.9301L137.862 93.2701L160.677 106.443L164.7 104.102Z" fill="#252B3D"/>
<path d="M141.844 108.253C141.784 112.205 145.066 117.414 149.161 119.864C153.255 122.315 156.634 121.093 156.694 117.141C156.754 113.189 153.472 107.98 149.378 105.53C145.284 103.08 141.904 104.301 141.844 108.253ZM145.971 113.393C145.74 112.468 145.62 111.544 145.612 110.644L148.968 112.653L148.93 115.164L145.971 113.393ZM147.664 118.223C145.784 116.684 144.198 114.569 143.267 112.357L145.529 113.711C145.827 114.745 146.25 115.773 146.785 116.767C147.054 117.269 147.35 117.757 147.664 118.223ZM148.922 115.741L148.871 119.102C148.648 118.839 147.943 117.967 147.244 116.664C146.797 115.829 146.434 114.964 146.165 114.091L148.922 115.741ZM146.43 107.437C147.248 106.218 148.428 105.873 148.804 105.791C148.893 105.837 148.982 105.885 149.07 105.934L149.024 108.989L146.43 107.437ZM143.559 105.719C144.532 104.846 146.047 104.707 147.761 105.33C147.42 105.472 147.099 105.658 146.804 105.885C146.398 106.198 146.052 106.589 145.777 107.047L143.559 105.719ZM145.625 110.071C145.673 109.234 145.859 108.494 146.178 107.869L149.015 109.567L148.977 112.078L145.625 110.071ZM142.464 108.179C142.538 107.335 142.789 106.634 143.211 106.092L145.545 107.489C145.247 108.132 145.073 108.88 145.028 109.713L142.464 108.179ZM145.015 110.287C145.021 111.181 145.133 112.1 145.349 113.021L142.977 111.601C142.627 110.59 142.447 109.63 142.442 108.747L145.015 110.287ZM153.45 115.336L156.093 116.918C156.061 117.78 155.856 118.509 155.482 119.086L153.041 117.625C153.28 116.976 153.417 116.207 153.45 115.336ZM149.621 109.347L149.667 106.292C149.73 106.332 149.793 106.374 149.856 106.415C150.11 106.778 150.727 107.702 151.338 108.944C151.653 109.583 151.925 110.227 152.147 110.859L149.621 109.347ZM152.381 111.581C152.675 112.576 152.835 113.524 152.858 114.4L149.575 112.435L149.613 109.924L152.381 111.581ZM152.798 111.249C152.541 110.473 152.214 109.679 151.824 108.89C151.536 108.307 151.22 107.733 150.882 107.179C152.622 108.608 154.138 110.568 155.085 112.619L152.798 111.249ZM152.853 114.979C152.819 115.857 152.673 116.622 152.419 117.253L149.528 115.522L149.566 113.011L152.853 114.979ZM153.455 114.758C153.435 113.886 153.287 112.945 153.014 111.96L155.416 113.398C155.815 114.432 156.041 115.419 156.087 116.334L153.455 114.758ZM155.174 119.484C154.188 120.555 152.496 120.74 150.588 119.992C150.919 119.908 151.231 119.777 151.518 119.6C152.073 119.258 152.519 118.75 152.843 118.088L155.174 119.484ZM152.206 117.707C151.35 119.279 149.925 119.417 149.469 119.419L149.519 116.099L152.206 117.707Z" fill="white"/>
<path d="M343.318 118.861L346.821 126.525V120.883L343.318 118.861Z" fill="#517282"/>
<path d="M346.818 126.525L348.554 125.522V121.884L346.821 120.883L346.818 126.525Z" fill="#263940"/>
<path d="M363.093 99.7531V125.232L358.687 127.776L359.07 102.094L363.093 99.7531Z" fill="#263940"/>
<path d="M336.255 88.9221V114.824L358.687 127.776L359.07 102.094L336.255 88.9221Z" fill="#517282"/>
<path d="M363.093 99.7531L340.278 86.5811L336.255 88.9221L359.07 102.094L363.093 99.7531Z" fill="#30434C"/>
<path d="M341.204 102.819C341.188 103.893 341.509 105.177 342.172 106.411L346.696 114.836L351.383 112.123C352.07 111.725 352.422 110.86 352.438 109.785C352.454 108.711 352.133 107.427 351.471 106.195C350.235 103.893 348.315 102.98 346.845 104.663C345.451 101.204 343.538 99.741 342.258 100.482C341.572 100.879 341.22 101.745 341.204 102.819Z" fill="white"/>
<path d="M457.158 177.422L453.656 185.086V179.444L457.158 177.422Z" fill="#517282"/>
<path d="M453.659 185.086L451.923 184.083V180.445L453.656 179.444L453.659 185.086Z" fill="#263940"/>
<path d="M436.317 158.902V184.381L440.723 186.924L440.34 161.243L436.317 158.902Z" fill="#263940"/>
<path d="M463.155 148.07V173.973L440.723 186.924L440.34 161.243L463.155 148.07Z" fill="#517282"/>
<path d="M453.229 172.13L453.24 174.043L451.032 175.384L451.021 173.557C449.455 174.405 447.933 174.862 446.99 174.796L448.162 171.108C449.199 171.153 450.58 170.746 451.786 170.014C452.835 169.377 453.209 168.907 453.207 168.493C453.198 166.976 447.146 171.882 447.119 167.383C447.107 165.435 448.382 163.018 450.947 161.061L450.936 159.183L453.144 157.842L453.155 159.686C454.315 159.103 455.444 158.745 456.34 158.755L455.246 162.378C454.162 162.431 453.142 162.757 452.187 163.337C451.106 163.993 450.764 164.548 450.767 164.961C450.776 166.409 456.828 161.52 456.855 165.967C456.865 167.828 455.654 170.19 453.229 172.13Z" fill="white"/>
<path d="M436.317 158.902L459.132 145.73L463.155 148.07L440.34 161.243L436.317 158.902Z" fill="#263940"/>
</g>
<defs>
<clipPath id="clip0_467_151">
<rect width="500" height="500" fill="white"/>
</clipPath>
</defs>
</svg>
