<svg width="663" height="663" viewBox="0 0 663 663" fill="none" xmlns="http://www.w3.org/2000/svg">
<mask id="mask0_66_45" style="mask-type:alpha" maskUnits="userSpaceOnUse" x="0" y="0" width="663" height="663">
<circle cx="331.5" cy="331.5" r="331.5" fill="#589DAF"/>
</mask>
<g mask="url(#mask0_66_45)">
<circle cx="331.5" cy="327.5" r="331.5" fill="#589DAF"/>
<path d="M579 663.5C579 632.442 572.883 601.689 560.998 572.995C549.112 544.302 531.692 518.23 509.731 496.269C487.77 474.308 461.698 456.888 433.005 445.002C404.311 433.117 373.558 427 342.5 427C311.442 427 280.689 433.117 251.995 445.002C223.302 456.888 197.23 474.308 175.269 496.269C153.308 518.23 135.888 544.302 124.002 572.995C112.117 601.689 106 632.442 106 663.5L342.5 663.5H579Z" fill="#202020"/>
<rect x="267" y="310" width="130" height="166" rx="40" fill="#392008"/>
</g>
<rect x="197" y="59" width="269" height="338" rx="116" fill="#6A4016"/>
<path d="M457 131H205C205 105.517 237.184 80.4995 253.276 71.1763C267.115 64.1839 310.048 52.3746 371.069 61.0762C432.09 69.7778 453.782 111.318 457 131Z" fill="black"/>
<rect x="421" y="183" width="72" height="91" rx="36" fill="#6A4016"/>
<rect x="171" y="196" width="72" height="91" rx="36" fill="#6A4016"/>
<ellipse cx="270" cy="205.5" rx="22" ry="22.5" fill="white"/>
<ellipse cx="394" cy="205.5" rx="22" ry="22.5" fill="white"/>
<path d="M411 287H259C262.333 303.667 277 349.5 332 349.5C385 349.5 408.667 305 411 287Z" fill="white"/>
<path d="M413.836 160.326C417.418 159.523 419.737 155.911 418.114 152.619C416.27 148.879 413.602 145.573 410.276 142.965C405.194 138.98 398.89 136.875 392.433 137.006C385.976 137.136 379.763 139.495 374.846 143.683C371.629 146.422 369.096 149.834 367.405 153.646C365.917 157.001 368.381 160.515 371.991 161.173V161.173C375.602 161.831 378.964 159.272 381.133 156.31C381.805 155.392 382.586 154.549 383.464 153.802C386.047 151.602 389.31 150.363 392.702 150.294C396.094 150.226 399.406 151.332 402.075 153.425C402.983 154.137 403.797 154.947 404.506 155.837C406.792 158.709 410.255 161.129 413.836 160.326V160.326Z" fill="black"/>
<path d="M290.836 160.326C294.418 159.523 296.737 155.911 295.114 152.619C293.27 148.879 290.602 145.573 287.276 142.965C282.194 138.98 275.89 136.875 269.433 137.006C262.976 137.136 256.763 139.495 251.846 143.683C248.629 146.422 246.096 149.834 244.405 153.646C242.917 157.001 245.381 160.515 248.991 161.173V161.173C252.602 161.831 255.964 159.272 258.133 156.31C258.805 155.392 259.586 154.549 260.464 153.802C263.047 151.602 266.31 150.363 269.702 150.294C273.094 150.226 276.406 151.332 279.075 153.425C279.983 154.137 280.797 154.947 281.506 155.837C283.792 158.709 287.255 161.129 290.836 160.326V160.326Z" fill="black"/>
<rect x="255" y="263" width="74" height="14" rx="7" fill="black"/>
<rect x="337" y="263" width="74" height="14" rx="7" fill="black"/>
</svg>
