<svg width="2000" height="2250" viewBox="0 0 2000 2250" fill="none" xmlns="http://www.w3.org/2000/svg">
<rect y="125" width="2000" height="2000" rx="485" fill="#08D136"/>
<path d="M1221 930C1202 895 1174.5 868.5 1138.5 850.5C1103.5 831.5 1062 822 1014 822C931 822 864.5 849.5 814.5 904.5C764.5 958.5 739.5 1031 739.5 1122C739.5 1219 765.5 1295 817.5 1350C870.5 1404 943 1431 1035 1431C1098 1431 1151 1415 1194 1383C1238 1351 1270 1305 1290 1245H964.5V1056H1522.5V1294.5C1503.5 1358.5 1471 1418 1425 1473C1380 1528 1322.5 1572.5 1252.5 1606.5C1182.5 1640.5 1103.5 1657.5 1015.5 1657.5C911.5 1657.5 818.5 1635 736.5 1590C655.5 1544 592 1480.5 546 1399.5C501 1318.5 478.5 1226 478.5 1122C478.5 1018 501 925.5 546 844.5C592 762.5 655.5 699 736.5 654C817.5 608 910 585 1014 585C1140 585 1246 615.5 1332 676.5C1419 737.5 1476.5 822 1504.5 930H1221Z" fill="#F5F5F5"/>
<rect x="911" y="452" width="264" height="305" rx="75" fill="#F5F5F5"/>
<rect x="911" y="1469" width="264" height="305" rx="75" fill="#F5F5F5"/>
</svg>
