<svg width="248" height="248" viewBox="0 0 248 248" fill="none" xmlns="http://www.w3.org/2000/svg">
<rect width="248" height="248" rx="70" fill="url(#paint0_linear_54_45)"/>
<path d="M81.5871 75.5583C22.5181 74.8577 34.0168 117.195 54.9964 125.382C17.598 157.221 51.0438 182.389 80.5368 170.866M81.5871 75.5583C61.1328 47.8704 103.341 6.51647 129.185 52.9104C140.131 13.4907 200.637 37.749 176.009 76.5622L124.928 125.382M81.5871 75.5583L124.928 125.382M172.361 174.202C182.698 192.092 155.942 242.428 124.928 189.363C117.327 221.505 66.8544 220.292 80.5368 170.866M172.361 174.202C193.644 183.602 226.178 146.911 200.637 122.653L169.541 119.83V136.507M172.361 174.202L124.928 125.382M80.5368 170.866L124.928 125.382" stroke="#FDFBFA" stroke-width="10" stroke-linecap="round" stroke-linejoin="round"/>
<defs>
<linearGradient id="paint0_linear_54_45" x1="124" y1="0" x2="124" y2="248" gradientUnits="userSpaceOnUse">
<stop stop-color="#08D136"/>
<stop offset="1" stop-color="#01A662"/>
</linearGradient>
</defs>
</svg>
