<svg width="860" height="232" viewBox="0 0 860 232" fill="none" xmlns="http://www.w3.org/2000/svg">
<path d="M277.84 51.44C284.133 51.44 289.627 52.72 294.32 55.28C299.12 57.84 302.8 61.2 305.36 65.36V52.72H332.72V141.84C332.72 150.053 331.067 157.467 327.76 164.08C324.56 170.8 319.6 176.133 312.88 180.08C306.267 184.027 298 186 288.08 186C274.853 186 264.133 182.853 255.92 176.56C247.707 170.373 243.013 161.947 241.84 151.28H268.88C269.733 154.693 271.76 157.36 274.96 159.28C278.16 161.307 282.107 162.32 286.8 162.32C292.453 162.32 296.933 160.667 300.24 157.36C303.653 154.16 305.36 148.987 305.36 141.84V129.2C302.693 133.36 299.013 136.773 294.32 139.44C289.627 142 284.133 143.28 277.84 143.28C270.48 143.28 263.813 141.413 257.84 137.68C251.867 133.84 247.12 128.453 243.6 121.52C240.187 114.48 238.48 106.373 238.48 97.2C238.48 88.0267 240.187 79.9733 243.6 73.04C247.12 66.1067 251.867 60.7733 257.84 57.04C263.813 53.3067 270.48 51.44 277.84 51.44ZM305.36 97.36C305.36 90.5333 303.44 85.1467 299.6 81.2C295.867 77.2533 291.28 75.28 285.84 75.28C280.4 75.28 275.76 77.2533 271.92 81.2C268.187 85.04 266.32 90.3733 266.32 97.2C266.32 104.027 268.187 109.467 271.92 113.52C275.76 117.467 280.4 119.44 285.84 119.44C291.28 119.44 295.867 117.467 299.6 113.52C303.44 109.573 305.36 104.187 305.36 97.36ZM347.074 97.36C347.074 88.08 348.94 79.9733 352.674 73.04C356.514 66.1067 361.794 60.7733 368.514 57.04C375.34 53.3067 383.127 51.44 391.874 51.44C403.074 51.44 412.407 54.3733 419.874 60.24C427.447 66.1067 432.407 74.3733 434.754 85.04H405.634C403.18 78.2133 398.434 74.8 391.394 74.8C386.38 74.8 382.38 76.7733 379.394 80.72C376.407 84.56 374.914 90.1067 374.914 97.36C374.914 104.613 376.407 110.213 379.394 114.16C382.38 118 386.38 119.92 391.394 119.92C398.434 119.92 403.18 116.507 405.634 109.68H434.754C432.407 120.133 427.447 128.347 419.874 134.32C412.3 140.293 402.967 143.28 391.874 143.28C383.127 143.28 375.34 141.413 368.514 137.68C361.794 133.947 356.514 128.613 352.674 121.68C348.94 114.747 347.074 106.64 347.074 97.36ZM443.949 97.2C443.949 88.0267 445.655 79.9733 449.069 73.04C452.589 66.1067 457.335 60.7733 463.309 57.04C469.282 53.3067 475.949 51.44 483.309 51.44C489.602 51.44 495.095 52.72 499.789 55.28C504.589 57.84 508.269 61.2 510.829 65.36V52.72H538.189V142H510.829V129.36C508.162 133.52 504.429 136.88 499.629 139.44C494.935 142 489.442 143.28 483.149 143.28C475.895 143.28 469.282 141.413 463.309 137.68C457.335 133.84 452.589 128.453 449.069 121.52C445.655 114.48 443.949 106.373 443.949 97.2ZM510.829 97.36C510.829 90.5333 508.909 85.1467 505.069 81.2C501.335 77.2533 496.749 75.28 491.309 75.28C485.869 75.28 481.229 77.2533 477.389 81.2C473.655 85.04 471.789 90.3733 471.789 97.2C471.789 104.027 473.655 109.467 477.389 113.52C481.229 117.467 485.869 119.44 491.309 119.44C496.749 119.44 501.335 117.467 505.069 113.52C508.909 109.573 510.829 104.187 510.829 97.36ZM594.303 143.28C586.516 143.28 579.583 141.947 573.503 139.28C567.423 136.613 562.623 132.987 559.103 128.4C555.583 123.707 553.609 118.48 553.183 112.72H580.223C580.543 115.813 581.983 118.32 584.543 120.24C587.103 122.16 590.249 123.12 593.983 123.12C597.396 123.12 600.009 122.48 601.823 121.2C603.743 119.813 604.703 118.053 604.703 115.92C604.703 113.36 603.369 111.493 600.703 110.32C598.036 109.04 593.716 107.653 587.743 106.16C581.343 104.667 576.009 103.12 571.743 101.52C567.476 99.8133 563.796 97.2 560.703 93.68C557.609 90.0533 556.063 85.2 556.063 79.12C556.063 74 557.449 69.36 560.223 65.2C563.103 60.9333 567.263 57.5733 572.703 55.12C578.249 52.6667 584.809 51.44 592.383 51.44C603.583 51.44 612.383 54.2133 618.783 59.76C625.289 65.3067 629.023 72.6667 629.983 81.84H604.703C604.276 78.7467 602.889 76.2933 600.543 74.48C598.303 72.6667 595.316 71.76 591.583 71.76C588.383 71.76 585.929 72.4 584.223 73.68C582.516 74.8533 581.663 76.5067 581.663 78.64C581.663 81.2 582.996 83.12 585.663 84.4C588.436 85.68 592.703 86.96 598.463 88.24C605.076 89.9467 610.463 91.6533 614.623 93.36C618.783 94.96 622.409 97.6267 625.503 101.36C628.703 104.987 630.356 109.893 630.463 116.08C630.463 121.307 628.969 126 625.983 130.16C623.103 134.213 618.889 137.413 613.343 139.76C607.903 142.107 601.556 143.28 594.303 143.28ZM702.081 51.76C712.321 51.76 720.535 55.1733 726.721 62C732.908 68.72 736.001 78 736.001 89.84V142H708.801V93.52C708.801 87.5467 707.255 82.9067 704.161 79.6C701.068 76.2933 696.908 74.64 691.681 74.64C686.455 74.64 682.295 76.2933 679.201 79.6C676.108 82.9067 674.561 87.5467 674.561 93.52V142H647.201V23.6H674.561V64.72C677.335 60.7733 681.121 57.6267 685.921 55.28C690.721 52.9333 696.108 51.76 702.081 51.76ZM767.814 143.28C763.014 143.28 759.067 141.893 755.974 139.12C752.987 136.24 751.494 132.72 751.494 128.56C751.494 124.293 752.987 120.72 755.974 117.84C759.067 114.96 763.014 113.52 767.814 113.52C772.507 113.52 776.347 114.96 779.334 117.84C782.427 120.72 783.974 124.293 783.974 128.56C783.974 132.72 782.427 136.24 779.334 139.12C776.347 141.893 772.507 143.28 767.814 143.28Z" fill="white"/>
<path d="M358.456 168.168C356.904 168.168 355.496 167.808 354.232 167.088C352.968 166.352 351.968 165.336 351.232 164.04C350.512 162.728 350.152 161.248 350.152 159.6C350.152 157.952 350.512 156.48 351.232 155.184C351.968 153.872 352.968 152.856 354.232 152.136C355.496 151.4 356.904 151.032 358.456 151.032C360.024 151.032 361.44 151.4 362.704 152.136C363.968 152.856 364.96 153.872 365.68 155.184C366.4 156.48 366.76 157.952 366.76 159.6C366.76 161.248 366.4 162.728 365.68 164.04C364.96 165.336 363.968 166.352 362.704 167.088C361.44 167.808 360.024 168.168 358.456 168.168ZM358.456 166.704C359.704 166.704 360.824 166.416 361.816 165.84C362.808 165.264 363.592 164.44 364.168 163.368C364.744 162.28 365.032 161.024 365.032 159.6C365.032 158.176 364.744 156.928 364.168 155.856C363.592 154.784 362.808 153.96 361.816 153.384C360.824 152.808 359.704 152.52 358.456 152.52C357.208 152.52 356.088 152.808 355.096 153.384C354.104 153.96 353.32 154.784 352.744 155.856C352.168 156.928 351.88 158.176 351.88 159.6C351.88 161.024 352.168 162.28 352.744 163.368C353.32 164.44 354.104 165.264 355.096 165.84C356.088 166.416 357.208 166.704 358.456 166.704ZM371.514 157.224C371.882 156.408 372.442 155.776 373.194 155.328C373.962 154.88 374.898 154.656 376.002 154.656V156.408H375.546C374.33 156.408 373.354 156.736 372.618 157.392C371.882 158.048 371.514 159.144 371.514 160.68V168H369.834V154.896H371.514V157.224ZM384.025 154.704C385.257 154.704 386.329 154.992 387.241 155.568C388.153 156.144 388.809 156.872 389.209 157.752V154.896H390.889V168.336C390.889 169.536 390.625 170.6 390.097 171.528C389.585 172.456 388.865 173.168 387.937 173.664C387.009 174.176 385.953 174.432 384.769 174.432C383.089 174.432 381.689 174.032 380.569 173.232C379.465 172.432 378.777 171.344 378.505 169.968H380.161C380.449 170.88 380.993 171.608 381.793 172.152C382.609 172.696 383.601 172.968 384.769 172.968C385.617 172.968 386.377 172.784 387.049 172.416C387.721 172.064 388.249 171.536 388.633 170.832C389.017 170.128 389.209 169.296 389.209 168.336V165.096C388.793 165.992 388.129 166.736 387.217 167.328C386.321 167.904 385.257 168.192 384.025 168.192C382.825 168.192 381.745 167.912 380.785 167.352C379.841 166.792 379.097 166 378.553 164.976C378.025 163.952 377.761 162.768 377.761 161.424C377.761 160.08 378.025 158.904 378.553 157.896C379.097 156.872 379.841 156.088 380.785 155.544C381.745 154.984 382.825 154.704 384.025 154.704ZM389.209 161.448C389.209 160.392 388.993 159.464 388.561 158.664C388.129 157.864 387.537 157.248 386.785 156.816C386.049 156.384 385.233 156.168 384.337 156.168C383.409 156.168 382.577 156.376 381.841 156.792C381.105 157.208 380.521 157.816 380.089 158.616C379.673 159.4 379.465 160.336 379.465 161.424C379.465 162.496 379.673 163.44 380.089 164.256C380.521 165.056 381.105 165.672 381.841 166.104C382.577 166.52 383.409 166.728 384.337 166.728C385.233 166.728 386.049 166.512 386.785 166.08C387.537 165.648 388.129 165.032 388.561 164.232C388.993 163.432 389.209 162.504 389.209 161.448ZM393.957 161.424C393.957 160.08 394.221 158.904 394.749 157.896C395.293 156.872 396.037 156.088 396.981 155.544C397.941 154.984 399.021 154.704 400.221 154.704C401.469 154.704 402.541 154.992 403.437 155.568C404.349 156.144 405.005 156.88 405.405 157.776V154.896H407.085V168H405.405V165.096C404.989 165.992 404.325 166.736 403.413 167.328C402.517 167.904 401.445 168.192 400.197 168.192C399.013 168.192 397.941 167.912 396.981 167.352C396.037 166.792 395.293 166 394.749 164.976C394.221 163.952 393.957 162.768 393.957 161.424ZM405.405 161.448C405.405 160.392 405.189 159.464 404.757 158.664C404.325 157.864 403.733 157.248 402.981 156.816C402.245 156.384 401.429 156.168 400.533 156.168C399.605 156.168 398.773 156.376 398.037 156.792C397.301 157.208 396.717 157.816 396.285 158.616C395.869 159.4 395.661 160.336 395.661 161.424C395.661 162.496 395.869 163.44 396.285 164.256C396.717 165.056 397.301 165.672 398.037 166.104C398.773 166.52 399.605 166.728 400.533 166.728C401.429 166.728 402.245 166.512 402.981 166.08C403.733 165.648 404.325 165.032 404.757 164.232C405.189 163.432 405.405 162.504 405.405 161.448ZM417.064 154.656C418.632 154.656 419.912 155.144 420.904 156.12C421.896 157.08 422.392 158.48 422.392 160.32V168H420.736V160.512C420.736 159.088 420.376 158 419.656 157.248C418.952 156.496 417.984 156.12 416.752 156.12C415.488 156.12 414.48 156.52 413.728 157.32C412.976 158.12 412.6 159.296 412.6 160.848V168H410.92V154.896H412.6V157.128C413.016 156.328 413.616 155.72 414.4 155.304C415.184 154.872 416.072 154.656 417.064 154.656ZM426.948 152.424C426.612 152.424 426.324 152.304 426.084 152.064C425.844 151.824 425.724 151.528 425.724 151.176C425.724 150.824 425.844 150.536 426.084 150.312C426.324 150.072 426.612 149.952 426.948 149.952C427.284 149.952 427.572 150.072 427.812 150.312C428.052 150.536 428.172 150.824 428.172 151.176C428.172 151.528 428.052 151.824 427.812 152.064C427.572 152.304 427.284 152.424 426.948 152.424ZM427.788 154.896V168H426.108V154.896H427.788ZM432.48 166.608H439.344V168H430.56V166.608L437.304 156.288H430.68V154.896H439.224V156.288L432.48 166.608ZM441.418 161.424C441.418 160.08 441.682 158.904 442.21 157.896C442.754 156.872 443.498 156.088 444.442 155.544C445.402 154.984 446.482 154.704 447.682 154.704C448.93 154.704 450.002 154.992 450.898 155.568C451.81 156.144 452.466 156.88 452.866 157.776V154.896H454.546V168H452.866V165.096C452.45 165.992 451.786 166.736 450.874 167.328C449.978 167.904 448.906 168.192 447.658 168.192C446.474 168.192 445.402 167.912 444.442 167.352C443.498 166.792 442.754 166 442.21 164.976C441.682 163.952 441.418 162.768 441.418 161.424ZM452.866 161.448C452.866 160.392 452.65 159.464 452.218 158.664C451.786 157.864 451.194 157.248 450.442 156.816C449.706 156.384 448.89 156.168 447.994 156.168C447.066 156.168 446.234 156.376 445.498 156.792C444.762 157.208 444.178 157.816 443.746 158.616C443.33 159.4 443.122 160.336 443.122 161.424C443.122 162.496 443.33 163.44 443.746 164.256C444.178 165.056 444.762 165.672 445.498 166.104C446.234 166.52 447.066 166.728 447.994 166.728C448.89 166.728 449.706 166.512 450.442 166.08C451.194 165.648 451.786 165.032 452.218 164.232C452.65 163.432 452.866 162.504 452.866 161.448ZM464.525 154.656C466.093 154.656 467.373 155.144 468.365 156.12C469.357 157.08 469.853 158.48 469.853 160.32V168H468.197V160.512C468.197 159.088 467.837 158 467.117 157.248C466.413 156.496 465.445 156.12 464.213 156.12C462.949 156.12 461.941 156.52 461.189 157.32C460.437 158.12 460.061 159.296 460.061 160.848V168H458.381V154.896H460.061V157.128C460.477 156.328 461.077 155.72 461.861 155.304C462.645 154.872 463.533 154.656 464.525 154.656ZM472.8 161.424C472.8 160.08 473.072 158.904 473.616 157.896C474.16 156.872 474.904 156.088 475.848 155.544C476.808 154.984 477.888 154.704 479.088 154.704C480.24 154.704 481.28 154.984 482.208 155.544C483.136 156.104 483.816 156.832 484.248 157.728V150.24H485.928V168H484.248V165.072C483.848 165.984 483.192 166.736 482.28 167.328C481.368 167.904 480.296 168.192 479.064 168.192C477.864 168.192 476.784 167.912 475.824 167.352C474.88 166.792 474.136 166 473.592 164.976C473.064 163.952 472.8 162.768 472.8 161.424ZM484.248 161.448C484.248 160.392 484.032 159.464 483.6 158.664C483.168 157.864 482.576 157.248 481.824 156.816C481.088 156.384 480.272 156.168 479.376 156.168C478.448 156.168 477.616 156.376 476.88 156.792C476.144 157.208 475.56 157.816 475.128 158.616C474.712 159.4 474.504 160.336 474.504 161.424C474.504 162.496 474.712 163.44 475.128 164.256C475.56 165.056 476.144 165.672 476.88 166.104C477.616 166.52 478.448 166.728 479.376 166.728C480.272 166.728 481.088 166.512 481.824 166.08C482.576 165.648 483.168 165.032 483.6 164.232C484.032 163.432 484.248 162.504 484.248 161.448ZM495.5 168.192C494.268 168.192 493.156 167.92 492.164 167.376C491.188 166.816 490.412 166.032 489.836 165.024C489.276 164 488.996 162.808 488.996 161.448C488.996 160.088 489.284 158.904 489.86 157.896C490.436 156.872 491.22 156.088 492.212 155.544C493.204 154.984 494.316 154.704 495.548 154.704C496.78 154.704 497.892 154.984 498.884 155.544C499.892 156.088 500.676 156.872 501.236 157.896C501.812 158.904 502.1 160.088 502.1 161.448C502.1 162.792 501.812 163.976 501.236 165C500.66 166.024 499.868 166.816 498.86 167.376C497.852 167.92 496.732 168.192 495.5 168.192ZM495.5 166.728C496.364 166.728 497.164 166.536 497.9 166.152C498.636 165.752 499.228 165.16 499.676 164.376C500.14 163.576 500.372 162.6 500.372 161.448C500.372 160.296 500.148 159.328 499.7 158.544C499.252 157.744 498.66 157.152 497.924 156.768C497.188 156.368 496.388 156.168 495.524 156.168C494.66 156.168 493.86 156.368 493.124 156.768C492.388 157.152 491.796 157.744 491.348 158.544C490.916 159.328 490.7 160.296 490.7 161.448C490.7 162.6 490.916 163.576 491.348 164.376C491.796 165.16 492.38 165.752 493.1 166.152C493.836 166.536 494.636 166.728 495.5 166.728ZM516.26 168.192C514.756 168.192 513.524 167.848 512.564 167.16C511.62 166.456 511.092 165.504 510.98 164.304H512.708C512.788 165.04 513.132 165.64 513.74 166.104C514.364 166.552 515.196 166.776 516.236 166.776C517.148 166.776 517.86 166.56 518.372 166.128C518.9 165.696 519.164 165.16 519.164 164.52C519.164 164.072 519.02 163.704 518.732 163.416C518.444 163.128 518.076 162.904 517.628 162.744C517.196 162.568 516.604 162.384 515.852 162.192C514.876 161.936 514.084 161.68 513.476 161.424C512.868 161.168 512.348 160.792 511.916 160.296C511.5 159.784 511.292 159.104 511.292 158.256C511.292 157.616 511.484 157.024 511.868 156.48C512.252 155.936 512.796 155.504 513.5 155.184C514.204 154.864 515.004 154.704 515.9 154.704C517.308 154.704 518.444 155.064 519.308 155.784C520.172 156.488 520.636 157.464 520.7 158.712H519.02C518.972 157.944 518.668 157.328 518.108 156.864C517.564 156.384 516.812 156.144 515.852 156.144C515.004 156.144 514.316 156.344 513.788 156.744C513.26 157.144 512.996 157.64 512.996 158.232C512.996 158.744 513.148 159.168 513.452 159.504C513.772 159.824 514.164 160.08 514.628 160.272C515.092 160.448 515.716 160.648 516.5 160.872C517.444 161.128 518.196 161.376 518.756 161.616C519.316 161.856 519.796 162.208 520.196 162.672C520.596 163.136 520.804 163.752 520.82 164.52C520.82 165.224 520.628 165.856 520.244 166.416C519.86 166.96 519.324 167.392 518.636 167.712C517.948 168.032 517.156 168.192 516.26 168.192ZM535.335 154.896V168H533.655V165.696C533.271 166.512 532.679 167.136 531.879 167.568C531.079 168 530.183 168.216 529.191 168.216C527.623 168.216 526.343 167.736 525.351 166.776C524.359 165.8 523.863 164.392 523.863 162.552V154.896H525.519V162.36C525.519 163.784 525.871 164.872 526.575 165.624C527.295 166.376 528.271 166.752 529.503 166.752C530.767 166.752 531.775 166.352 532.527 165.552C533.279 164.752 533.655 163.576 533.655 162.024V154.896H535.335ZM538.402 161.424C538.402 160.08 538.666 158.904 539.194 157.896C539.738 156.872 540.482 156.088 541.426 155.544C542.386 154.984 543.466 154.704 544.666 154.704C545.914 154.704 546.986 154.992 547.882 155.568C548.794 156.144 549.45 156.88 549.85 157.776V154.896H551.53V168H549.85V165.096C549.434 165.992 548.77 166.736 547.858 167.328C546.962 167.904 545.89 168.192 544.642 168.192C543.458 168.192 542.386 167.912 541.426 167.352C540.482 166.792 539.738 166 539.194 164.976C538.666 163.952 538.402 162.768 538.402 161.424ZM549.85 161.448C549.85 160.392 549.634 159.464 549.202 158.664C548.77 157.864 548.178 157.248 547.426 156.816C546.69 156.384 545.874 156.168 544.978 156.168C544.05 156.168 543.218 156.376 542.482 156.792C541.746 157.208 541.162 157.816 540.73 158.616C540.314 159.4 540.106 160.336 540.106 161.424C540.106 162.496 540.314 163.44 540.73 164.256C541.162 165.056 541.746 165.672 542.482 166.104C543.218 166.52 544.05 166.728 544.978 166.728C545.874 166.728 546.69 166.512 547.426 166.08C548.178 165.648 548.77 165.032 549.202 164.232C549.634 163.432 549.85 162.504 549.85 161.448ZM563.631 157.224C563.999 156.408 564.559 155.776 565.311 155.328C566.079 154.88 567.015 154.656 568.119 154.656V156.408H567.663C566.447 156.408 565.471 156.736 564.735 157.392C563.999 158.048 563.631 159.144 563.631 160.68V168H561.951V154.896H563.631V157.224ZM582.503 160.776C582.503 161.352 582.487 161.792 582.455 162.096H571.583C571.631 163.088 571.871 163.936 572.303 164.64C572.735 165.344 573.303 165.88 574.007 166.248C574.711 166.6 575.479 166.776 576.311 166.776C577.399 166.776 578.311 166.512 579.047 165.984C579.799 165.456 580.295 164.744 580.535 163.848H582.311C581.991 165.128 581.303 166.176 580.247 166.992C579.207 167.792 577.895 168.192 576.311 168.192C575.079 168.192 573.975 167.92 572.999 167.376C572.023 166.816 571.255 166.032 570.695 165.024C570.151 164 569.879 162.808 569.879 161.448C569.879 160.088 570.151 158.896 570.695 157.872C571.239 156.848 571.999 156.064 572.975 155.52C573.951 154.976 575.063 154.704 576.311 154.704C577.559 154.704 578.647 154.976 579.575 155.52C580.519 156.064 581.239 156.8 581.735 157.728C582.247 158.64 582.503 159.656 582.503 160.776ZM580.799 160.728C580.815 159.752 580.615 158.92 580.199 158.232C579.799 157.544 579.247 157.024 578.543 156.672C577.839 156.32 577.071 156.144 576.239 156.144C574.991 156.144 573.927 156.544 573.047 157.344C572.167 158.144 571.679 159.272 571.583 160.728H580.799ZM591.72 154.656C593.288 154.656 594.568 155.144 595.56 156.12C596.552 157.08 597.048 158.48 597.048 160.32V168H595.392V160.512C595.392 159.088 595.032 158 594.312 157.248C593.608 156.496 592.64 156.12 591.408 156.12C590.144 156.12 589.136 156.52 588.384 157.32C587.632 158.12 587.256 159.296 587.256 160.848V168H585.576V154.896H587.256V157.128C587.672 156.328 588.272 155.72 589.056 155.304C589.84 154.872 590.728 154.656 591.72 154.656ZM599.996 161.424C599.996 160.08 600.268 158.904 600.812 157.896C601.356 156.872 602.1 156.088 603.044 155.544C604.004 154.984 605.084 154.704 606.284 154.704C607.436 154.704 608.476 154.984 609.404 155.544C610.332 156.104 611.012 156.832 611.444 157.728V150.24H613.124V168H611.444V165.072C611.044 165.984 610.388 166.736 609.476 167.328C608.564 167.904 607.492 168.192 606.26 168.192C605.06 168.192 603.98 167.912 603.02 167.352C602.076 166.792 601.332 166 600.788 164.976C600.26 163.952 599.996 162.768 599.996 161.424ZM611.444 161.448C611.444 160.392 611.228 159.464 610.796 158.664C610.364 157.864 609.772 157.248 609.02 156.816C608.284 156.384 607.468 156.168 606.572 156.168C605.644 156.168 604.812 156.376 604.076 156.792C603.34 157.208 602.756 157.816 602.324 158.616C601.908 159.4 601.7 160.336 601.7 161.424C601.7 162.496 601.908 163.44 602.324 164.256C602.756 165.056 603.34 165.672 604.076 166.104C604.812 166.52 605.644 166.728 606.572 166.728C607.468 166.728 608.284 166.512 609.02 166.08C609.772 165.648 610.364 165.032 610.796 164.232C611.228 163.432 611.444 162.504 611.444 161.448ZM616.191 161.424C616.191 160.08 616.455 158.904 616.983 157.896C617.527 156.872 618.271 156.088 619.215 155.544C620.175 154.984 621.255 154.704 622.455 154.704C623.703 154.704 624.775 154.992 625.671 155.568C626.583 156.144 627.239 156.88 627.639 157.776V154.896H629.319V168H627.639V165.096C627.223 165.992 626.559 166.736 625.647 167.328C624.751 167.904 623.679 168.192 622.431 168.192C621.247 168.192 620.175 167.912 619.215 167.352C618.271 166.792 617.527 166 616.983 164.976C616.455 163.952 616.191 162.768 616.191 161.424ZM627.639 161.448C627.639 160.392 627.423 159.464 626.991 158.664C626.559 157.864 625.967 157.248 625.215 156.816C624.479 156.384 623.663 156.168 622.767 156.168C621.839 156.168 621.007 156.376 620.271 156.792C619.535 157.208 618.951 157.816 618.519 158.616C618.103 159.4 617.895 160.336 617.895 161.424C617.895 162.496 618.103 163.44 618.519 164.256C618.951 165.056 619.535 165.672 620.271 166.104C621.007 166.52 621.839 166.728 622.767 166.728C623.663 166.728 624.479 166.512 625.215 166.08C625.967 165.648 626.559 165.032 626.991 164.232C627.423 163.432 627.639 162.504 627.639 161.448ZM655.34 154.656C656.876 154.656 658.124 155.144 659.084 156.12C660.06 157.08 660.548 158.48 660.548 160.32V168H658.892V160.512C658.892 159.088 658.548 158 657.86 157.248C657.172 156.496 656.236 156.12 655.052 156.12C653.82 156.12 652.836 156.528 652.1 157.344C651.364 158.16 650.996 159.344 650.996 160.896V168H649.34V160.512C649.34 159.088 648.996 158 648.308 157.248C647.62 156.496 646.676 156.12 645.476 156.12C644.244 156.12 643.26 156.528 642.524 157.344C641.788 158.16 641.42 159.344 641.42 160.896V168H639.74V154.896H641.42V157.152C641.836 156.336 642.428 155.72 643.196 155.304C643.964 154.872 644.82 154.656 645.764 154.656C646.9 154.656 647.892 154.928 648.74 155.472C649.604 156.016 650.228 156.816 650.612 157.872C650.964 156.832 651.564 156.04 652.412 155.496C653.276 154.936 654.252 154.656 655.34 154.656ZM676.135 160.776C676.135 161.352 676.119 161.792 676.087 162.096H665.215C665.263 163.088 665.503 163.936 665.935 164.64C666.367 165.344 666.935 165.88 667.639 166.248C668.343 166.6 669.111 166.776 669.943 166.776C671.031 166.776 671.943 166.512 672.679 165.984C673.431 165.456 673.927 164.744 674.167 163.848H675.943C675.623 165.128 674.935 166.176 673.879 166.992C672.839 167.792 671.527 168.192 669.943 168.192C668.711 168.192 667.607 167.92 666.631 167.376C665.655 166.816 664.887 166.032 664.327 165.024C663.783 164 663.511 162.808 663.511 161.448C663.511 160.088 663.783 158.896 664.327 157.872C664.871 156.848 665.631 156.064 666.607 155.52C667.583 154.976 668.695 154.704 669.943 154.704C671.191 154.704 672.279 154.976 673.207 155.52C674.151 156.064 674.871 156.8 675.367 157.728C675.879 158.64 676.135 159.656 676.135 160.776ZM674.431 160.728C674.447 159.752 674.247 158.92 673.831 158.232C673.431 157.544 672.879 157.024 672.175 156.672C671.471 156.32 670.703 156.144 669.871 156.144C668.623 156.144 667.559 156.544 666.679 157.344C665.799 158.144 665.311 159.272 665.215 160.728H674.431ZM685.353 154.656C686.921 154.656 688.201 155.144 689.193 156.12C690.185 157.08 690.681 158.48 690.681 160.32V168H689.025V160.512C689.025 159.088 688.665 158 687.945 157.248C687.241 156.496 686.273 156.12 685.041 156.12C683.777 156.12 682.769 156.52 682.017 157.32C681.265 158.12 680.889 159.296 680.889 160.848V168H679.209V154.896H680.889V157.128C681.305 156.328 681.905 155.72 682.689 155.304C683.473 154.872 684.361 154.656 685.353 154.656ZM698.909 168.192C697.405 168.192 696.173 167.848 695.213 167.16C694.269 166.456 693.741 165.504 693.629 164.304H695.357C695.437 165.04 695.781 165.64 696.389 166.104C697.013 166.552 697.845 166.776 698.885 166.776C699.797 166.776 700.509 166.56 701.021 166.128C701.549 165.696 701.813 165.16 701.813 164.52C701.813 164.072 701.669 163.704 701.381 163.416C701.093 163.128 700.725 162.904 700.277 162.744C699.845 162.568 699.253 162.384 698.501 162.192C697.525 161.936 696.733 161.68 696.125 161.424C695.517 161.168 694.997 160.792 694.565 160.296C694.149 159.784 693.941 159.104 693.941 158.256C693.941 157.616 694.133 157.024 694.517 156.48C694.901 155.936 695.445 155.504 696.149 155.184C696.853 154.864 697.653 154.704 698.549 154.704C699.957 154.704 701.093 155.064 701.957 155.784C702.821 156.488 703.285 157.464 703.349 158.712H701.669C701.621 157.944 701.317 157.328 700.757 156.864C700.213 156.384 699.461 156.144 698.501 156.144C697.653 156.144 696.965 156.344 696.437 156.744C695.909 157.144 695.645 157.64 695.645 158.232C695.645 158.744 695.797 159.168 696.101 159.504C696.421 159.824 696.813 160.08 697.277 160.272C697.741 160.448 698.365 160.648 699.149 160.872C700.093 161.128 700.845 161.376 701.405 161.616C701.965 161.856 702.445 162.208 702.845 162.672C703.245 163.136 703.453 163.752 703.469 164.52C703.469 165.224 703.277 165.856 702.893 166.416C702.509 166.96 701.973 167.392 701.285 167.712C700.597 168.032 699.805 168.192 698.909 168.192ZM705.863 161.424C705.863 160.08 706.127 158.904 706.655 157.896C707.199 156.872 707.943 156.088 708.887 155.544C709.847 154.984 710.927 154.704 712.127 154.704C713.375 154.704 714.447 154.992 715.343 155.568C716.255 156.144 716.911 156.88 717.311 157.776V154.896H718.991V168H717.311V165.096C716.895 165.992 716.231 166.736 715.319 167.328C714.423 167.904 713.351 168.192 712.103 168.192C710.919 168.192 709.847 167.912 708.887 167.352C707.943 166.792 707.199 166 706.655 164.976C706.127 163.952 705.863 162.768 705.863 161.424ZM717.311 161.448C717.311 160.392 717.095 159.464 716.663 158.664C716.231 157.864 715.639 157.248 714.887 156.816C714.151 156.384 713.335 156.168 712.439 156.168C711.511 156.168 710.679 156.376 709.943 156.792C709.207 157.208 708.623 157.816 708.191 158.616C707.775 159.4 707.567 160.336 707.567 161.424C707.567 162.496 707.775 163.44 708.191 164.256C708.623 165.056 709.207 165.672 709.943 166.104C710.679 166.52 711.511 166.728 712.439 166.728C713.335 166.728 714.151 166.512 714.887 166.08C715.639 165.648 716.231 165.032 716.663 164.232C717.095 163.432 717.311 162.504 717.311 161.448ZM724.506 150.24V168H722.826V150.24H724.506ZM728.599 168.12C728.247 168.12 727.951 168 727.711 167.76C727.487 167.52 727.375 167.224 727.375 166.872C727.375 166.52 727.487 166.232 727.711 166.008C727.951 165.768 728.247 165.648 728.599 165.648C728.935 165.648 729.215 165.768 729.439 166.008C729.679 166.232 729.799 166.52 729.799 166.872C729.799 167.224 729.679 167.52 729.439 167.76C729.215 168 728.935 168.12 728.599 168.12Z" fill="white"/>
<path d="M71.1486 65.1307C31 35 -5.00002 102.5 41.7751 120.184C0.462921 155.366 47 190.882 69.9883 170.443M71.1486 65.1307C48.5536 34.5364 95.1787 -11.1586 123.728 40.1054C135.819 -3.45221 202.658 23.3525 175.452 66.2399L119.026 120.184M71.1486 65.1307L119.026 120.184M171.422 174.129C193 192.5 153.285 249.517 119.026 190.882C102 237 45 206.5 69.9883 170.443M171.422 174.129C194.933 184.516 230.871 143.974 202.658 117.169L168.307 114.049V132.478M171.422 174.129L119.026 120.184M69.9883 170.443L119.026 120.184" stroke="url(#paint0_linear_46_5)" stroke-width="15" stroke-linecap="round" stroke-linejoin="round"/>
<defs>
<linearGradient id="paint0_linear_46_5" x1="132.36" y1="252.359" x2="117.992" y2="88.8239" gradientUnits="userSpaceOnUse">
<stop offset="0.069732" stop-color="#01A662"/>
<stop offset="1" stop-color="#08D136"/>
</linearGradient>
</defs>
</svg>
