<svg width="930" height="288" viewBox="0 0 930 288" fill="none" xmlns="http://www.w3.org/2000/svg">
<path d="M347.84 78.44C354.133 78.44 359.627 79.72 364.32 82.28C369.12 84.84 372.8 88.2 375.36 92.36V79.72H402.72V168.84C402.72 177.053 401.067 184.467 397.76 191.08C394.56 197.8 389.6 203.133 382.88 207.08C376.267 211.027 368 213 358.08 213C344.853 213 334.133 209.853 325.92 203.56C317.707 197.373 313.013 188.947 311.84 178.28H338.88C339.733 181.693 341.76 184.36 344.96 186.28C348.16 188.307 352.107 189.32 356.8 189.32C362.453 189.32 366.933 187.667 370.24 184.36C373.653 181.16 375.36 175.987 375.36 168.84V156.2C372.693 160.36 369.013 163.773 364.32 166.44C359.627 169 354.133 170.28 347.84 170.28C340.48 170.28 333.813 168.413 327.84 164.68C321.867 160.84 317.12 155.453 313.6 148.52C310.187 141.48 308.48 133.373 308.48 124.2C308.48 115.027 310.187 106.973 313.6 100.04C317.12 93.1067 321.867 87.7733 327.84 84.04C333.813 80.3067 340.48 78.44 347.84 78.44ZM375.36 124.36C375.36 117.533 373.44 112.147 369.6 108.2C365.867 104.253 361.28 102.28 355.84 102.28C350.4 102.28 345.76 104.253 341.92 108.2C338.187 112.04 336.32 117.373 336.32 124.2C336.32 131.027 338.187 136.467 341.92 140.52C345.76 144.467 350.4 146.44 355.84 146.44C361.28 146.44 365.867 144.467 369.6 140.52C373.44 136.573 375.36 131.187 375.36 124.36ZM417.074 124.36C417.074 115.08 418.94 106.973 422.674 100.04C426.514 93.1067 431.794 87.7733 438.514 84.04C445.34 80.3067 453.127 78.44 461.874 78.44C473.074 78.44 482.407 81.3733 489.874 87.24C497.447 93.1067 502.407 101.373 504.754 112.04H475.634C473.18 105.213 468.434 101.8 461.394 101.8C456.38 101.8 452.38 103.773 449.394 107.72C446.407 111.56 444.914 117.107 444.914 124.36C444.914 131.613 446.407 137.213 449.394 141.16C452.38 145 456.38 146.92 461.394 146.92C468.434 146.92 473.18 143.507 475.634 136.68H504.754C502.407 147.133 497.447 155.347 489.874 161.32C482.3 167.293 472.967 170.28 461.874 170.28C453.127 170.28 445.34 168.413 438.514 164.68C431.794 160.947 426.514 155.613 422.674 148.68C418.94 141.747 417.074 133.64 417.074 124.36ZM513.949 124.2C513.949 115.027 515.655 106.973 519.069 100.04C522.589 93.1067 527.335 87.7733 533.309 84.04C539.282 80.3067 545.949 78.44 553.309 78.44C559.602 78.44 565.095 79.72 569.789 82.28C574.589 84.84 578.269 88.2 580.829 92.36V79.72H608.189V169H580.829V156.36C578.162 160.52 574.429 163.88 569.629 166.44C564.935 169 559.442 170.28 553.149 170.28C545.895 170.28 539.282 168.413 533.309 164.68C527.335 160.84 522.589 155.453 519.069 148.52C515.655 141.48 513.949 133.373 513.949 124.2ZM580.829 124.36C580.829 117.533 578.909 112.147 575.069 108.2C571.335 104.253 566.749 102.28 561.309 102.28C555.869 102.28 551.229 104.253 547.389 108.2C543.655 112.04 541.789 117.373 541.789 124.2C541.789 131.027 543.655 136.467 547.389 140.52C551.229 144.467 555.869 146.44 561.309 146.44C566.749 146.44 571.335 144.467 575.069 140.52C578.909 136.573 580.829 131.187 580.829 124.36ZM664.303 170.28C656.516 170.28 649.583 168.947 643.503 166.28C637.423 163.613 632.623 159.987 629.103 155.4C625.583 150.707 623.609 145.48 623.183 139.72H650.223C650.543 142.813 651.983 145.32 654.543 147.24C657.103 149.16 660.249 150.12 663.983 150.12C667.396 150.12 670.009 149.48 671.823 148.2C673.743 146.813 674.703 145.053 674.703 142.92C674.703 140.36 673.369 138.493 670.703 137.32C668.036 136.04 663.716 134.653 657.743 133.16C651.343 131.667 646.009 130.12 641.743 128.52C637.476 126.813 633.796 124.2 630.703 120.68C627.609 117.053 626.063 112.2 626.063 106.12C626.063 101 627.449 96.36 630.223 92.2C633.103 87.9333 637.263 84.5733 642.703 82.12C648.249 79.6667 654.809 78.44 662.383 78.44C673.583 78.44 682.383 81.2133 688.783 86.76C695.289 92.3067 699.023 99.6667 699.983 108.84H674.703C674.276 105.747 672.889 103.293 670.543 101.48C668.303 99.6667 665.316 98.76 661.583 98.76C658.383 98.76 655.929 99.4 654.223 100.68C652.516 101.853 651.663 103.507 651.663 105.64C651.663 108.2 652.996 110.12 655.663 111.4C658.436 112.68 662.703 113.96 668.463 115.24C675.076 116.947 680.463 118.653 684.623 120.36C688.783 121.96 692.409 124.627 695.503 128.36C698.703 131.987 700.356 136.893 700.463 143.08C700.463 148.307 698.969 153 695.983 157.16C693.103 161.213 688.889 164.413 683.343 166.76C677.903 169.107 671.556 170.28 664.303 170.28ZM772.081 78.76C782.321 78.76 790.535 82.1733 796.721 89C802.908 95.72 806.001 105 806.001 116.84V169H778.801V120.52C778.801 114.547 777.255 109.907 774.161 106.6C771.068 103.293 766.908 101.64 761.681 101.64C756.455 101.64 752.295 103.293 749.201 106.6C746.108 109.907 744.561 114.547 744.561 120.52V169H717.201V50.6H744.561V91.72C747.335 87.7733 751.121 84.6267 755.921 82.28C760.721 79.9333 766.108 78.76 772.081 78.76ZM837.814 170.28C833.014 170.28 829.067 168.893 825.974 166.12C822.987 163.24 821.494 159.72 821.494 155.56C821.494 151.293 822.987 147.72 825.974 144.84C829.067 141.96 833.014 140.52 837.814 140.52C842.507 140.52 846.347 141.96 849.334 144.84C852.427 147.72 853.974 151.293 853.974 155.56C853.974 159.72 852.427 163.24 849.334 166.12C846.347 168.893 842.507 170.28 837.814 170.28Z" fill="white"/>
<path d="M420.456 210.168C418.904 210.168 417.496 209.808 416.232 209.088C414.968 208.352 413.968 207.336 413.232 206.04C412.512 204.728 412.152 203.248 412.152 201.6C412.152 199.952 412.512 198.48 413.232 197.184C413.968 195.872 414.968 194.856 416.232 194.136C417.496 193.4 418.904 193.032 420.456 193.032C422.024 193.032 423.44 193.4 424.704 194.136C425.968 194.856 426.96 195.872 427.68 197.184C428.4 198.48 428.76 199.952 428.76 201.6C428.76 203.248 428.4 204.728 427.68 206.04C426.96 207.336 425.968 208.352 424.704 209.088C423.44 209.808 422.024 210.168 420.456 210.168ZM420.456 208.704C421.704 208.704 422.824 208.416 423.816 207.84C424.808 207.264 425.592 206.44 426.168 205.368C426.744 204.28 427.032 203.024 427.032 201.6C427.032 200.176 426.744 198.928 426.168 197.856C425.592 196.784 424.808 195.96 423.816 195.384C422.824 194.808 421.704 194.52 420.456 194.52C419.208 194.52 418.088 194.808 417.096 195.384C416.104 195.96 415.32 196.784 414.744 197.856C414.168 198.928 413.88 200.176 413.88 201.6C413.88 203.024 414.168 204.28 414.744 205.368C415.32 206.44 416.104 207.264 417.096 207.84C418.088 208.416 419.208 208.704 420.456 208.704ZM433.514 199.224C433.882 198.408 434.442 197.776 435.194 197.328C435.962 196.88 436.898 196.656 438.002 196.656V198.408H437.546C436.33 198.408 435.354 198.736 434.618 199.392C433.882 200.048 433.514 201.144 433.514 202.68V210H431.834V196.896H433.514V199.224ZM446.025 196.704C447.257 196.704 448.329 196.992 449.241 197.568C450.153 198.144 450.809 198.872 451.209 199.752V196.896H452.889V210.336C452.889 211.536 452.625 212.6 452.097 213.528C451.585 214.456 450.865 215.168 449.937 215.664C449.009 216.176 447.953 216.432 446.769 216.432C445.089 216.432 443.689 216.032 442.569 215.232C441.465 214.432 440.777 213.344 440.505 211.968H442.161C442.449 212.88 442.993 213.608 443.793 214.152C444.609 214.696 445.601 214.968 446.769 214.968C447.617 214.968 448.377 214.784 449.049 214.416C449.721 214.064 450.249 213.536 450.633 212.832C451.017 212.128 451.209 211.296 451.209 210.336V207.096C450.793 207.992 450.129 208.736 449.217 209.328C448.321 209.904 447.257 210.192 446.025 210.192C444.825 210.192 443.745 209.912 442.785 209.352C441.841 208.792 441.097 208 440.553 206.976C440.025 205.952 439.761 204.768 439.761 203.424C439.761 202.08 440.025 200.904 440.553 199.896C441.097 198.872 441.841 198.088 442.785 197.544C443.745 196.984 444.825 196.704 446.025 196.704ZM451.209 203.448C451.209 202.392 450.993 201.464 450.561 200.664C450.129 199.864 449.537 199.248 448.785 198.816C448.049 198.384 447.233 198.168 446.337 198.168C445.409 198.168 444.577 198.376 443.841 198.792C443.105 199.208 442.521 199.816 442.089 200.616C441.673 201.4 441.465 202.336 441.465 203.424C441.465 204.496 441.673 205.44 442.089 206.256C442.521 207.056 443.105 207.672 443.841 208.104C444.577 208.52 445.409 208.728 446.337 208.728C447.233 208.728 448.049 208.512 448.785 208.08C449.537 207.648 450.129 207.032 450.561 206.232C450.993 205.432 451.209 204.504 451.209 203.448ZM455.957 203.424C455.957 202.08 456.221 200.904 456.749 199.896C457.293 198.872 458.037 198.088 458.981 197.544C459.941 196.984 461.021 196.704 462.221 196.704C463.469 196.704 464.541 196.992 465.437 197.568C466.349 198.144 467.005 198.88 467.405 199.776V196.896H469.085V210H467.405V207.096C466.989 207.992 466.325 208.736 465.413 209.328C464.517 209.904 463.445 210.192 462.197 210.192C461.013 210.192 459.941 209.912 458.981 209.352C458.037 208.792 457.293 208 456.749 206.976C456.221 205.952 455.957 204.768 455.957 203.424ZM467.405 203.448C467.405 202.392 467.189 201.464 466.757 200.664C466.325 199.864 465.733 199.248 464.981 198.816C464.245 198.384 463.429 198.168 462.533 198.168C461.605 198.168 460.773 198.376 460.037 198.792C459.301 199.208 458.717 199.816 458.285 200.616C457.869 201.4 457.661 202.336 457.661 203.424C457.661 204.496 457.869 205.44 458.285 206.256C458.717 207.056 459.301 207.672 460.037 208.104C460.773 208.52 461.605 208.728 462.533 208.728C463.429 208.728 464.245 208.512 464.981 208.08C465.733 207.648 466.325 207.032 466.757 206.232C467.189 205.432 467.405 204.504 467.405 203.448ZM479.064 196.656C480.632 196.656 481.912 197.144 482.904 198.12C483.896 199.08 484.392 200.48 484.392 202.32V210H482.736V202.512C482.736 201.088 482.376 200 481.656 199.248C480.952 198.496 479.984 198.12 478.752 198.12C477.488 198.12 476.48 198.52 475.728 199.32C474.976 200.12 474.6 201.296 474.6 202.848V210H472.92V196.896H474.6V199.128C475.016 198.328 475.616 197.72 476.4 197.304C477.184 196.872 478.072 196.656 479.064 196.656ZM488.948 194.424C488.612 194.424 488.324 194.304 488.084 194.064C487.844 193.824 487.724 193.528 487.724 193.176C487.724 192.824 487.844 192.536 488.084 192.312C488.324 192.072 488.612 191.952 488.948 191.952C489.284 191.952 489.572 192.072 489.812 192.312C490.052 192.536 490.172 192.824 490.172 193.176C490.172 193.528 490.052 193.824 489.812 194.064C489.572 194.304 489.284 194.424 488.948 194.424ZM489.788 196.896V210H488.108V196.896H489.788ZM494.48 208.608H501.344V210H492.56V208.608L499.304 198.288H492.68V196.896H501.224V198.288L494.48 208.608ZM503.418 203.424C503.418 202.08 503.682 200.904 504.21 199.896C504.754 198.872 505.498 198.088 506.442 197.544C507.402 196.984 508.482 196.704 509.682 196.704C510.93 196.704 512.002 196.992 512.898 197.568C513.81 198.144 514.466 198.88 514.866 199.776V196.896H516.546V210H514.866V207.096C514.45 207.992 513.786 208.736 512.874 209.328C511.978 209.904 510.906 210.192 509.658 210.192C508.474 210.192 507.402 209.912 506.442 209.352C505.498 208.792 504.754 208 504.21 206.976C503.682 205.952 503.418 204.768 503.418 203.424ZM514.866 203.448C514.866 202.392 514.65 201.464 514.218 200.664C513.786 199.864 513.194 199.248 512.442 198.816C511.706 198.384 510.89 198.168 509.994 198.168C509.066 198.168 508.234 198.376 507.498 198.792C506.762 199.208 506.178 199.816 505.746 200.616C505.33 201.4 505.122 202.336 505.122 203.424C505.122 204.496 505.33 205.44 505.746 206.256C506.178 207.056 506.762 207.672 507.498 208.104C508.234 208.52 509.066 208.728 509.994 208.728C510.89 208.728 511.706 208.512 512.442 208.08C513.194 207.648 513.786 207.032 514.218 206.232C514.65 205.432 514.866 204.504 514.866 203.448ZM526.525 196.656C528.093 196.656 529.373 197.144 530.365 198.12C531.357 199.08 531.853 200.48 531.853 202.32V210H530.197V202.512C530.197 201.088 529.837 200 529.117 199.248C528.413 198.496 527.445 198.12 526.213 198.12C524.949 198.12 523.941 198.52 523.189 199.32C522.437 200.12 522.061 201.296 522.061 202.848V210H520.381V196.896H522.061V199.128C522.477 198.328 523.077 197.72 523.861 197.304C524.645 196.872 525.533 196.656 526.525 196.656ZM534.8 203.424C534.8 202.08 535.072 200.904 535.616 199.896C536.16 198.872 536.904 198.088 537.848 197.544C538.808 196.984 539.888 196.704 541.088 196.704C542.24 196.704 543.28 196.984 544.208 197.544C545.136 198.104 545.816 198.832 546.248 199.728V192.24H547.928V210H546.248V207.072C545.848 207.984 545.192 208.736 544.28 209.328C543.368 209.904 542.296 210.192 541.064 210.192C539.864 210.192 538.784 209.912 537.824 209.352C536.88 208.792 536.136 208 535.592 206.976C535.064 205.952 534.8 204.768 534.8 203.424ZM546.248 203.448C546.248 202.392 546.032 201.464 545.6 200.664C545.168 199.864 544.576 199.248 543.824 198.816C543.088 198.384 542.272 198.168 541.376 198.168C540.448 198.168 539.616 198.376 538.88 198.792C538.144 199.208 537.56 199.816 537.128 200.616C536.712 201.4 536.504 202.336 536.504 203.424C536.504 204.496 536.712 205.44 537.128 206.256C537.56 207.056 538.144 207.672 538.88 208.104C539.616 208.52 540.448 208.728 541.376 208.728C542.272 208.728 543.088 208.512 543.824 208.08C544.576 207.648 545.168 207.032 545.6 206.232C546.032 205.432 546.248 204.504 546.248 203.448ZM557.5 210.192C556.268 210.192 555.156 209.92 554.164 209.376C553.188 208.816 552.412 208.032 551.836 207.024C551.276 206 550.996 204.808 550.996 203.448C550.996 202.088 551.284 200.904 551.86 199.896C552.436 198.872 553.22 198.088 554.212 197.544C555.204 196.984 556.316 196.704 557.548 196.704C558.78 196.704 559.892 196.984 560.884 197.544C561.892 198.088 562.676 198.872 563.236 199.896C563.812 200.904 564.1 202.088 564.1 203.448C564.1 204.792 563.812 205.976 563.236 207C562.66 208.024 561.868 208.816 560.86 209.376C559.852 209.92 558.732 210.192 557.5 210.192ZM557.5 208.728C558.364 208.728 559.164 208.536 559.9 208.152C560.636 207.752 561.228 207.16 561.676 206.376C562.14 205.576 562.372 204.6 562.372 203.448C562.372 202.296 562.148 201.328 561.7 200.544C561.252 199.744 560.66 199.152 559.924 198.768C559.188 198.368 558.388 198.168 557.524 198.168C556.66 198.168 555.86 198.368 555.124 198.768C554.388 199.152 553.796 199.744 553.348 200.544C552.916 201.328 552.7 202.296 552.7 203.448C552.7 204.6 552.916 205.576 553.348 206.376C553.796 207.16 554.38 207.752 555.1 208.152C555.836 208.536 556.636 208.728 557.5 208.728ZM578.26 210.192C576.756 210.192 575.524 209.848 574.564 209.16C573.62 208.456 573.092 207.504 572.98 206.304H574.708C574.788 207.04 575.132 207.64 575.74 208.104C576.364 208.552 577.196 208.776 578.236 208.776C579.148 208.776 579.86 208.56 580.372 208.128C580.9 207.696 581.164 207.16 581.164 206.52C581.164 206.072 581.02 205.704 580.732 205.416C580.444 205.128 580.076 204.904 579.628 204.744C579.196 204.568 578.604 204.384 577.852 204.192C576.876 203.936 576.084 203.68 575.476 203.424C574.868 203.168 574.348 202.792 573.916 202.296C573.5 201.784 573.292 201.104 573.292 200.256C573.292 199.616 573.484 199.024 573.868 198.48C574.252 197.936 574.796 197.504 575.5 197.184C576.204 196.864 577.004 196.704 577.9 196.704C579.308 196.704 580.444 197.064 581.308 197.784C582.172 198.488 582.636 199.464 582.7 200.712H581.02C580.972 199.944 580.668 199.328 580.108 198.864C579.564 198.384 578.812 198.144 577.852 198.144C577.004 198.144 576.316 198.344 575.788 198.744C575.26 199.144 574.996 199.64 574.996 200.232C574.996 200.744 575.148 201.168 575.452 201.504C575.772 201.824 576.164 202.08 576.628 202.272C577.092 202.448 577.716 202.648 578.5 202.872C579.444 203.128 580.196 203.376 580.756 203.616C581.316 203.856 581.796 204.208 582.196 204.672C582.596 205.136 582.804 205.752 582.82 206.52C582.82 207.224 582.628 207.856 582.244 208.416C581.86 208.96 581.324 209.392 580.636 209.712C579.948 210.032 579.156 210.192 578.26 210.192ZM597.335 196.896V210H595.655V207.696C595.271 208.512 594.679 209.136 593.879 209.568C593.079 210 592.183 210.216 591.191 210.216C589.623 210.216 588.343 209.736 587.351 208.776C586.359 207.8 585.863 206.392 585.863 204.552V196.896H587.519V204.36C587.519 205.784 587.871 206.872 588.575 207.624C589.295 208.376 590.271 208.752 591.503 208.752C592.767 208.752 593.775 208.352 594.527 207.552C595.279 206.752 595.655 205.576 595.655 204.024V196.896H597.335ZM600.402 203.424C600.402 202.08 600.666 200.904 601.194 199.896C601.738 198.872 602.482 198.088 603.426 197.544C604.386 196.984 605.466 196.704 606.666 196.704C607.914 196.704 608.986 196.992 609.882 197.568C610.794 198.144 611.45 198.88 611.85 199.776V196.896H613.53V210H611.85V207.096C611.434 207.992 610.77 208.736 609.858 209.328C608.962 209.904 607.89 210.192 606.642 210.192C605.458 210.192 604.386 209.912 603.426 209.352C602.482 208.792 601.738 208 601.194 206.976C600.666 205.952 600.402 204.768 600.402 203.424ZM611.85 203.448C611.85 202.392 611.634 201.464 611.202 200.664C610.77 199.864 610.178 199.248 609.426 198.816C608.69 198.384 607.874 198.168 606.978 198.168C606.05 198.168 605.218 198.376 604.482 198.792C603.746 199.208 603.162 199.816 602.73 200.616C602.314 201.4 602.106 202.336 602.106 203.424C602.106 204.496 602.314 205.44 602.73 206.256C603.162 207.056 603.746 207.672 604.482 208.104C605.218 208.52 606.05 208.728 606.978 208.728C607.874 208.728 608.69 208.512 609.426 208.08C610.178 207.648 610.77 207.032 611.202 206.232C611.634 205.432 611.85 204.504 611.85 203.448ZM625.631 199.224C625.999 198.408 626.559 197.776 627.311 197.328C628.079 196.88 629.015 196.656 630.119 196.656V198.408H629.663C628.447 198.408 627.471 198.736 626.735 199.392C625.999 200.048 625.631 201.144 625.631 202.68V210H623.951V196.896H625.631V199.224ZM644.503 202.776C644.503 203.352 644.487 203.792 644.455 204.096H633.583C633.631 205.088 633.871 205.936 634.303 206.64C634.735 207.344 635.303 207.88 636.007 208.248C636.711 208.6 637.479 208.776 638.311 208.776C639.399 208.776 640.311 208.512 641.047 207.984C641.799 207.456 642.295 206.744 642.535 205.848H644.311C643.991 207.128 643.303 208.176 642.247 208.992C641.207 209.792 639.895 210.192 638.311 210.192C637.079 210.192 635.975 209.92 634.999 209.376C634.023 208.816 633.255 208.032 632.695 207.024C632.151 206 631.879 204.808 631.879 203.448C631.879 202.088 632.151 200.896 632.695 199.872C633.239 198.848 633.999 198.064 634.975 197.52C635.951 196.976 637.063 196.704 638.311 196.704C639.559 196.704 640.647 196.976 641.575 197.52C642.519 198.064 643.239 198.8 643.735 199.728C644.247 200.64 644.503 201.656 644.503 202.776ZM642.799 202.728C642.815 201.752 642.615 200.92 642.199 200.232C641.799 199.544 641.247 199.024 640.543 198.672C639.839 198.32 639.071 198.144 638.239 198.144C636.991 198.144 635.927 198.544 635.047 199.344C634.167 200.144 633.679 201.272 633.583 202.728H642.799ZM653.72 196.656C655.288 196.656 656.568 197.144 657.56 198.12C658.552 199.08 659.048 200.48 659.048 202.32V210H657.392V202.512C657.392 201.088 657.032 200 656.312 199.248C655.608 198.496 654.64 198.12 653.408 198.12C652.144 198.12 651.136 198.52 650.384 199.32C649.632 200.12 649.256 201.296 649.256 202.848V210H647.576V196.896H649.256V199.128C649.672 198.328 650.272 197.72 651.056 197.304C651.84 196.872 652.728 196.656 653.72 196.656ZM661.996 203.424C661.996 202.08 662.268 200.904 662.812 199.896C663.356 198.872 664.1 198.088 665.044 197.544C666.004 196.984 667.084 196.704 668.284 196.704C669.436 196.704 670.476 196.984 671.404 197.544C672.332 198.104 673.012 198.832 673.444 199.728V192.24H675.124V210H673.444V207.072C673.044 207.984 672.388 208.736 671.476 209.328C670.564 209.904 669.492 210.192 668.26 210.192C667.06 210.192 665.98 209.912 665.02 209.352C664.076 208.792 663.332 208 662.788 206.976C662.26 205.952 661.996 204.768 661.996 203.424ZM673.444 203.448C673.444 202.392 673.228 201.464 672.796 200.664C672.364 199.864 671.772 199.248 671.02 198.816C670.284 198.384 669.468 198.168 668.572 198.168C667.644 198.168 666.812 198.376 666.076 198.792C665.34 199.208 664.756 199.816 664.324 200.616C663.908 201.4 663.7 202.336 663.7 203.424C663.7 204.496 663.908 205.44 664.324 206.256C664.756 207.056 665.34 207.672 666.076 208.104C666.812 208.52 667.644 208.728 668.572 208.728C669.468 208.728 670.284 208.512 671.02 208.08C671.772 207.648 672.364 207.032 672.796 206.232C673.228 205.432 673.444 204.504 673.444 203.448ZM678.191 203.424C678.191 202.08 678.455 200.904 678.983 199.896C679.527 198.872 680.271 198.088 681.215 197.544C682.175 196.984 683.255 196.704 684.455 196.704C685.703 196.704 686.775 196.992 687.671 197.568C688.583 198.144 689.239 198.88 689.639 199.776V196.896H691.319V210H689.639V207.096C689.223 207.992 688.559 208.736 687.647 209.328C686.751 209.904 685.679 210.192 684.431 210.192C683.247 210.192 682.175 209.912 681.215 209.352C680.271 208.792 679.527 208 678.983 206.976C678.455 205.952 678.191 204.768 678.191 203.424ZM689.639 203.448C689.639 202.392 689.423 201.464 688.991 200.664C688.559 199.864 687.967 199.248 687.215 198.816C686.479 198.384 685.663 198.168 684.767 198.168C683.839 198.168 683.007 198.376 682.271 198.792C681.535 199.208 680.951 199.816 680.519 200.616C680.103 201.4 679.895 202.336 679.895 203.424C679.895 204.496 680.103 205.44 680.519 206.256C680.951 207.056 681.535 207.672 682.271 208.104C683.007 208.52 683.839 208.728 684.767 208.728C685.663 208.728 686.479 208.512 687.215 208.08C687.967 207.648 688.559 207.032 688.991 206.232C689.423 205.432 689.639 204.504 689.639 203.448ZM717.34 196.656C718.876 196.656 720.124 197.144 721.084 198.12C722.06 199.08 722.548 200.48 722.548 202.32V210H720.892V202.512C720.892 201.088 720.548 200 719.86 199.248C719.172 198.496 718.236 198.12 717.052 198.12C715.82 198.12 714.836 198.528 714.1 199.344C713.364 200.16 712.996 201.344 712.996 202.896V210H711.34V202.512C711.34 201.088 710.996 200 710.308 199.248C709.62 198.496 708.676 198.12 707.476 198.12C706.244 198.12 705.26 198.528 704.524 199.344C703.788 200.16 703.42 201.344 703.42 202.896V210H701.74V196.896H703.42V199.152C703.836 198.336 704.428 197.72 705.196 197.304C705.964 196.872 706.82 196.656 707.764 196.656C708.9 196.656 709.892 196.928 710.74 197.472C711.604 198.016 712.228 198.816 712.612 199.872C712.964 198.832 713.564 198.04 714.412 197.496C715.276 196.936 716.252 196.656 717.34 196.656ZM738.135 202.776C738.135 203.352 738.119 203.792 738.087 204.096H727.215C727.263 205.088 727.503 205.936 727.935 206.64C728.367 207.344 728.935 207.88 729.639 208.248C730.343 208.6 731.111 208.776 731.943 208.776C733.031 208.776 733.943 208.512 734.679 207.984C735.431 207.456 735.927 206.744 736.167 205.848H737.943C737.623 207.128 736.935 208.176 735.879 208.992C734.839 209.792 733.527 210.192 731.943 210.192C730.711 210.192 729.607 209.92 728.631 209.376C727.655 208.816 726.887 208.032 726.327 207.024C725.783 206 725.511 204.808 725.511 203.448C725.511 202.088 725.783 200.896 726.327 199.872C726.871 198.848 727.631 198.064 728.607 197.52C729.583 196.976 730.695 196.704 731.943 196.704C733.191 196.704 734.279 196.976 735.207 197.52C736.151 198.064 736.871 198.8 737.367 199.728C737.879 200.64 738.135 201.656 738.135 202.776ZM736.431 202.728C736.447 201.752 736.247 200.92 735.831 200.232C735.431 199.544 734.879 199.024 734.175 198.672C733.471 198.32 732.703 198.144 731.871 198.144C730.623 198.144 729.559 198.544 728.679 199.344C727.799 200.144 727.311 201.272 727.215 202.728H736.431ZM747.353 196.656C748.921 196.656 750.201 197.144 751.193 198.12C752.185 199.08 752.681 200.48 752.681 202.32V210H751.025V202.512C751.025 201.088 750.665 200 749.945 199.248C749.241 198.496 748.273 198.12 747.041 198.12C745.777 198.12 744.769 198.52 744.017 199.32C743.265 200.12 742.889 201.296 742.889 202.848V210H741.209V196.896H742.889V199.128C743.305 198.328 743.905 197.72 744.689 197.304C745.473 196.872 746.361 196.656 747.353 196.656ZM760.909 210.192C759.405 210.192 758.173 209.848 757.213 209.16C756.269 208.456 755.741 207.504 755.629 206.304H757.357C757.437 207.04 757.781 207.64 758.389 208.104C759.013 208.552 759.845 208.776 760.885 208.776C761.797 208.776 762.509 208.56 763.021 208.128C763.549 207.696 763.813 207.16 763.813 206.52C763.813 206.072 763.669 205.704 763.381 205.416C763.093 205.128 762.725 204.904 762.277 204.744C761.845 204.568 761.253 204.384 760.501 204.192C759.525 203.936 758.733 203.68 758.125 203.424C757.517 203.168 756.997 202.792 756.565 202.296C756.149 201.784 755.941 201.104 755.941 200.256C755.941 199.616 756.133 199.024 756.517 198.48C756.901 197.936 757.445 197.504 758.149 197.184C758.853 196.864 759.653 196.704 760.549 196.704C761.957 196.704 763.093 197.064 763.957 197.784C764.821 198.488 765.285 199.464 765.349 200.712H763.669C763.621 199.944 763.317 199.328 762.757 198.864C762.213 198.384 761.461 198.144 760.501 198.144C759.653 198.144 758.965 198.344 758.437 198.744C757.909 199.144 757.645 199.64 757.645 200.232C757.645 200.744 757.797 201.168 758.101 201.504C758.421 201.824 758.813 202.08 759.277 202.272C759.741 202.448 760.365 202.648 761.149 202.872C762.093 203.128 762.845 203.376 763.405 203.616C763.965 203.856 764.445 204.208 764.845 204.672C765.245 205.136 765.453 205.752 765.469 206.52C765.469 207.224 765.277 207.856 764.893 208.416C764.509 208.96 763.973 209.392 763.285 209.712C762.597 210.032 761.805 210.192 760.909 210.192ZM767.863 203.424C767.863 202.08 768.127 200.904 768.655 199.896C769.199 198.872 769.943 198.088 770.887 197.544C771.847 196.984 772.927 196.704 774.127 196.704C775.375 196.704 776.447 196.992 777.343 197.568C778.255 198.144 778.911 198.88 779.311 199.776V196.896H780.991V210H779.311V207.096C778.895 207.992 778.231 208.736 777.319 209.328C776.423 209.904 775.351 210.192 774.103 210.192C772.919 210.192 771.847 209.912 770.887 209.352C769.943 208.792 769.199 208 768.655 206.976C768.127 205.952 767.863 204.768 767.863 203.424ZM779.311 203.448C779.311 202.392 779.095 201.464 778.663 200.664C778.231 199.864 777.639 199.248 776.887 198.816C776.151 198.384 775.335 198.168 774.439 198.168C773.511 198.168 772.679 198.376 771.943 198.792C771.207 199.208 770.623 199.816 770.191 200.616C769.775 201.4 769.567 202.336 769.567 203.424C769.567 204.496 769.775 205.44 770.191 206.256C770.623 207.056 771.207 207.672 771.943 208.104C772.679 208.52 773.511 208.728 774.439 208.728C775.335 208.728 776.151 208.512 776.887 208.08C777.639 207.648 778.231 207.032 778.663 206.232C779.095 205.432 779.311 204.504 779.311 203.448ZM786.506 192.24V210H784.826V192.24H786.506ZM790.599 210.12C790.247 210.12 789.951 210 789.711 209.76C789.487 209.52 789.375 209.224 789.375 208.872C789.375 208.52 789.487 208.232 789.711 208.008C789.951 207.768 790.247 207.648 790.599 207.648C790.935 207.648 791.215 207.768 791.439 208.008C791.679 208.232 791.799 208.52 791.799 208.872C791.799 209.224 791.679 209.52 791.439 209.76C791.215 210 790.935 210.12 790.599 210.12Z" fill="white"/>
<rect x="19" y="20" width="248" height="248" rx="70" fill="url(#paint0_linear_46_5)"/>
<path d="M100.587 95.5583C41.5181 94.8577 53.0168 137.195 73.9964 145.382C36.598 177.221 70.0438 202.389 99.5368 190.866M100.587 95.5583C80.1328 67.8704 122.341 26.5165 148.185 72.9104C159.131 33.4907 219.637 57.749 195.009 96.5622L143.928 145.382M100.587 95.5583L143.928 145.382M191.361 194.202C201.698 212.092 174.942 262.428 143.928 209.363C136.327 241.505 85.8544 240.292 99.5368 190.866M191.361 194.202C212.644 203.602 245.178 166.911 219.637 142.653L188.541 139.83V156.507M191.361 194.202L143.928 145.382M99.5368 190.866L143.928 145.382" stroke="#FDFBFA" stroke-width="10" stroke-linecap="round" stroke-linejoin="round"/>
<defs>
<linearGradient id="paint0_linear_46_5" x1="143" y1="20" x2="143" y2="268" gradientUnits="userSpaceOnUse">
<stop stop-color="#08D136"/>
<stop offset="1" stop-color="#01A662"/>
</linearGradient>
</defs>
</svg>
