<svg width="951" height="323" viewBox="0 0 951 323" fill="none" xmlns="http://www.w3.org/2000/svg">
<rect y="66" width="240" height="240" rx="67" fill="#08D136"/>
<path d="M152.6 160C150.067 155.333 146.4 151.8 141.6 149.4C136.933 146.867 131.4 145.6 125 145.6C113.933 145.6 105.067 149.267 98.4 156.6C91.7333 163.8 88.4 173.467 88.4 185.6C88.4 198.533 91.8667 208.667 98.8 216C105.867 223.2 115.533 226.8 127.8 226.8C136.2 226.8 143.267 224.667 149 220.4C154.867 216.133 159.133 210 161.8 202H118.4V176.8H192.8V208.6C190.267 217.133 185.933 225.067 179.8 232.4C173.8 239.733 166.133 245.667 156.8 250.2C147.467 254.733 136.933 257 125.2 257C111.333 257 98.9333 254 88 248C77.2 241.867 68.7333 233.4 62.6 222.6C56.6 211.8 53.6 199.467 53.6 185.6C53.6 171.733 56.6 159.4 62.6 148.6C68.7333 137.667 77.2 129.2 88 123.2C98.8 117.067 111.133 114 125 114C141.8 114 155.933 118.067 167.4 126.2C179 134.333 186.667 145.6 190.4 160H152.6Z" fill="#F5F5F5"/>
<rect x="104" y="101" width="37" height="43" fill="#F5F5F5"/>
<rect x="104" y="228" width="37" height="43" fill="#F5F5F5"/>
<path d="M299.84 122.44C306.133 122.44 311.627 123.72 316.32 126.28C321.12 128.84 324.8 132.2 327.36 136.36V123.72H354.72V212.84C354.72 221.053 353.067 228.467 349.76 235.08C346.56 241.8 341.6 247.133 334.88 251.08C328.267 255.027 320 257 310.08 257C296.853 257 286.133 253.853 277.92 247.56C269.707 241.373 265.013 232.947 263.84 222.28H290.88C291.733 225.693 293.76 228.36 296.96 230.28C300.16 232.307 304.107 233.32 308.8 233.32C314.453 233.32 318.933 231.667 322.24 228.36C325.653 225.16 327.36 219.987 327.36 212.84V200.2C324.693 204.36 321.013 207.773 316.32 210.44C311.627 213 306.133 214.28 299.84 214.28C292.48 214.28 285.813 212.413 279.84 208.68C273.867 204.84 269.12 199.453 265.6 192.52C262.187 185.48 260.48 177.373 260.48 168.2C260.48 159.027 262.187 150.973 265.6 144.04C269.12 137.107 273.867 131.773 279.84 128.04C285.813 124.307 292.48 122.44 299.84 122.44ZM327.36 168.36C327.36 161.533 325.44 156.147 321.6 152.2C317.867 148.253 313.28 146.28 307.84 146.28C302.4 146.28 297.76 148.253 293.92 152.2C290.187 156.04 288.32 161.373 288.32 168.2C288.32 175.027 290.187 180.467 293.92 184.52C297.76 188.467 302.4 190.44 307.84 190.44C313.28 190.44 317.867 188.467 321.6 184.52C325.44 180.573 327.36 175.187 327.36 168.36ZM369.074 168.36C369.074 159.08 370.94 150.973 374.674 144.04C378.514 137.107 383.794 131.773 390.514 128.04C397.34 124.307 405.127 122.44 413.874 122.44C425.074 122.44 434.407 125.373 441.874 131.24C449.447 137.107 454.407 145.373 456.754 156.04H427.634C425.18 149.213 420.434 145.8 413.394 145.8C408.38 145.8 404.38 147.773 401.394 151.72C398.407 155.56 396.914 161.107 396.914 168.36C396.914 175.613 398.407 181.213 401.394 185.16C404.38 189 408.38 190.92 413.394 190.92C420.434 190.92 425.18 187.507 427.634 180.68H456.754C454.407 191.133 449.447 199.347 441.874 205.32C434.3 211.293 424.967 214.28 413.874 214.28C405.127 214.28 397.34 212.413 390.514 208.68C383.794 204.947 378.514 199.613 374.674 192.68C370.94 185.747 369.074 177.64 369.074 168.36ZM465.949 168.2C465.949 159.027 467.655 150.973 471.069 144.04C474.589 137.107 479.335 131.773 485.309 128.04C491.282 124.307 497.949 122.44 505.309 122.44C511.602 122.44 517.095 123.72 521.789 126.28C526.589 128.84 530.269 132.2 532.829 136.36V123.72H560.189V213H532.829V200.36C530.162 204.52 526.429 207.88 521.629 210.44C516.935 213 511.442 214.28 505.149 214.28C497.895 214.28 491.282 212.413 485.309 208.68C479.335 204.84 474.589 199.453 471.069 192.52C467.655 185.48 465.949 177.373 465.949 168.2ZM532.829 168.36C532.829 161.533 530.909 156.147 527.069 152.2C523.335 148.253 518.749 146.28 513.309 146.28C507.869 146.28 503.229 148.253 499.389 152.2C495.655 156.04 493.789 161.373 493.789 168.2C493.789 175.027 495.655 180.467 499.389 184.52C503.229 188.467 507.869 190.44 513.309 190.44C518.749 190.44 523.335 188.467 527.069 184.52C530.909 180.573 532.829 175.187 532.829 168.36ZM616.303 214.28C608.516 214.28 601.583 212.947 595.503 210.28C589.423 207.613 584.623 203.987 581.103 199.4C577.583 194.707 575.609 189.48 575.183 183.72H602.223C602.543 186.813 603.983 189.32 606.543 191.24C609.103 193.16 612.249 194.12 615.983 194.12C619.396 194.12 622.009 193.48 623.823 192.2C625.743 190.813 626.703 189.053 626.703 186.92C626.703 184.36 625.369 182.493 622.703 181.32C620.036 180.04 615.716 178.653 609.743 177.16C603.343 175.667 598.009 174.12 593.743 172.52C589.476 170.813 585.796 168.2 582.703 164.68C579.609 161.053 578.063 156.2 578.063 150.12C578.063 145 579.449 140.36 582.223 136.2C585.103 131.933 589.263 128.573 594.703 126.12C600.249 123.667 606.809 122.44 614.383 122.44C625.583 122.44 634.383 125.213 640.783 130.76C647.289 136.307 651.023 143.667 651.983 152.84H626.703C626.276 149.747 624.889 147.293 622.543 145.48C620.303 143.667 617.316 142.76 613.583 142.76C610.383 142.76 607.929 143.4 606.223 144.68C604.516 145.853 603.663 147.507 603.663 149.64C603.663 152.2 604.996 154.12 607.663 155.4C610.436 156.68 614.703 157.96 620.463 159.24C627.076 160.947 632.463 162.653 636.623 164.36C640.783 165.96 644.409 168.627 647.503 172.36C650.703 175.987 652.356 180.893 652.463 187.08C652.463 192.307 650.969 197 647.983 201.16C645.103 205.213 640.889 208.413 635.343 210.76C629.903 213.107 623.556 214.28 616.303 214.28ZM724.081 122.76C734.321 122.76 742.535 126.173 748.721 133C754.908 139.72 758.001 149 758.001 160.84V213H730.801V164.52C730.801 158.547 729.255 153.907 726.161 150.6C723.068 147.293 718.908 145.64 713.681 145.64C708.455 145.64 704.295 147.293 701.201 150.6C698.108 153.907 696.561 158.547 696.561 164.52V213H669.201V94.6H696.561V135.72C699.335 131.773 703.121 128.627 707.921 126.28C712.721 123.933 718.108 122.76 724.081 122.76ZM789.814 214.28C785.014 214.28 781.067 212.893 777.974 210.12C774.987 207.24 773.494 203.72 773.494 199.56C773.494 195.293 774.987 191.72 777.974 188.84C781.067 185.96 785.014 184.52 789.814 184.52C794.507 184.52 798.347 185.96 801.334 188.84C804.427 191.72 805.974 195.293 805.974 199.56C805.974 203.72 804.427 207.24 801.334 210.12C798.347 212.893 794.507 214.28 789.814 214.28Z" fill="white"/>
<path d="M398.48 254.192C396.928 254.192 395.528 253.832 394.28 253.112C393.032 252.376 392.056 251.352 391.352 250.04C390.648 248.728 390.296 247.248 390.296 245.6C390.296 243.936 390.648 242.456 391.352 241.16C392.056 239.848 393.032 238.832 394.28 238.112C395.528 237.376 396.928 237.008 398.48 237.008C400.032 237.008 401.432 237.376 402.68 238.112C403.928 238.832 404.904 239.848 405.608 241.16C406.312 242.456 406.664 243.936 406.664 245.6C406.664 247.248 406.312 248.728 405.608 250.04C404.904 251.352 403.928 252.376 402.68 253.112C401.432 253.832 400.032 254.192 398.48 254.192ZM398.48 253.232C399.808 253.232 401.008 252.92 402.08 252.296C403.152 251.672 403.992 250.784 404.6 249.632C405.224 248.48 405.536 247.136 405.536 245.6C405.536 244.048 405.224 242.696 404.6 241.544C403.992 240.392 403.152 239.504 402.08 238.88C401.008 238.256 399.808 237.944 398.48 237.944C397.152 237.944 395.952 238.256 394.88 238.88C393.808 239.504 392.96 240.392 392.336 241.544C391.712 242.696 391.4 244.048 391.4 245.6C391.4 247.136 391.712 248.48 392.336 249.632C392.96 250.784 393.808 251.672 394.88 252.296C395.952 252.92 397.152 253.232 398.48 253.232ZM411.009 243.656C411.329 242.696 411.897 241.968 412.713 241.472C413.529 240.96 414.569 240.704 415.833 240.704V241.832H415.473C414.193 241.832 413.129 242.2 412.281 242.936C411.433 243.656 411.009 244.84 411.009 246.488V254H409.929V240.968H411.009V243.656ZM423.936 240.8C425.312 240.8 426.48 241.136 427.44 241.808C428.4 242.464 429.072 243.312 429.456 244.352V240.968H430.536V254.408C430.536 255.608 430.272 256.656 429.744 257.552C429.216 258.464 428.504 259.16 427.608 259.64C426.712 260.136 425.712 260.384 424.608 260.384C422.976 260.384 421.624 259.992 420.552 259.208C419.48 258.424 418.776 257.368 418.44 256.04H419.52C419.84 257.08 420.44 257.904 421.32 258.512C422.2 259.136 423.296 259.448 424.608 259.448C425.52 259.448 426.344 259.24 427.08 258.824C427.816 258.424 428.392 257.84 428.808 257.072C429.24 256.32 429.456 255.432 429.456 254.408V250.592C429.072 251.632 428.392 252.496 427.416 253.184C426.456 253.856 425.296 254.192 423.936 254.192C422.72 254.192 421.632 253.92 420.672 253.376C419.728 252.816 418.984 252.032 418.44 251.024C417.912 250 417.648 248.816 417.648 247.472C417.648 246.128 417.912 244.952 418.44 243.944C418.984 242.936 419.728 242.16 420.672 241.616C421.632 241.072 422.72 240.8 423.936 240.8ZM429.456 247.472C429.456 246.336 429.216 245.336 428.736 244.472C428.272 243.592 427.632 242.92 426.816 242.456C426 241.976 425.088 241.736 424.08 241.736C423.024 241.736 422.096 241.968 421.296 242.432C420.496 242.88 419.872 243.536 419.424 244.4C418.976 245.264 418.752 246.288 418.752 247.472C418.752 248.656 418.976 249.68 419.424 250.544C419.872 251.408 420.496 252.072 421.296 252.536C422.112 253 423.04 253.232 424.08 253.232C425.088 253.232 426 253 426.816 252.536C427.648 252.056 428.296 251.384 428.76 250.52C429.224 249.64 429.456 248.624 429.456 247.472ZM433.796 247.472C433.796 246.128 434.06 244.952 434.588 243.944C435.132 242.936 435.876 242.16 436.82 241.616C437.78 241.072 438.868 240.8 440.084 240.8C441.46 240.8 442.628 241.136 443.588 241.808C444.548 242.48 445.22 243.336 445.604 244.376V240.968H446.684V254H445.604V250.568C445.22 251.624 444.54 252.496 443.564 253.184C442.604 253.856 441.444 254.192 440.084 254.192C438.868 254.192 437.78 253.92 436.82 253.376C435.876 252.816 435.132 252.032 434.588 251.024C434.06 250 433.796 248.816 433.796 247.472ZM445.604 247.472C445.604 246.336 445.364 245.336 444.884 244.472C444.42 243.592 443.78 242.92 442.964 242.456C442.148 241.976 441.236 241.736 440.228 241.736C439.172 241.736 438.244 241.968 437.444 242.432C436.644 242.88 436.02 243.536 435.572 244.4C435.124 245.264 434.9 246.288 434.9 247.472C434.9 248.656 435.124 249.68 435.572 250.544C436.02 251.408 436.644 252.072 437.444 252.536C438.26 253 439.188 253.232 440.228 253.232C441.236 253.232 442.148 253 442.964 252.536C443.796 252.056 444.444 251.384 444.908 250.52C445.372 249.64 445.604 248.624 445.604 247.472ZM456.496 240.704C458.048 240.704 459.312 241.184 460.288 242.144C461.264 243.088 461.752 244.496 461.752 246.368V254H460.696V246.44C460.696 244.888 460.304 243.704 459.52 242.888C458.736 242.056 457.672 241.64 456.328 241.64C454.92 241.64 453.792 242.088 452.944 242.984C452.112 243.88 451.696 245.208 451.696 246.968V254H450.616V240.968H451.696V243.728C452.064 242.752 452.672 242.008 453.52 241.496C454.384 240.968 455.376 240.704 456.496 240.704ZM466.122 238.064C465.866 238.064 465.65 237.984 465.474 237.824C465.298 237.648 465.21 237.416 465.21 237.128C465.21 236.856 465.298 236.632 465.474 236.456C465.65 236.28 465.866 236.192 466.122 236.192C466.378 236.192 466.594 236.28 466.77 236.456C466.946 236.632 467.034 236.856 467.034 237.128C467.034 237.416 466.946 237.648 466.77 237.824C466.594 237.984 466.378 238.064 466.122 238.064ZM466.65 240.968V254H465.57V240.968H466.65ZM470.657 253.088H478.001V254H469.457V253.088L476.609 241.88H469.625V240.968H477.833V241.88L470.657 253.088ZM480.109 247.472C480.109 246.128 480.373 244.952 480.901 243.944C481.445 242.936 482.189 242.16 483.133 241.616C484.093 241.072 485.181 240.8 486.397 240.8C487.773 240.8 488.941 241.136 489.901 241.808C490.861 242.48 491.533 243.336 491.917 244.376V240.968H492.997V254H491.917V250.568C491.533 251.624 490.853 252.496 489.877 253.184C488.917 253.856 487.757 254.192 486.397 254.192C485.181 254.192 484.093 253.92 483.133 253.376C482.189 252.816 481.445 252.032 480.901 251.024C480.373 250 480.109 248.816 480.109 247.472ZM491.917 247.472C491.917 246.336 491.677 245.336 491.197 244.472C490.733 243.592 490.093 242.92 489.277 242.456C488.461 241.976 487.549 241.736 486.541 241.736C485.485 241.736 484.557 241.968 483.757 242.432C482.957 242.88 482.333 243.536 481.885 244.4C481.437 245.264 481.213 246.288 481.213 247.472C481.213 248.656 481.437 249.68 481.885 250.544C482.333 251.408 482.957 252.072 483.757 252.536C484.573 253 485.501 253.232 486.541 253.232C487.549 253.232 488.461 253 489.277 252.536C490.109 252.056 490.757 251.384 491.221 250.52C491.685 249.64 491.917 248.624 491.917 247.472ZM502.809 240.704C504.361 240.704 505.625 241.184 506.601 242.144C507.577 243.088 508.065 244.496 508.065 246.368V254H507.009V246.44C507.009 244.888 506.617 243.704 505.833 242.888C505.049 242.056 503.985 241.64 502.641 241.64C501.233 241.64 500.105 242.088 499.257 242.984C498.425 243.88 498.009 245.208 498.009 246.968V254H496.929V240.968H498.009V243.728C498.377 242.752 498.985 242.008 499.833 241.496C500.697 240.968 501.689 240.704 502.809 240.704ZM511.21 247.472C511.21 246.128 511.474 244.952 512.002 243.944C512.546 242.936 513.29 242.16 514.234 241.616C515.194 241.072 516.282 240.8 517.498 240.8C518.826 240.8 519.978 241.136 520.954 241.808C521.93 242.464 522.618 243.32 523.018 244.376V236.24H524.098V254H523.018V250.544C522.634 251.616 521.962 252.496 521.002 253.184C520.042 253.856 518.874 254.192 517.498 254.192C516.282 254.192 515.194 253.92 514.234 253.376C513.29 252.816 512.546 252.032 512.002 251.024C511.474 250 511.21 248.816 511.21 247.472ZM523.018 247.472C523.018 246.336 522.778 245.336 522.298 244.472C521.834 243.592 521.194 242.92 520.378 242.456C519.562 241.976 518.65 241.736 517.642 241.736C516.586 241.736 515.658 241.968 514.858 242.432C514.058 242.88 513.434 243.536 512.986 244.4C512.538 245.264 512.314 246.288 512.314 247.472C512.314 248.656 512.538 249.68 512.986 250.544C513.434 251.408 514.058 252.072 514.858 252.536C515.674 253 516.602 253.232 517.642 253.232C518.65 253.232 519.562 253 520.378 252.536C521.21 252.056 521.858 251.384 522.322 250.52C522.786 249.64 523.018 248.624 523.018 247.472ZM533.767 254.192C532.551 254.192 531.455 253.92 530.479 253.376C529.503 252.832 528.735 252.056 528.175 251.048C527.631 250.024 527.359 248.832 527.359 247.472C527.359 246.128 527.639 244.952 528.199 243.944C528.759 242.92 529.527 242.144 530.503 241.616C531.495 241.072 532.599 240.8 533.815 240.8C535.031 240.8 536.127 241.072 537.103 241.616C538.079 242.144 538.839 242.912 539.383 243.92C539.943 244.928 540.223 246.112 540.223 247.472C540.223 248.832 539.943 250.024 539.383 251.048C538.823 252.056 538.047 252.832 537.055 253.376C536.079 253.92 534.983 254.192 533.767 254.192ZM533.767 253.232C534.711 253.232 535.591 253.024 536.407 252.608C537.239 252.176 537.903 251.528 538.398 250.664C538.895 249.8 539.143 248.736 539.143 247.472C539.143 246.224 538.895 245.168 538.398 244.304C537.903 243.44 537.247 242.8 536.431 242.384C535.615 241.952 534.735 241.736 533.791 241.736C532.847 241.736 531.967 241.952 531.151 242.384C530.351 242.8 529.703 243.44 529.207 244.304C528.711 245.168 528.463 246.224 528.463 247.472C528.463 248.736 528.703 249.8 529.183 250.664C529.679 251.528 530.327 252.176 531.127 252.608C531.943 253.024 532.823 253.232 533.767 253.232ZM554.617 254.192C553.161 254.192 551.969 253.872 551.041 253.232C550.129 252.592 549.617 251.68 549.505 250.496H550.609C550.689 251.344 551.073 252.016 551.761 252.512C552.465 253.008 553.417 253.256 554.617 253.256C555.609 253.256 556.393 253.008 556.969 252.512C557.561 252 557.857 251.376 557.857 250.64C557.857 250.128 557.697 249.712 557.377 249.392C557.073 249.056 556.689 248.8 556.225 248.624C555.761 248.448 555.129 248.256 554.329 248.048C553.369 247.792 552.593 247.544 552.001 247.304C551.409 247.048 550.905 246.672 550.489 246.176C550.073 245.68 549.865 245.016 549.865 244.184C549.865 243.576 550.049 243.016 550.417 242.504C550.785 241.976 551.297 241.56 551.953 241.256C552.609 240.952 553.353 240.8 554.185 240.8C555.545 240.8 556.641 241.144 557.473 241.832C558.321 242.504 558.777 243.44 558.841 244.64H557.761C557.713 243.776 557.377 243.072 556.753 242.528C556.129 241.984 555.265 241.712 554.161 241.712C553.233 241.712 552.465 241.952 551.857 242.432C551.249 242.912 550.945 243.496 550.945 244.184C550.945 244.792 551.113 245.288 551.449 245.672C551.801 246.04 552.225 246.328 552.721 246.536C553.233 246.728 553.905 246.936 554.737 247.16C555.649 247.4 556.377 247.64 556.921 247.88C557.481 248.104 557.953 248.44 558.337 248.888C558.721 249.32 558.913 249.904 558.913 250.64C558.913 251.312 558.729 251.92 558.361 252.464C557.993 253.008 557.481 253.432 556.825 253.736C556.169 254.04 555.433 254.192 554.617 254.192ZM573.218 240.968V254H572.138V251.168C571.77 252.16 571.154 252.92 570.29 253.448C569.442 253.96 568.466 254.216 567.362 254.216C565.81 254.216 564.538 253.744 563.546 252.8C562.57 251.84 562.082 250.424 562.082 248.552V240.968H563.138V248.48C563.138 250.032 563.53 251.224 564.314 252.056C565.098 252.872 566.162 253.28 567.506 253.28C568.914 253.28 570.034 252.832 570.866 251.936C571.714 251.04 572.138 249.712 572.138 247.952V240.968H573.218ZM576.484 247.472C576.484 246.128 576.748 244.952 577.276 243.944C577.82 242.936 578.564 242.16 579.508 241.616C580.468 241.072 581.556 240.8 582.772 240.8C584.148 240.8 585.316 241.136 586.276 241.808C587.236 242.48 587.908 243.336 588.292 244.376V240.968H589.372V254H588.292V250.568C587.908 251.624 587.228 252.496 586.252 253.184C585.292 253.856 584.132 254.192 582.772 254.192C581.556 254.192 580.468 253.92 579.508 253.376C578.564 252.816 577.82 252.032 577.276 251.024C576.748 250 576.484 248.816 576.484 247.472ZM588.292 247.472C588.292 246.336 588.052 245.336 587.572 244.472C587.108 243.592 586.468 242.92 585.652 242.456C584.836 241.976 583.924 241.736 582.916 241.736C581.86 241.736 580.932 241.968 580.132 242.432C579.332 242.88 578.708 243.536 578.26 244.4C577.812 245.264 577.588 246.288 577.588 247.472C577.588 248.656 577.812 249.68 578.26 250.544C578.708 251.408 579.332 252.072 580.132 252.536C580.948 253 581.876 253.232 582.916 253.232C583.924 253.232 584.836 253 585.652 252.536C586.484 252.056 587.132 251.384 587.596 250.52C588.06 249.64 588.292 248.624 588.292 247.472ZM601.157 243.656C601.477 242.696 602.045 241.968 602.861 241.472C603.677 240.96 604.717 240.704 605.981 240.704V241.832H605.621C604.341 241.832 603.277 242.2 602.429 242.936C601.581 243.656 601.157 244.84 601.157 246.488V254H600.077V240.968H601.157V243.656ZM620.204 246.608C620.204 247.184 620.188 247.616 620.156 247.904H608.9C608.932 249.072 609.188 250.056 609.668 250.856C610.148 251.656 610.78 252.256 611.564 252.656C612.348 253.056 613.204 253.256 614.132 253.256C615.412 253.256 616.484 252.944 617.348 252.32C618.212 251.68 618.756 250.816 618.98 249.728H620.108C619.852 251.056 619.196 252.136 618.14 252.968C617.084 253.784 615.748 254.192 614.132 254.192C612.916 254.192 611.828 253.92 610.868 253.376C609.908 252.832 609.156 252.056 608.612 251.048C608.068 250.024 607.796 248.832 607.796 247.472C607.796 246.112 608.06 244.928 608.588 243.92C609.132 242.912 609.884 242.144 610.844 241.616C611.804 241.072 612.9 240.8 614.132 240.8C615.38 240.8 616.46 241.072 617.372 241.616C618.3 242.144 619.004 242.856 619.484 243.752C619.964 244.632 620.204 245.584 620.204 246.608ZM619.124 247.016C619.172 245.864 618.964 244.888 618.5 244.088C618.052 243.288 617.436 242.696 616.652 242.312C615.868 241.912 615.02 241.712 614.108 241.712C613.196 241.712 612.348 241.912 611.564 242.312C610.796 242.696 610.164 243.288 609.668 244.088C609.188 244.888 608.932 245.864 608.9 247.016H619.124ZM629.348 240.704C630.9 240.704 632.164 241.184 633.14 242.144C634.116 243.088 634.604 244.496 634.604 246.368V254H633.548V246.44C633.548 244.888 633.156 243.704 632.372 242.888C631.588 242.056 630.524 241.64 629.18 241.64C627.772 241.64 626.644 242.088 625.796 242.984C624.964 243.88 624.548 245.208 624.548 246.968V254H623.468V240.968H624.548V243.728C624.916 242.752 625.524 242.008 626.372 241.496C627.236 240.968 628.228 240.704 629.348 240.704ZM637.749 247.472C637.749 246.128 638.013 244.952 638.541 243.944C639.085 242.936 639.829 242.16 640.773 241.616C641.733 241.072 642.821 240.8 644.037 240.8C645.365 240.8 646.517 241.136 647.493 241.808C648.469 242.464 649.157 243.32 649.557 244.376V236.24H650.637V254H649.557V250.544C649.173 251.616 648.501 252.496 647.541 253.184C646.581 253.856 645.413 254.192 644.037 254.192C642.821 254.192 641.733 253.92 640.773 253.376C639.829 252.816 639.085 252.032 638.541 251.024C638.013 250 637.749 248.816 637.749 247.472ZM649.557 247.472C649.557 246.336 649.317 245.336 648.837 244.472C648.373 243.592 647.733 242.92 646.917 242.456C646.101 241.976 645.189 241.736 644.181 241.736C643.125 241.736 642.197 241.968 641.397 242.432C640.597 242.88 639.973 243.536 639.525 244.4C639.077 245.264 638.853 246.288 638.853 247.472C638.853 248.656 639.077 249.68 639.525 250.544C639.973 251.408 640.597 252.072 641.397 252.536C642.213 253 643.141 253.232 644.181 253.232C645.189 253.232 646.101 253 646.917 252.536C647.749 252.056 648.397 251.384 648.861 250.52C649.325 249.64 649.557 248.624 649.557 247.472ZM653.898 247.472C653.898 246.128 654.162 244.952 654.69 243.944C655.234 242.936 655.978 242.16 656.922 241.616C657.882 241.072 658.97 240.8 660.186 240.8C661.562 240.8 662.73 241.136 663.69 241.808C664.65 242.48 665.322 243.336 665.706 244.376V240.968H666.786V254H665.706V250.568C665.322 251.624 664.642 252.496 663.666 253.184C662.706 253.856 661.546 254.192 660.186 254.192C658.97 254.192 657.882 253.92 656.922 253.376C655.978 252.816 655.234 252.032 654.69 251.024C654.162 250 653.898 248.816 653.898 247.472ZM665.706 247.472C665.706 246.336 665.466 245.336 664.986 244.472C664.522 243.592 663.882 242.92 663.066 242.456C662.25 241.976 661.338 241.736 660.33 241.736C659.274 241.736 658.346 241.968 657.546 242.432C656.746 242.88 656.122 243.536 655.674 244.4C655.226 245.264 655.002 246.288 655.002 247.472C655.002 248.656 655.226 249.68 655.674 250.544C656.122 251.408 656.746 252.072 657.546 252.536C658.362 253 659.29 253.232 660.33 253.232C661.338 253.232 662.25 253 663.066 252.536C663.898 252.056 664.546 251.384 665.01 250.52C665.474 249.64 665.706 248.624 665.706 247.472ZM692.899 240.704C694.387 240.704 695.603 241.184 696.547 242.144C697.491 243.088 697.963 244.496 697.963 246.368V254H696.907V246.44C696.907 244.888 696.531 243.704 695.779 242.888C695.043 242.056 694.027 241.64 692.731 241.64C691.387 241.64 690.307 242.104 689.491 243.032C688.675 243.96 688.267 245.304 688.267 247.064V254H687.211V246.44C687.211 244.888 686.835 243.704 686.083 242.888C685.347 242.056 684.331 241.64 683.035 241.64C681.691 241.64 680.611 242.104 679.795 243.032C678.979 243.96 678.571 245.304 678.571 247.064V254H677.491V240.968H678.571V243.8C678.939 242.776 679.531 242.008 680.347 241.496C681.179 240.968 682.131 240.704 683.203 240.704C684.387 240.704 685.403 241.016 686.251 241.64C687.115 242.248 687.707 243.152 688.027 244.352C688.331 243.152 688.923 242.248 689.803 241.64C690.683 241.016 691.715 240.704 692.899 240.704ZM713.532 246.608C713.532 247.184 713.516 247.616 713.484 247.904H702.228C702.26 249.072 702.516 250.056 702.996 250.856C703.476 251.656 704.108 252.256 704.892 252.656C705.676 253.056 706.532 253.256 707.46 253.256C708.74 253.256 709.812 252.944 710.676 252.32C711.54 251.68 712.084 250.816 712.308 249.728H713.436C713.18 251.056 712.524 252.136 711.468 252.968C710.412 253.784 709.076 254.192 707.46 254.192C706.244 254.192 705.156 253.92 704.196 253.376C703.236 252.832 702.484 252.056 701.94 251.048C701.396 250.024 701.124 248.832 701.124 247.472C701.124 246.112 701.388 244.928 701.916 243.92C702.46 242.912 703.212 242.144 704.172 241.616C705.132 241.072 706.228 240.8 707.46 240.8C708.708 240.8 709.788 241.072 710.7 241.616C711.628 242.144 712.332 242.856 712.812 243.752C713.292 244.632 713.532 245.584 713.532 246.608ZM712.452 247.016C712.5 245.864 712.292 244.888 711.828 244.088C711.38 243.288 710.764 242.696 709.98 242.312C709.196 241.912 708.348 241.712 707.436 241.712C706.524 241.712 705.676 241.912 704.892 242.312C704.124 242.696 703.492 243.288 702.996 244.088C702.516 244.888 702.26 245.864 702.228 247.016H712.452ZM722.676 240.704C724.228 240.704 725.492 241.184 726.468 242.144C727.444 243.088 727.932 244.496 727.932 246.368V254H726.876V246.44C726.876 244.888 726.484 243.704 725.7 242.888C724.916 242.056 723.852 241.64 722.508 241.64C721.1 241.64 719.972 242.088 719.124 242.984C718.292 243.88 717.876 245.208 717.876 246.968V254H716.796V240.968H717.876V243.728C718.244 242.752 718.852 242.008 719.7 241.496C720.564 240.968 721.556 240.704 722.676 240.704ZM736.093 254.192C734.637 254.192 733.445 253.872 732.517 253.232C731.605 252.592 731.093 251.68 730.981 250.496H732.085C732.165 251.344 732.549 252.016 733.237 252.512C733.941 253.008 734.893 253.256 736.093 253.256C737.085 253.256 737.869 253.008 738.445 252.512C739.037 252 739.333 251.376 739.333 250.64C739.333 250.128 739.173 249.712 738.853 249.392C738.549 249.056 738.165 248.8 737.701 248.624C737.237 248.448 736.605 248.256 735.805 248.048C734.845 247.792 734.069 247.544 733.477 247.304C732.885 247.048 732.381 246.672 731.965 246.176C731.549 245.68 731.341 245.016 731.341 244.184C731.341 243.576 731.525 243.016 731.893 242.504C732.261 241.976 732.773 241.56 733.429 241.256C734.085 240.952 734.829 240.8 735.661 240.8C737.021 240.8 738.117 241.144 738.949 241.832C739.797 242.504 740.253 243.44 740.317 244.64H739.237C739.189 243.776 738.853 243.072 738.229 242.528C737.605 241.984 736.741 241.712 735.637 241.712C734.709 241.712 733.941 241.952 733.333 242.432C732.725 242.912 732.421 243.496 732.421 244.184C732.421 244.792 732.589 245.288 732.925 245.672C733.277 246.04 733.701 246.328 734.197 246.536C734.709 246.728 735.381 246.936 736.213 247.16C737.125 247.4 737.853 247.64 738.397 247.88C738.957 248.104 739.429 248.44 739.813 248.888C740.197 249.32 740.389 249.904 740.389 250.64C740.389 251.312 740.205 251.92 739.837 252.464C739.469 253.008 738.957 253.432 738.301 253.736C737.645 254.04 736.909 254.192 736.093 254.192ZM743.007 247.472C743.007 246.128 743.271 244.952 743.799 243.944C744.343 242.936 745.087 242.16 746.031 241.616C746.991 241.072 748.079 240.8 749.295 240.8C750.671 240.8 751.839 241.136 752.799 241.808C753.759 242.48 754.431 243.336 754.815 244.376V240.968H755.895V254H754.815V250.568C754.431 251.624 753.751 252.496 752.775 253.184C751.815 253.856 750.655 254.192 749.295 254.192C748.079 254.192 746.991 253.92 746.031 253.376C745.087 252.816 744.343 252.032 743.799 251.024C743.271 250 743.007 248.816 743.007 247.472ZM754.815 247.472C754.815 246.336 754.575 245.336 754.095 244.472C753.631 243.592 752.991 242.92 752.175 242.456C751.359 241.976 750.447 241.736 749.439 241.736C748.383 241.736 747.455 241.968 746.655 242.432C745.855 242.88 745.231 243.536 744.783 244.4C744.335 245.264 744.111 246.288 744.111 247.472C744.111 248.656 744.335 249.68 744.783 250.544C745.231 251.408 745.855 252.072 746.655 252.536C747.471 253 748.399 253.232 749.439 253.232C750.447 253.232 751.359 253 752.175 252.536C753.007 252.056 753.655 251.384 754.119 250.52C754.583 249.64 754.815 248.624 754.815 247.472ZM760.379 238.064C760.123 238.064 759.907 237.984 759.731 237.824C759.555 237.648 759.467 237.416 759.467 237.128C759.467 236.856 759.555 236.632 759.731 236.456C759.907 236.28 760.123 236.192 760.379 236.192C760.635 236.192 760.851 236.28 761.027 236.456C761.203 236.632 761.291 236.856 761.291 237.128C761.291 237.416 761.203 237.648 761.027 237.824C760.851 237.984 760.635 238.064 760.379 238.064ZM760.907 240.968V254H759.827V240.968H760.907ZM769.21 254.192C767.754 254.192 766.562 253.872 765.634 253.232C764.722 252.592 764.21 251.68 764.098 250.496H765.202C765.282 251.344 765.666 252.016 766.354 252.512C767.058 253.008 768.01 253.256 769.21 253.256C770.202 253.256 770.986 253.008 771.562 252.512C772.154 252 772.45 251.376 772.45 250.64C772.45 250.128 772.29 249.712 771.97 249.392C771.666 249.056 771.282 248.8 770.818 248.624C770.354 248.448 769.722 248.256 768.922 248.048C767.962 247.792 767.186 247.544 766.594 247.304C766.002 247.048 765.498 246.672 765.082 246.176C764.666 245.68 764.458 245.016 764.458 244.184C764.458 243.576 764.642 243.016 765.01 242.504C765.378 241.976 765.89 241.56 766.546 241.256C767.202 240.952 767.946 240.8 768.778 240.8C770.138 240.8 771.234 241.144 772.066 241.832C772.914 242.504 773.37 243.44 773.434 244.64H772.354C772.306 243.776 771.97 243.072 771.346 242.528C770.722 241.984 769.858 241.712 768.754 241.712C767.826 241.712 767.058 241.952 766.45 242.432C765.842 242.912 765.538 243.496 765.538 244.184C765.538 244.792 765.706 245.288 766.042 245.672C766.394 246.04 766.818 246.328 767.314 246.536C767.826 246.728 768.498 246.936 769.33 247.16C770.242 247.4 770.97 247.64 771.514 247.88C772.074 248.104 772.546 248.44 772.93 248.888C773.314 249.32 773.506 249.904 773.506 250.64C773.506 251.312 773.322 251.92 772.954 252.464C772.586 253.008 772.074 253.432 771.418 253.736C770.762 254.04 770.026 254.192 769.21 254.192ZM776.628 254.072C776.356 254.072 776.132 253.984 775.956 253.808C775.78 253.632 775.692 253.408 775.692 253.136C775.692 252.864 775.78 252.64 775.956 252.464C776.132 252.288 776.356 252.2 776.628 252.2C776.884 252.2 777.1 252.288 777.276 252.464C777.452 252.64 777.54 252.864 777.54 253.136C777.54 253.408 777.452 253.632 777.276 253.808C777.1 253.984 776.884 254.072 776.628 254.072Z" fill="white"/>
</svg>
