<svg width="810" height="323" viewBox="0 0 810 323" fill="none" xmlns="http://www.w3.org/2000/svg">
<g clip-path="url(#clip0_46_5)">
<rect y="66" width="240" height="240" rx="67" fill="#08D136"/>
<path d="M152.6 160C150.067 155.333 146.4 151.8 141.6 149.4C136.933 146.867 131.4 145.6 125 145.6C113.933 145.6 105.067 149.267 98.4 156.6C91.7333 163.8 88.4 173.467 88.4 185.6C88.4 198.533 91.8667 208.667 98.8 216C105.867 223.2 115.533 226.8 127.8 226.8C136.2 226.8 143.267 224.667 149 220.4C154.867 216.133 159.133 210 161.8 202H118.4V176.8H192.8V208.6C190.267 217.133 185.933 225.067 179.8 232.4C173.8 239.733 166.133 245.667 156.8 250.2C147.467 254.733 136.933 257 125.2 257C111.333 257 98.9333 254 88 248C77.2 241.867 68.7333 233.4 62.6 222.6C56.6 211.8 53.6 199.467 53.6 185.6C53.6 171.733 56.6 159.4 62.6 148.6C68.7333 137.667 77.2 129.2 88 123.2C98.8 117.067 111.133 114 125 114C141.8 114 155.933 118.067 167.4 126.2C179 134.333 186.667 145.6 190.4 160H152.6Z" fill="#F5F5F5"/>
<rect x="104" y="101" width="37" height="43" fill="#F5F5F5"/>
<rect x="104" y="228" width="37" height="43" fill="#F5F5F5"/>
<path d="M299.84 122.44C306.133 122.44 311.627 123.72 316.32 126.28C321.12 128.84 324.8 132.2 327.36 136.36V123.72H354.72V212.84C354.72 221.053 353.067 228.467 349.76 235.08C346.56 241.8 341.6 247.133 334.88 251.08C328.267 255.027 320 257 310.08 257C296.853 257 286.133 253.853 277.92 247.56C269.707 241.373 265.013 232.947 263.84 222.28H290.88C291.733 225.693 293.76 228.36 296.96 230.28C300.16 232.307 304.107 233.32 308.8 233.32C314.453 233.32 318.933 231.667 322.24 228.36C325.653 225.16 327.36 219.987 327.36 212.84V200.2C324.693 204.36 321.013 207.773 316.32 210.44C311.627 213 306.133 214.28 299.84 214.28C292.48 214.28 285.813 212.413 279.84 208.68C273.867 204.84 269.12 199.453 265.6 192.52C262.187 185.48 260.48 177.373 260.48 168.2C260.48 159.027 262.187 150.973 265.6 144.04C269.12 137.107 273.867 131.773 279.84 128.04C285.813 124.307 292.48 122.44 299.84 122.44ZM327.36 168.36C327.36 161.533 325.44 156.147 321.6 152.2C317.867 148.253 313.28 146.28 307.84 146.28C302.4 146.28 297.76 148.253 293.92 152.2C290.187 156.04 288.32 161.373 288.32 168.2C288.32 175.027 290.187 180.467 293.92 184.52C297.76 188.467 302.4 190.44 307.84 190.44C313.28 190.44 317.867 188.467 321.6 184.52C325.44 180.573 327.36 175.187 327.36 168.36ZM369.074 168.36C369.074 159.08 370.94 150.973 374.674 144.04C378.514 137.107 383.794 131.773 390.514 128.04C397.34 124.307 405.127 122.44 413.874 122.44C425.074 122.44 434.407 125.373 441.874 131.24C449.447 137.107 454.407 145.373 456.754 156.04H427.634C425.18 149.213 420.434 145.8 413.394 145.8C408.38 145.8 404.38 147.773 401.394 151.72C398.407 155.56 396.914 161.107 396.914 168.36C396.914 175.613 398.407 181.213 401.394 185.16C404.38 189 408.38 190.92 413.394 190.92C420.434 190.92 425.18 187.507 427.634 180.68H456.754C454.407 191.133 449.447 199.347 441.874 205.32C434.3 211.293 424.967 214.28 413.874 214.28C405.127 214.28 397.34 212.413 390.514 208.68C383.794 204.947 378.514 199.613 374.674 192.68C370.94 185.747 369.074 177.64 369.074 168.36ZM465.949 168.2C465.949 159.027 467.655 150.973 471.069 144.04C474.589 137.107 479.335 131.773 485.309 128.04C491.282 124.307 497.949 122.44 505.309 122.44C511.602 122.44 517.095 123.72 521.789 126.28C526.589 128.84 530.269 132.2 532.829 136.36V123.72H560.189V213H532.829V200.36C530.162 204.52 526.429 207.88 521.629 210.44C516.935 213 511.442 214.28 505.149 214.28C497.895 214.28 491.282 212.413 485.309 208.68C479.335 204.84 474.589 199.453 471.069 192.52C467.655 185.48 465.949 177.373 465.949 168.2ZM532.829 168.36C532.829 161.533 530.909 156.147 527.069 152.2C523.335 148.253 518.749 146.28 513.309 146.28C507.869 146.28 503.229 148.253 499.389 152.2C495.655 156.04 493.789 161.373 493.789 168.2C493.789 175.027 495.655 180.467 499.389 184.52C503.229 188.467 507.869 190.44 513.309 190.44C518.749 190.44 523.335 188.467 527.069 184.52C530.909 180.573 532.829 175.187 532.829 168.36ZM616.303 214.28C608.516 214.28 601.583 212.947 595.503 210.28C589.423 207.613 584.623 203.987 581.103 199.4C577.583 194.707 575.609 189.48 575.183 183.72H602.223C602.543 186.813 603.983 189.32 606.543 191.24C609.103 193.16 612.249 194.12 615.983 194.12C619.396 194.12 622.009 193.48 623.823 192.2C625.743 190.813 626.703 189.053 626.703 186.92C626.703 184.36 625.369 182.493 622.703 181.32C620.036 180.04 615.716 178.653 609.743 177.16C603.343 175.667 598.009 174.12 593.743 172.52C589.476 170.813 585.796 168.2 582.703 164.68C579.609 161.053 578.063 156.2 578.063 150.12C578.063 145 579.449 140.36 582.223 136.2C585.103 131.933 589.263 128.573 594.703 126.12C600.249 123.667 606.809 122.44 614.383 122.44C625.583 122.44 634.383 125.213 640.783 130.76C647.289 136.307 651.023 143.667 651.983 152.84H626.703C626.276 149.747 624.889 147.293 622.543 145.48C620.303 143.667 617.316 142.76 613.583 142.76C610.383 142.76 607.929 143.4 606.223 144.68C604.516 145.853 603.663 147.507 603.663 149.64C603.663 152.2 604.996 154.12 607.663 155.4C610.436 156.68 614.703 157.96 620.463 159.24C627.076 160.947 632.463 162.653 636.623 164.36C640.783 165.96 644.409 168.627 647.503 172.36C650.703 175.987 652.356 180.893 652.463 187.08C652.463 192.307 650.969 197 647.983 201.16C645.103 205.213 640.889 208.413 635.343 210.76C629.903 213.107 623.556 214.28 616.303 214.28ZM724.081 122.76C734.321 122.76 742.535 126.173 748.721 133C754.908 139.72 758.001 149 758.001 160.84V213H730.801V164.52C730.801 158.547 729.255 153.907 726.161 150.6C723.068 147.293 718.908 145.64 713.681 145.64C708.455 145.64 704.295 147.293 701.201 150.6C698.108 153.907 696.561 158.547 696.561 164.52V213H669.201V94.6H696.561V135.72C699.335 131.773 703.121 128.627 707.921 126.28C712.721 123.933 718.108 122.76 724.081 122.76ZM789.814 214.28C785.014 214.28 781.067 212.893 777.974 210.12C774.987 207.24 773.494 203.72 773.494 199.56C773.494 195.293 774.987 191.72 777.974 188.84C781.067 185.96 785.014 184.52 789.814 184.52C794.507 184.52 798.347 185.96 801.334 188.84C804.427 191.72 805.974 195.293 805.974 199.56C805.974 203.72 804.427 207.24 801.334 210.12C798.347 212.893 794.507 214.28 789.814 214.28Z" fill="white"/>
<path d="M398.456 254.168C396.904 254.168 395.496 253.808 394.232 253.088C392.968 252.352 391.968 251.336 391.232 250.04C390.512 248.728 390.152 247.248 390.152 245.6C390.152 243.952 390.512 242.48 391.232 241.184C391.968 239.872 392.968 238.856 394.232 238.136C395.496 237.4 396.904 237.032 398.456 237.032C400.024 237.032 401.44 237.4 402.704 238.136C403.968 238.856 404.96 239.872 405.68 241.184C406.4 242.48 406.76 243.952 406.76 245.6C406.76 247.248 406.4 248.728 405.68 250.04C404.96 251.336 403.968 252.352 402.704 253.088C401.44 253.808 400.024 254.168 398.456 254.168ZM398.456 252.704C399.704 252.704 400.824 252.416 401.816 251.84C402.808 251.264 403.592 250.44 404.168 249.368C404.744 248.28 405.032 247.024 405.032 245.6C405.032 244.176 404.744 242.928 404.168 241.856C403.592 240.784 402.808 239.96 401.816 239.384C400.824 238.808 399.704 238.52 398.456 238.52C397.208 238.52 396.088 238.808 395.096 239.384C394.104 239.96 393.32 240.784 392.744 241.856C392.168 242.928 391.88 244.176 391.88 245.6C391.88 247.024 392.168 248.28 392.744 249.368C393.32 250.44 394.104 251.264 395.096 251.84C396.088 252.416 397.208 252.704 398.456 252.704ZM411.514 243.224C411.882 242.408 412.442 241.776 413.194 241.328C413.962 240.88 414.898 240.656 416.002 240.656V242.408H415.546C414.33 242.408 413.354 242.736 412.618 243.392C411.882 244.048 411.514 245.144 411.514 246.68V254H409.834V240.896H411.514V243.224ZM424.025 240.704C425.257 240.704 426.329 240.992 427.241 241.568C428.153 242.144 428.809 242.872 429.209 243.752V240.896H430.889V254.336C430.889 255.536 430.625 256.6 430.097 257.528C429.585 258.456 428.865 259.168 427.937 259.664C427.009 260.176 425.953 260.432 424.769 260.432C423.089 260.432 421.689 260.032 420.569 259.232C419.465 258.432 418.777 257.344 418.505 255.968H420.161C420.449 256.88 420.993 257.608 421.793 258.152C422.609 258.696 423.601 258.968 424.769 258.968C425.617 258.968 426.377 258.784 427.049 258.416C427.721 258.064 428.249 257.536 428.633 256.832C429.017 256.128 429.209 255.296 429.209 254.336V251.096C428.793 251.992 428.129 252.736 427.217 253.328C426.321 253.904 425.257 254.192 424.025 254.192C422.825 254.192 421.745 253.912 420.785 253.352C419.841 252.792 419.097 252 418.553 250.976C418.025 249.952 417.761 248.768 417.761 247.424C417.761 246.08 418.025 244.904 418.553 243.896C419.097 242.872 419.841 242.088 420.785 241.544C421.745 240.984 422.825 240.704 424.025 240.704ZM429.209 247.448C429.209 246.392 428.993 245.464 428.561 244.664C428.129 243.864 427.537 243.248 426.785 242.816C426.049 242.384 425.233 242.168 424.337 242.168C423.409 242.168 422.577 242.376 421.841 242.792C421.105 243.208 420.521 243.816 420.089 244.616C419.673 245.4 419.465 246.336 419.465 247.424C419.465 248.496 419.673 249.44 420.089 250.256C420.521 251.056 421.105 251.672 421.841 252.104C422.577 252.52 423.409 252.728 424.337 252.728C425.233 252.728 426.049 252.512 426.785 252.08C427.537 251.648 428.129 251.032 428.561 250.232C428.993 249.432 429.209 248.504 429.209 247.448ZM433.957 247.424C433.957 246.08 434.221 244.904 434.749 243.896C435.293 242.872 436.037 242.088 436.981 241.544C437.941 240.984 439.021 240.704 440.221 240.704C441.469 240.704 442.541 240.992 443.437 241.568C444.349 242.144 445.005 242.88 445.405 243.776V240.896H447.085V254H445.405V251.096C444.989 251.992 444.325 252.736 443.413 253.328C442.517 253.904 441.445 254.192 440.197 254.192C439.013 254.192 437.941 253.912 436.981 253.352C436.037 252.792 435.293 252 434.749 250.976C434.221 249.952 433.957 248.768 433.957 247.424ZM445.405 247.448C445.405 246.392 445.189 245.464 444.757 244.664C444.325 243.864 443.733 243.248 442.981 242.816C442.245 242.384 441.429 242.168 440.533 242.168C439.605 242.168 438.773 242.376 438.037 242.792C437.301 243.208 436.717 243.816 436.285 244.616C435.869 245.4 435.661 246.336 435.661 247.424C435.661 248.496 435.869 249.44 436.285 250.256C436.717 251.056 437.301 251.672 438.037 252.104C438.773 252.52 439.605 252.728 440.533 252.728C441.429 252.728 442.245 252.512 442.981 252.08C443.733 251.648 444.325 251.032 444.757 250.232C445.189 249.432 445.405 248.504 445.405 247.448ZM457.064 240.656C458.632 240.656 459.912 241.144 460.904 242.12C461.896 243.08 462.392 244.48 462.392 246.32V254H460.736V246.512C460.736 245.088 460.376 244 459.656 243.248C458.952 242.496 457.984 242.12 456.752 242.12C455.488 242.12 454.48 242.52 453.728 243.32C452.976 244.12 452.6 245.296 452.6 246.848V254H450.92V240.896H452.6V243.128C453.016 242.328 453.616 241.72 454.4 241.304C455.184 240.872 456.072 240.656 457.064 240.656ZM466.948 238.424C466.612 238.424 466.324 238.304 466.084 238.064C465.844 237.824 465.724 237.528 465.724 237.176C465.724 236.824 465.844 236.536 466.084 236.312C466.324 236.072 466.612 235.952 466.948 235.952C467.284 235.952 467.572 236.072 467.812 236.312C468.052 236.536 468.172 236.824 468.172 237.176C468.172 237.528 468.052 237.824 467.812 238.064C467.572 238.304 467.284 238.424 466.948 238.424ZM467.788 240.896V254H466.108V240.896H467.788ZM472.48 252.608H479.344V254H470.56V252.608L477.304 242.288H470.68V240.896H479.224V242.288L472.48 252.608ZM481.418 247.424C481.418 246.08 481.682 244.904 482.21 243.896C482.754 242.872 483.498 242.088 484.442 241.544C485.402 240.984 486.482 240.704 487.682 240.704C488.93 240.704 490.002 240.992 490.898 241.568C491.81 242.144 492.466 242.88 492.866 243.776V240.896H494.546V254H492.866V251.096C492.45 251.992 491.786 252.736 490.874 253.328C489.978 253.904 488.906 254.192 487.658 254.192C486.474 254.192 485.402 253.912 484.442 253.352C483.498 252.792 482.754 252 482.21 250.976C481.682 249.952 481.418 248.768 481.418 247.424ZM492.866 247.448C492.866 246.392 492.65 245.464 492.218 244.664C491.786 243.864 491.194 243.248 490.442 242.816C489.706 242.384 488.89 242.168 487.994 242.168C487.066 242.168 486.234 242.376 485.498 242.792C484.762 243.208 484.178 243.816 483.746 244.616C483.33 245.4 483.122 246.336 483.122 247.424C483.122 248.496 483.33 249.44 483.746 250.256C484.178 251.056 484.762 251.672 485.498 252.104C486.234 252.52 487.066 252.728 487.994 252.728C488.89 252.728 489.706 252.512 490.442 252.08C491.194 251.648 491.786 251.032 492.218 250.232C492.65 249.432 492.866 248.504 492.866 247.448ZM504.525 240.656C506.093 240.656 507.373 241.144 508.365 242.12C509.357 243.08 509.853 244.48 509.853 246.32V254H508.197V246.512C508.197 245.088 507.837 244 507.117 243.248C506.413 242.496 505.445 242.12 504.213 242.12C502.949 242.12 501.941 242.52 501.189 243.32C500.437 244.12 500.061 245.296 500.061 246.848V254H498.381V240.896H500.061V243.128C500.477 242.328 501.077 241.72 501.861 241.304C502.645 240.872 503.533 240.656 504.525 240.656ZM512.8 247.424C512.8 246.08 513.072 244.904 513.616 243.896C514.16 242.872 514.904 242.088 515.848 241.544C516.808 240.984 517.888 240.704 519.088 240.704C520.24 240.704 521.28 240.984 522.208 241.544C523.136 242.104 523.816 242.832 524.248 243.728V236.24H525.928V254H524.248V251.072C523.848 251.984 523.192 252.736 522.28 253.328C521.368 253.904 520.296 254.192 519.064 254.192C517.864 254.192 516.784 253.912 515.824 253.352C514.88 252.792 514.136 252 513.592 250.976C513.064 249.952 512.8 248.768 512.8 247.424ZM524.248 247.448C524.248 246.392 524.032 245.464 523.6 244.664C523.168 243.864 522.576 243.248 521.824 242.816C521.088 242.384 520.272 242.168 519.376 242.168C518.448 242.168 517.616 242.376 516.88 242.792C516.144 243.208 515.56 243.816 515.128 244.616C514.712 245.4 514.504 246.336 514.504 247.424C514.504 248.496 514.712 249.44 515.128 250.256C515.56 251.056 516.144 251.672 516.88 252.104C517.616 252.52 518.448 252.728 519.376 252.728C520.272 252.728 521.088 252.512 521.824 252.08C522.576 251.648 523.168 251.032 523.6 250.232C524.032 249.432 524.248 248.504 524.248 247.448ZM535.5 254.192C534.268 254.192 533.156 253.92 532.164 253.376C531.188 252.816 530.412 252.032 529.836 251.024C529.276 250 528.996 248.808 528.996 247.448C528.996 246.088 529.284 244.904 529.86 243.896C530.436 242.872 531.22 242.088 532.212 241.544C533.204 240.984 534.316 240.704 535.548 240.704C536.78 240.704 537.892 240.984 538.884 241.544C539.892 242.088 540.676 242.872 541.236 243.896C541.812 244.904 542.1 246.088 542.1 247.448C542.1 248.792 541.812 249.976 541.236 251C540.66 252.024 539.868 252.816 538.86 253.376C537.852 253.92 536.732 254.192 535.5 254.192ZM535.5 252.728C536.364 252.728 537.164 252.536 537.9 252.152C538.636 251.752 539.228 251.16 539.676 250.376C540.14 249.576 540.372 248.6 540.372 247.448C540.372 246.296 540.148 245.328 539.7 244.544C539.252 243.744 538.66 243.152 537.924 242.768C537.188 242.368 536.388 242.168 535.524 242.168C534.66 242.168 533.86 242.368 533.124 242.768C532.388 243.152 531.796 243.744 531.348 244.544C530.916 245.328 530.7 246.296 530.7 247.448C530.7 248.6 530.916 249.576 531.348 250.376C531.796 251.16 532.38 251.752 533.1 252.152C533.836 252.536 534.636 252.728 535.5 252.728ZM556.26 254.192C554.756 254.192 553.524 253.848 552.564 253.16C551.62 252.456 551.092 251.504 550.98 250.304H552.708C552.788 251.04 553.132 251.64 553.74 252.104C554.364 252.552 555.196 252.776 556.236 252.776C557.148 252.776 557.86 252.56 558.372 252.128C558.9 251.696 559.164 251.16 559.164 250.52C559.164 250.072 559.02 249.704 558.732 249.416C558.444 249.128 558.076 248.904 557.628 248.744C557.196 248.568 556.604 248.384 555.852 248.192C554.876 247.936 554.084 247.68 553.476 247.424C552.868 247.168 552.348 246.792 551.916 246.296C551.5 245.784 551.292 245.104 551.292 244.256C551.292 243.616 551.484 243.024 551.868 242.48C552.252 241.936 552.796 241.504 553.5 241.184C554.204 240.864 555.004 240.704 555.9 240.704C557.308 240.704 558.444 241.064 559.308 241.784C560.172 242.488 560.636 243.464 560.7 244.712H559.02C558.972 243.944 558.668 243.328 558.108 242.864C557.564 242.384 556.812 242.144 555.852 242.144C555.004 242.144 554.316 242.344 553.788 242.744C553.26 243.144 552.996 243.64 552.996 244.232C552.996 244.744 553.148 245.168 553.452 245.504C553.772 245.824 554.164 246.08 554.628 246.272C555.092 246.448 555.716 246.648 556.5 246.872C557.444 247.128 558.196 247.376 558.756 247.616C559.316 247.856 559.796 248.208 560.196 248.672C560.596 249.136 560.804 249.752 560.82 250.52C560.82 251.224 560.628 251.856 560.244 252.416C559.86 252.96 559.324 253.392 558.636 253.712C557.948 254.032 557.156 254.192 556.26 254.192ZM575.335 240.896V254H573.655V251.696C573.271 252.512 572.679 253.136 571.879 253.568C571.079 254 570.183 254.216 569.191 254.216C567.623 254.216 566.343 253.736 565.351 252.776C564.359 251.8 563.863 250.392 563.863 248.552V240.896H565.519V248.36C565.519 249.784 565.871 250.872 566.575 251.624C567.295 252.376 568.271 252.752 569.503 252.752C570.767 252.752 571.775 252.352 572.527 251.552C573.279 250.752 573.655 249.576 573.655 248.024V240.896H575.335ZM578.402 247.424C578.402 246.08 578.666 244.904 579.194 243.896C579.738 242.872 580.482 242.088 581.426 241.544C582.386 240.984 583.466 240.704 584.666 240.704C585.914 240.704 586.986 240.992 587.882 241.568C588.794 242.144 589.45 242.88 589.85 243.776V240.896H591.53V254H589.85V251.096C589.434 251.992 588.77 252.736 587.858 253.328C586.962 253.904 585.89 254.192 584.642 254.192C583.458 254.192 582.386 253.912 581.426 253.352C580.482 252.792 579.738 252 579.194 250.976C578.666 249.952 578.402 248.768 578.402 247.424ZM589.85 247.448C589.85 246.392 589.634 245.464 589.202 244.664C588.77 243.864 588.178 243.248 587.426 242.816C586.69 242.384 585.874 242.168 584.978 242.168C584.05 242.168 583.218 242.376 582.482 242.792C581.746 243.208 581.162 243.816 580.73 244.616C580.314 245.4 580.106 246.336 580.106 247.424C580.106 248.496 580.314 249.44 580.73 250.256C581.162 251.056 581.746 251.672 582.482 252.104C583.218 252.52 584.05 252.728 584.978 252.728C585.874 252.728 586.69 252.512 587.426 252.08C588.178 251.648 588.77 251.032 589.202 250.232C589.634 249.432 589.85 248.504 589.85 247.448ZM603.631 243.224C603.999 242.408 604.559 241.776 605.311 241.328C606.079 240.88 607.015 240.656 608.119 240.656V242.408H607.663C606.447 242.408 605.471 242.736 604.735 243.392C603.999 244.048 603.631 245.144 603.631 246.68V254H601.951V240.896H603.631V243.224ZM622.503 246.776C622.503 247.352 622.487 247.792 622.455 248.096H611.583C611.631 249.088 611.871 249.936 612.303 250.64C612.735 251.344 613.303 251.88 614.007 252.248C614.711 252.6 615.479 252.776 616.311 252.776C617.399 252.776 618.311 252.512 619.047 251.984C619.799 251.456 620.295 250.744 620.535 249.848H622.311C621.991 251.128 621.303 252.176 620.247 252.992C619.207 253.792 617.895 254.192 616.311 254.192C615.079 254.192 613.975 253.92 612.999 253.376C612.023 252.816 611.255 252.032 610.695 251.024C610.151 250 609.879 248.808 609.879 247.448C609.879 246.088 610.151 244.896 610.695 243.872C611.239 242.848 611.999 242.064 612.975 241.52C613.951 240.976 615.063 240.704 616.311 240.704C617.559 240.704 618.647 240.976 619.575 241.52C620.519 242.064 621.239 242.8 621.735 243.728C622.247 244.64 622.503 245.656 622.503 246.776ZM620.799 246.728C620.815 245.752 620.615 244.92 620.199 244.232C619.799 243.544 619.247 243.024 618.543 242.672C617.839 242.32 617.071 242.144 616.239 242.144C614.991 242.144 613.927 242.544 613.047 243.344C612.167 244.144 611.679 245.272 611.583 246.728H620.799ZM631.72 240.656C633.288 240.656 634.568 241.144 635.56 242.12C636.552 243.08 637.048 244.48 637.048 246.32V254H635.392V246.512C635.392 245.088 635.032 244 634.312 243.248C633.608 242.496 632.64 242.12 631.408 242.12C630.144 242.12 629.136 242.52 628.384 243.32C627.632 244.12 627.256 245.296 627.256 246.848V254H625.576V240.896H627.256V243.128C627.672 242.328 628.272 241.72 629.056 241.304C629.84 240.872 630.728 240.656 631.72 240.656ZM639.996 247.424C639.996 246.08 640.268 244.904 640.812 243.896C641.356 242.872 642.1 242.088 643.044 241.544C644.004 240.984 645.084 240.704 646.284 240.704C647.436 240.704 648.476 240.984 649.404 241.544C650.332 242.104 651.012 242.832 651.444 243.728V236.24H653.124V254H651.444V251.072C651.044 251.984 650.388 252.736 649.476 253.328C648.564 253.904 647.492 254.192 646.26 254.192C645.06 254.192 643.98 253.912 643.02 253.352C642.076 252.792 641.332 252 640.788 250.976C640.26 249.952 639.996 248.768 639.996 247.424ZM651.444 247.448C651.444 246.392 651.228 245.464 650.796 244.664C650.364 243.864 649.772 243.248 649.02 242.816C648.284 242.384 647.468 242.168 646.572 242.168C645.644 242.168 644.812 242.376 644.076 242.792C643.34 243.208 642.756 243.816 642.324 244.616C641.908 245.4 641.7 246.336 641.7 247.424C641.7 248.496 641.908 249.44 642.324 250.256C642.756 251.056 643.34 251.672 644.076 252.104C644.812 252.52 645.644 252.728 646.572 252.728C647.468 252.728 648.284 252.512 649.02 252.08C649.772 251.648 650.364 251.032 650.796 250.232C651.228 249.432 651.444 248.504 651.444 247.448ZM656.191 247.424C656.191 246.08 656.455 244.904 656.983 243.896C657.527 242.872 658.271 242.088 659.215 241.544C660.175 240.984 661.255 240.704 662.455 240.704C663.703 240.704 664.775 240.992 665.671 241.568C666.583 242.144 667.239 242.88 667.639 243.776V240.896H669.319V254H667.639V251.096C667.223 251.992 666.559 252.736 665.647 253.328C664.751 253.904 663.679 254.192 662.431 254.192C661.247 254.192 660.175 253.912 659.215 253.352C658.271 252.792 657.527 252 656.983 250.976C656.455 249.952 656.191 248.768 656.191 247.424ZM667.639 247.448C667.639 246.392 667.423 245.464 666.991 244.664C666.559 243.864 665.967 243.248 665.215 242.816C664.479 242.384 663.663 242.168 662.767 242.168C661.839 242.168 661.007 242.376 660.271 242.792C659.535 243.208 658.951 243.816 658.519 244.616C658.103 245.4 657.895 246.336 657.895 247.424C657.895 248.496 658.103 249.44 658.519 250.256C658.951 251.056 659.535 251.672 660.271 252.104C661.007 252.52 661.839 252.728 662.767 252.728C663.663 252.728 664.479 252.512 665.215 252.08C665.967 251.648 666.559 251.032 666.991 250.232C667.423 249.432 667.639 248.504 667.639 247.448ZM695.34 240.656C696.876 240.656 698.124 241.144 699.084 242.12C700.06 243.08 700.548 244.48 700.548 246.32V254H698.892V246.512C698.892 245.088 698.548 244 697.86 243.248C697.172 242.496 696.236 242.12 695.052 242.12C693.82 242.12 692.836 242.528 692.1 243.344C691.364 244.16 690.996 245.344 690.996 246.896V254H689.34V246.512C689.34 245.088 688.996 244 688.308 243.248C687.62 242.496 686.676 242.12 685.476 242.12C684.244 242.12 683.26 242.528 682.524 243.344C681.788 244.16 681.42 245.344 681.42 246.896V254H679.74V240.896H681.42V243.152C681.836 242.336 682.428 241.72 683.196 241.304C683.964 240.872 684.82 240.656 685.764 240.656C686.9 240.656 687.892 240.928 688.74 241.472C689.604 242.016 690.228 242.816 690.612 243.872C690.964 242.832 691.564 242.04 692.412 241.496C693.276 240.936 694.252 240.656 695.34 240.656ZM716.135 246.776C716.135 247.352 716.119 247.792 716.087 248.096H705.215C705.263 249.088 705.503 249.936 705.935 250.64C706.367 251.344 706.935 251.88 707.639 252.248C708.343 252.6 709.111 252.776 709.943 252.776C711.031 252.776 711.943 252.512 712.679 251.984C713.431 251.456 713.927 250.744 714.167 249.848H715.943C715.623 251.128 714.935 252.176 713.879 252.992C712.839 253.792 711.527 254.192 709.943 254.192C708.711 254.192 707.607 253.92 706.631 253.376C705.655 252.816 704.887 252.032 704.327 251.024C703.783 250 703.511 248.808 703.511 247.448C703.511 246.088 703.783 244.896 704.327 243.872C704.871 242.848 705.631 242.064 706.607 241.52C707.583 240.976 708.695 240.704 709.943 240.704C711.191 240.704 712.279 240.976 713.207 241.52C714.151 242.064 714.871 242.8 715.367 243.728C715.879 244.64 716.135 245.656 716.135 246.776ZM714.431 246.728C714.447 245.752 714.247 244.92 713.831 244.232C713.431 243.544 712.879 243.024 712.175 242.672C711.471 242.32 710.703 242.144 709.871 242.144C708.623 242.144 707.559 242.544 706.679 243.344C705.799 244.144 705.311 245.272 705.215 246.728H714.431ZM725.353 240.656C726.921 240.656 728.201 241.144 729.193 242.12C730.185 243.08 730.681 244.48 730.681 246.32V254H729.025V246.512C729.025 245.088 728.665 244 727.945 243.248C727.241 242.496 726.273 242.12 725.041 242.12C723.777 242.12 722.769 242.52 722.017 243.32C721.265 244.12 720.889 245.296 720.889 246.848V254H719.209V240.896H720.889V243.128C721.305 242.328 721.905 241.72 722.689 241.304C723.473 240.872 724.361 240.656 725.353 240.656ZM738.909 254.192C737.405 254.192 736.173 253.848 735.213 253.16C734.269 252.456 733.741 251.504 733.629 250.304H735.357C735.437 251.04 735.781 251.64 736.389 252.104C737.013 252.552 737.845 252.776 738.885 252.776C739.797 252.776 740.509 252.56 741.021 252.128C741.549 251.696 741.813 251.16 741.813 250.52C741.813 250.072 741.669 249.704 741.381 249.416C741.093 249.128 740.725 248.904 740.277 248.744C739.845 248.568 739.253 248.384 738.501 248.192C737.525 247.936 736.733 247.68 736.125 247.424C735.517 247.168 734.997 246.792 734.565 246.296C734.149 245.784 733.941 245.104 733.941 244.256C733.941 243.616 734.133 243.024 734.517 242.48C734.901 241.936 735.445 241.504 736.149 241.184C736.853 240.864 737.653 240.704 738.549 240.704C739.957 240.704 741.093 241.064 741.957 241.784C742.821 242.488 743.285 243.464 743.349 244.712H741.669C741.621 243.944 741.317 243.328 740.757 242.864C740.213 242.384 739.461 242.144 738.501 242.144C737.653 242.144 736.965 242.344 736.437 242.744C735.909 243.144 735.645 243.64 735.645 244.232C735.645 244.744 735.797 245.168 736.101 245.504C736.421 245.824 736.813 246.08 737.277 246.272C737.741 246.448 738.365 246.648 739.149 246.872C740.093 247.128 740.845 247.376 741.405 247.616C741.965 247.856 742.445 248.208 742.845 248.672C743.245 249.136 743.453 249.752 743.469 250.52C743.469 251.224 743.277 251.856 742.893 252.416C742.509 252.96 741.973 253.392 741.285 253.712C740.597 254.032 739.805 254.192 738.909 254.192ZM745.863 247.424C745.863 246.08 746.127 244.904 746.655 243.896C747.199 242.872 747.943 242.088 748.887 241.544C749.847 240.984 750.927 240.704 752.127 240.704C753.375 240.704 754.447 240.992 755.343 241.568C756.255 242.144 756.911 242.88 757.311 243.776V240.896H758.991V254H757.311V251.096C756.895 251.992 756.231 252.736 755.319 253.328C754.423 253.904 753.351 254.192 752.103 254.192C750.919 254.192 749.847 253.912 748.887 253.352C747.943 252.792 747.199 252 746.655 250.976C746.127 249.952 745.863 248.768 745.863 247.424ZM757.311 247.448C757.311 246.392 757.095 245.464 756.663 244.664C756.231 243.864 755.639 243.248 754.887 242.816C754.151 242.384 753.335 242.168 752.439 242.168C751.511 242.168 750.679 242.376 749.943 242.792C749.207 243.208 748.623 243.816 748.191 244.616C747.775 245.4 747.567 246.336 747.567 247.424C747.567 248.496 747.775 249.44 748.191 250.256C748.623 251.056 749.207 251.672 749.943 252.104C750.679 252.52 751.511 252.728 752.439 252.728C753.335 252.728 754.151 252.512 754.887 252.08C755.639 251.648 756.231 251.032 756.663 250.232C757.095 249.432 757.311 248.504 757.311 247.448ZM764.506 236.24V254H762.826V236.24H764.506ZM768.599 254.12C768.247 254.12 767.951 254 767.711 253.76C767.487 253.52 767.375 253.224 767.375 252.872C767.375 252.52 767.487 252.232 767.711 252.008C767.951 251.768 768.247 251.648 768.599 251.648C768.935 251.648 769.215 251.768 769.439 252.008C769.679 252.232 769.799 252.52 769.799 252.872C769.799 253.224 769.679 253.52 769.439 253.76C769.215 254 768.935 254.12 768.599 254.12Z" fill="white"/>
</g>
<defs>
<clipPath id="clip0_46_5">
<rect width="810" height="323" fill="white"/>
</clipPath>
</defs>
</svg>
